<svg xmlns="http://www.w3.org/2000/svg" xmlns:xlink="http://www.w3.org/1999/xlink" width="636.35" height="325.063" viewBox="0 0 636.35 325.063">
  <defs>
    <linearGradient id="linear-gradient" x1="82.796" y1="0.021" x2="83.784" y2="0.041" gradientUnits="objectBoundingBox">
      <stop offset="0" stop-color="#02797d"/>
      <stop offset="1" stop-color="#1d868b"/>
    </linearGradient>
    <radialGradient id="radial-gradient" cx="0.533" cy="0.391" r="0.672" gradientTransform="matrix(-1.699, 0, 0, 1, 164.786, 0)" gradientUnits="objectBoundingBox">
      <stop offset="0.453" stop-color="#1d868b"/>
      <stop offset="1" stop-color="#20949a"/>
    </radialGradient>
    <radialGradient id="radial-gradient-2" cx="0.134" cy="0.45" r="0.254" gradientTransform="translate(169.411 11.733) scale(3.584 1.513)" gradientUnits="objectBoundingBox">
      <stop offset="0" stop-color="#02797d"/>
      <stop offset="0.985" stop-color="#1d868b"/>
    </radialGradient>
    <radialGradient id="radial-gradient-3" cx="0.525" cy="0.076" r="0.228" gradientTransform="translate(70.598) scale(2.434 1)" xlink:href="#radial-gradient-2"/>
  </defs>
  <g id="Grupo_12718" data-name="Grupo 12718" transform="translate(-162.105 -1458.897)">
    <g id="Grupo_12715" data-name="Grupo 12715" transform="translate(162.105 1458.897)">
      <g id="Grupo_12591" data-name="Grupo 12591" transform="translate(0 110.619)">
        <g id="Grupo_12581" data-name="Grupo 12581" transform="translate(35.279 24.884)">
          <path id="Trazado_11148" data-name="Trazado 11148" d="M291.068,1704.973c-21.8-40.94-55.74-82.458-93.13-113.905a.894.894,0,0,0-1.151,1.369c37.222,31.307,71.01,72.63,92.7,113.377A.9.9,0,0,0,291.068,1704.973Z" transform="translate(-196.458 -1590.844)" fill="#f87314"/>
        </g>
        <g id="Grupo_12583" data-name="Grupo 12583">
          <path id="Trazado_11149" data-name="Trazado 11149" d="M198.289,1592.4a253.682,253.682,0,0,0-36.184-25.56Z" transform="translate(-162.105 -1566.607)" fill="#f87314"/>
          <g id="Grupo_12582" data-name="Grupo 12582">
            <path id="Trazado_11150" data-name="Trazado 11150" d="M190.611,1592.522c3.416.572,7.134.536,7.677-.116,1.275-1.535-1.45-12.692-10.633-19.4-7.239-5.192-17.766-7.1-25.551-6.156a67.436,67.436,0,0,0,8.771,14.228C176.088,1587.208,181.518,1590.986,190.611,1592.522Z" transform="translate(-162.105 -1566.613)" fill="#f87314"/>
          </g>
        </g>
        <g id="Grupo_12584" data-name="Grupo 12584" transform="translate(10.4 37.256)">
          <path id="Trazado_11151" data-name="Trazado 11151" d="M195.2,1619.519c11.624-2.369,19.878-11.688,19.548-13.2-.284-1.305-6.4-3.333-12.675-3.425-12.772-.142-21.524,7.421-29.842,11.439C174.691,1617.755,184.413,1621.757,195.2,1619.519Z" transform="translate(-172.232 -1602.891)" fill="#f87314"/>
        </g>
        <g id="Grupo_12585" data-name="Grupo 12585" transform="translate(24.916 62.984)">
          <path id="Trazado_11152" data-name="Trazado 11152" d="M223.235,1641.525c10.19-4.394,13.934-12.11,13.4-12.979-.46-.743-3.873-.611-7.932-.56-4.453.075-6.388-.055-10.12.009-9.752.127-27.293,2.673-32.213,11.011a11.013,11.013,0,0,1,4.815.255C196.7,1640.627,208.257,1647.988,223.235,1641.525Z" transform="translate(-186.367 -1627.944)" fill="#f87314"/>
        </g>
        <g id="Grupo_12586" data-name="Grupo 12586" transform="translate(46.98 91.778)">
          <path id="Trazado_11153" data-name="Trazado 11153" d="M254.566,1666.782a20.542,20.542,0,0,0,4.707-7.956c1.108-4.479-.238-2.842-8.33-.691-3.692,1.041-6.215,1.531-14.775,3.351-15.813,3.76-23.366,5.979-28.316,5.919C211.1,1677.232,238.462,1683.98,254.566,1666.782Z" transform="translate(-207.852 -1655.983)" fill="#f87314"/>
        </g>
        <g id="Grupo_12587" data-name="Grupo 12587" transform="translate(64.887 116.212)">
          <path id="Trazado_11154" data-name="Trazado 11154" d="M272.741,1691.406c5.624-1.379,8.456-2.035,8.753-2.63,1.044-2.066-9.29-12.512-26.814-7.786-12.618,3.283-24.8,14.292-29.391,21.883C246.308,1697.416,235.908,1700.933,272.741,1691.406Z" transform="translate(-225.289 -1679.775)" fill="#f87314"/>
        </g>
        <g id="Grupo_12588" data-name="Grupo 12588" transform="translate(50.744 3.692)">
          <path id="Trazado_11155" data-name="Trazado 11155" d="M222.611,1615.94c.841.17,2.867-1.7,3.481-2.3,14.632-14.845,9.372-40.8-14.576-43.431,2.773,7.909,4.018,8.622,5.46,20.522C217.894,1599.33,220.95,1615.605,222.611,1615.94Z" transform="translate(-211.517 -1570.208)" fill="#f87314"/>
        </g>
        <g id="Grupo_12589" data-name="Grupo 12589" transform="translate(86.517 31.893)">
          <path id="Trazado_11156" data-name="Trazado 11156" d="M248.548,1628.8c-.454,1.884-2.921,13.179-1.987,13.968,2.1,1.835,22.017-6.871,21.975-27.462.048-7.994-3.315-14.95-5.528-17.633C254.153,1613.92,250.847,1619.142,248.548,1628.8Z" transform="translate(-246.351 -1597.669)" fill="#f87314"/>
        </g>
        <g id="Grupo_12590" data-name="Grupo 12590" transform="translate(108.561 76.208)">
          <path id="Trazado_11157" data-name="Trazado 11157" d="M271.552,1657.926c-4.135,7.677-4.029,12.556-3.429,12.938,1.628,1.034,14.08-5.554,15.818-6.542,6.864-3.687,10.219-6.471,29.431-21.011C301.284,1637.558,280.736,1641.512,271.552,1657.926Z" transform="translate(-267.817 -1640.822)" fill="#f87314"/>
        </g>
      </g>
      <path id="Trazado_11158" data-name="Trazado 11158" d="M754.439,1569.77c5.4-4.332,8.527-10.077,8.926-13.315-8.977,2.077-22.712-.13-34.933,12.22.317-.8,6.3-16.124,6.212-16.761,2.556-.976,9.783-6.792,12.41-15.5,2.529-8.1.979-18.324-1.744-24.313a69.767,69.767,0,0,0-9.249,12.165c-7.3,12.317-4.519,24.485-2.731,27.221l.009.014c-.035.482-4.266,11.733-11.113,28.125a77.494,77.494,0,0,0-4.375-19.863c-3.954-11.376-3.139-12.025-4.453-17.659a22.663,22.663,0,0,0-7.894,9.176c-3.141,6.8-2.407,15.956,3.6,23.413,4.3,5.331,9.578,7.745,11.828,8.023-3.81,9.045-8.333,19.447-13.331,30.359a67.708,67.708,0,0,0-4.437-10.139c-3.737-6.974-7.879-11-19.923-21.81-2.891,7.8-.495,22.453,10.6,30.065,5.3,3.632,10.56,4.332,12.823,3.919-4.348,9.438-9.037,19.212-13.915,28.785-.652-4.1-5.133-13.865-16.563-18.146a33.3,33.3,0,0,0-16.155-1.6l1.78,9.011c1.664.98,3.41,2.023,5.153,3.1,8.664,5.328,21.172,9.655,24.76,9.644-4.05,7.882-8.223,15.6-12.431,22.853l2.019-.4c.657-1.146,1.33-2.335,2.013-3.558a76.292,76.292,0,0,0,7.769,1.627l32.636-6.445c-13.108-8.9-29.136-7.557-37.274-.877,4.291-7.928,8.96-17.046,13.725-26.794a16.484,16.484,0,0,0,4.582,6.581,23.341,23.341,0,0,0,5.769,3.753c4.528,2.263,11.255,3.1,18.117,1.063,10.445-3.081,17.731-12.055,18.357-17.066-7.006,3.037-36.671,4.212-39.332,4.133-2.837-.038-5.276-.351-6.613-.271,4.686-9.64,9.445-19.851,14.007-30.1,3.26,4.6,15.9,10.259,28.727,2.032,8.028-5.144,10.447-11.585,16.168-14.053-6.8-5.563-25.234,2.05-33.28,5.632-5.738,2.573-9.1,3.657-10.745,4.427,3.885-8.786,7.613-17.575,11.011-26.038C729.774,1574.567,742.455,1579.339,754.439,1569.77Z" transform="translate(-148.686 -1457.463)" fill="#fff"/>
      <g id="Grupo_12599" data-name="Grupo 12599" transform="translate(414.647 42.244)">
        <path id="Trazado_11159" data-name="Trazado 11159" d="M595.463,1695.008c-70.013-27.693-.513-159.694,61.828-194.976C709.628,1591.636,690.07,1732.43,595.463,1695.008Z" transform="translate(-565.862 -1500.032)" fill="#f87314"/>
        <g id="Grupo_12592" data-name="Grupo 12592" transform="translate(39.052 0.263)">
          <path id="Trazado_11160" data-name="Trazado 11160" d="M604.428,1704.952a1.171,1.171,0,0,0,.367.162,1.188,1.188,0,0,0,1.441-.863l50.825-202.488a1.187,1.187,0,1,0-2.3-.577l-50.825,202.488A1.186,1.186,0,0,0,604.428,1704.952Z" transform="translate(-603.897 -1500.288)" fill="#f4f4ef"/>
        </g>
        <g id="Grupo_12593" data-name="Grupo 12593" transform="translate(80.729 22.995)">
          <path id="Trazado_11161" data-name="Trazado 11161" d="M645.011,1538.314a1.189,1.189,0,0,0,1.3.008l21.255-13.715a1.187,1.187,0,1,0-1.287-1.994l-21.255,13.714a1.188,1.188,0,0,0-.013,1.987Z" transform="translate(-644.48 -1522.423)" fill="#f4f4ef"/>
        </g>
        <g id="Grupo_12594" data-name="Grupo 12594" transform="translate(57.264 25.54)">
          <path id="Trazado_11162" data-name="Trazado 11162" d="M640.3,1559.451a1.187,1.187,0,0,0,1.692-1.569l-18.143-32.373a1.187,1.187,0,1,0-2.07,1.161l18.143,32.372A1.167,1.167,0,0,0,640.3,1559.451Z" transform="translate(-621.631 -1524.902)" fill="#f4f4ef"/>
        </g>
        <g id="Grupo_12595" data-name="Grupo 12595" transform="translate(68.812 68.557)">
          <path id="Trazado_11163" data-name="Trazado 11163" d="M633.406,1585.024a1.187,1.187,0,0,0,1.045.133l46.368-16.057a1.187,1.187,0,0,0-.776-2.244l-46.368,16.057a1.188,1.188,0,0,0-.269,2.111Z" transform="translate(-632.876 -1566.79)" fill="#f4f4ef"/>
        </g>
        <g id="Grupo_12596" data-name="Grupo 12596" transform="translate(24.663 72.042)">
          <path id="Trazado_11164" data-name="Trazado 11164" d="M626.113,1618.182a1.187,1.187,0,0,0,1.592-1.719l-35.7-45.822a1.187,1.187,0,1,0-1.872,1.458l35.7,45.822A1.183,1.183,0,0,0,626.113,1618.182Z" transform="translate(-589.886 -1570.183)" fill="#f4f4ef"/>
        </g>
        <g id="Grupo_12597" data-name="Grupo 12597" transform="translate(53.226 141.826)">
          <path id="Trazado_11165" data-name="Trazado 11165" d="M618.23,1644.769a1.193,1.193,0,0,0,.743.194l60.323-4.457a1.187,1.187,0,1,0-.175-2.367L618.8,1642.6a1.188,1.188,0,0,0-.569,2.174Z" transform="translate(-617.699 -1638.136)" fill="#f4f4ef"/>
        </g>
        <g id="Grupo_12598" data-name="Grupo 12598" transform="translate(0 134.129)">
          <path id="Trazado_11166" data-name="Trazado 11166" d="M611.966,1675.5a1.187,1.187,0,0,0,1.466-1.857l-45.564-42.681a1.187,1.187,0,0,0-1.624,1.732l45.564,42.681A1.346,1.346,0,0,0,611.966,1675.5Z" transform="translate(-565.87 -1630.641)" fill="#95c2dc"/>
        </g>
      </g>
      <g id="Grupo_12610" data-name="Grupo 12610" transform="translate(464.789 136.51)">
        <g id="Grupo_12600" data-name="Grupo 12600" transform="translate(9.703 30.481)">
          <path id="Trazado_11167" data-name="Trazado 11167" d="M625.734,1730.587c17.257-20.285,69.021-69.334,120.094-107.452a.9.9,0,0,0-1.058-1.443c-41.979,30.764-100,83.746-120.4,107.735A.9.9,0,0,0,625.734,1730.587Z" transform="translate(-624.145 -1621.505)" fill="#ffb833"/>
        </g>
        <g id="Grupo_12602" data-name="Grupo 12602" transform="translate(130.728 5.066)">
          <path id="Trazado_11168" data-name="Trazado 11168" d="M742.119,1623.072c13.311-9.753,25.672-18.261,40.7-26.031Z" transform="translate(-741.99 -1596.749)" fill="#ffb833"/>
          <g id="Grupo_12601" data-name="Grupo 12601">
            <path id="Trazado_11169" data-name="Trazado 11169" d="M755.152,1603.2c-10.048,6.629-13.943,18.642-13.03,19.884,1.161,1.579,17.666,1.927,30.225-11.675a81.261,81.261,0,0,0,10.479-14.356C775.247,1596.008,763.338,1597.681,755.152,1603.2Z" transform="translate(-741.994 -1596.757)" fill="#ffb833"/>
          </g>
        </g>
        <g id="Grupo_12603" data-name="Grupo 12603" transform="translate(101.937)">
          <path id="Trazado_11170" data-name="Trazado 11170" d="M723.423,1638.125c1.374-.151,3.664-5.07,4.228-6.377,7.406-16.817,1.154-29.376.491-39.924-3.475,1.523-8.837,6.925-11.867,14.378C708.779,1624.773,721.725,1638.3,723.423,1638.125Z" transform="translate(-713.958 -1591.824)" fill="#ffb833"/>
        </g>
        <g id="Grupo_12604" data-name="Grupo 12604" transform="translate(70.148 14.408)">
          <path id="Trazado_11171" data-name="Trazado 11171" d="M696.362,1659.97c2.319.687,1.288-2.318,2.983-15.156,1.313-10.16,3.663-33.23-4.8-38.96-.847,7.2-7.219,12.036-10.28,22.695C679.3,1645.832,690.187,1658.142,696.362,1659.97Z" transform="translate(-683.003 -1605.854)" fill="#ffb833"/>
        </g>
        <g id="Grupo_12605" data-name="Grupo 12605" transform="translate(30.454 41.579)">
          <path id="Trazado_11172" data-name="Trazado 11172" d="M651.565,1678.285a27.2,27.2,0,0,0,6.1,5.181c5.889,3.414,10.2,3.158,10.588,2.547.535-.839-1.154-4.161-2.511-8.493-1.143-3.453-9-34.866-8.609-44.01a10.688,10.688,0,0,1,.125-1.2c-5.376,2.365-12.951,13.472-12.909,26.137C644.36,1666.776,647.537,1673.992,651.565,1678.285Z" transform="translate(-644.351 -1632.312)" fill="#ffb833"/>
        </g>
        <g id="Grupo_12606" data-name="Grupo 12606" transform="translate(0 70.932)">
          <path id="Trazado_11173" data-name="Trazado 11173" d="M637.349,1715.843c.47.08,1.3-.547,2.318-1.88,8.473-11.069,4.8-35.29-14.7-48.081a38.234,38.234,0,0,0-10.273-4.988c2.319,7,7.156,21.972,8.616,25.8C625.855,1693.919,636.02,1715.621,637.349,1715.843Z" transform="translate(-614.696 -1660.894)" fill="#ffb833"/>
        </g>
        <g id="Grupo_12607" data-name="Grupo 12607" transform="translate(100.735 50.903)">
          <path id="Trazado_11174" data-name="Trazado 11174" d="M712.819,1645.386c-.464,1.323,4.178,7.984,13.094,11.638,10.307,4.21,20.756,1.981,27.287-3.782,3.914-3.469,5.863-7.051,7.6-11.851-6.717.412-7.169,1.535-21.162.915C726.531,1641.559,713.3,1644,712.819,1645.386Z" transform="translate(-712.787 -1641.391)" fill="#ffb833"/>
        </g>
        <g id="Grupo_12608" data-name="Grupo 12608" transform="translate(69.601 80.981)">
          <path id="Trazado_11175" data-name="Trazado 11175" d="M697.233,1672.252c-4.51-.925-13.747-2.183-14.546-1.237-.963,1.139,1.175,8.494,8.449,14.369,12.176,9.834,29.307,7.626,37.033,1.81C712.109,1677.373,706.25,1674.1,697.233,1672.252Z" transform="translate(-682.47 -1670.679)" fill="#ffb833"/>
        </g>
        <g id="Grupo_12609" data-name="Grupo 12609" transform="translate(40.161 107.673)">
          <path id="Trazado_11176" data-name="Trazado 11176" d="M653.862,1697.528c-.924,1.971,9.173,16.613,19.062,25.449,7.492,6.687,14.452,13.614,15.545,14.648,1.721-9.025-.323-19.341-6.906-28.42C670.991,1695.256,654.647,1695.856,653.862,1697.528Z" transform="translate(-653.803 -1696.671)" fill="#ffb833"/>
        </g>
      </g>
      <g id="books" transform="translate(463.078 157.135)">
        <g id="Grupo_12611" data-name="Grupo 12611" transform="translate(0 19.285)">
          <path id="Trazado_11177" data-name="Trazado 11177" d="M666.7,1726.6h0a8.939,8.939,0,0,1-6.832-10.638l16.849-77.356a8.94,8.94,0,0,1,10.638-6.832h0a8.941,8.941,0,0,1,6.833,10.638l-16.85,77.356A8.94,8.94,0,0,1,666.7,1726.6Z" transform="translate(-611.774 -1630.663)" fill="#ba1400"/>
          <rect id="Rectángulo_3294" data-name="Rectángulo 3294" width="17.881" height="97.05" rx="2.322" transform="translate(85.791)" fill="#ba1400"/>
          <rect id="Rectángulo_3295" data-name="Rectángulo 3295" width="23.728" height="97.05" rx="2.322" transform="translate(105.476)" fill="#ba1400"/>
          <rect id="Rectángulo_3296" data-name="Rectángulo 3296" width="23.728" height="97.05" rx="2.322" fill="#ba1400"/>
          <rect id="Rectángulo_3297" data-name="Rectángulo 3297" width="20.372" height="97.05" rx="2.322" transform="translate(25.491)" fill="#ba1400"/>
          <rect id="Rectángulo_3298" data-name="Rectángulo 3298" width="23.728" height="17.193" transform="translate(0 17.192)" fill="#fff" opacity="0.2"/>
          <rect id="Rectángulo_3299" data-name="Rectángulo 3299" width="20.372" height="8.139" transform="translate(25.491 72.449)" fill="#fff" opacity="0.2"/>
          <rect id="Rectángulo_3300" data-name="Rectángulo 3300" width="20.372" height="13.388" transform="translate(25.491 52.566)" fill="#fff" opacity="0.2"/>
          <rect id="Rectángulo_3301" data-name="Rectángulo 3301" width="17.881" height="12.991" transform="translate(85.791 59.458)" fill="#fff" opacity="0.2"/>
          <rect id="Rectángulo_3302" data-name="Rectángulo 3302" width="23.728" height="21.815" transform="translate(105.476 27.839)" fill="#fff" opacity="0.2"/>
          <path id="Trazado_11178" data-name="Trazado 11178" d="M682.76,1650.037h0a7.426,7.426,0,0,1-5.675-8.836h0a7.426,7.426,0,0,1,8.836-5.676h0a7.427,7.427,0,0,1,5.676,8.836h0A7.426,7.426,0,0,1,682.76,1650.037Z" transform="translate(-611.309 -1630.561)" fill="#fff" opacity="0.2"/>
          <path id="Trazado_11179" data-name="Trazado 11179" d="M669.469,1712.221h0a7.426,7.426,0,0,1-5.675-8.836l9.72-44.624a7.425,7.425,0,0,1,8.836-5.675h0a7.427,7.427,0,0,1,5.676,8.836l-9.72,44.624A7.425,7.425,0,0,1,669.469,1712.221Z" transform="translate(-611.667 -1630.088)" fill="#fff" opacity="0.2"/>
        </g>
        <g id="Grupo_12612" data-name="Grupo 12612" transform="translate(24.578)">
          <path id="Trazado_11180" data-name="Trazado 11180" d="M675.371,1628.756h69.26a31.493,31.493,0,0,1,0-15.467h-69.26Z" transform="translate(-635.929 -1611.871)" fill="#f4f4ef"/>
          <path id="Trazado_11181" data-name="Trazado 11181" d="M639.935,1611.908H747.7a.884.884,0,0,1,.884.884v.678a.884.884,0,0,1-.884.884H678.863a1.477,1.477,0,0,0-1.477,1.477v10.456a1.477,1.477,0,0,0,1.477,1.478H747.7a.884.884,0,0,1,.884.884v.67a.884.884,0,0,1-.884.884H639.935a2.971,2.971,0,0,1-2.971-2.971v-12.354A2.97,2.97,0,0,1,639.935,1611.908Z" transform="translate(-636.964 -1611.908)" fill="#6b614f"/>
          <path id="Trazado_11182" data-name="Trazado 11182" d="M661.867,1611.908h8.813a2.97,2.97,0,0,0-2.97,2.97v12.354a2.97,2.97,0,0,0,2.97,2.971h-8.813a2.97,2.97,0,0,1-2.97-2.971v-12.354A2.97,2.97,0,0,1,661.867,1611.908Z" transform="translate(-636.373 -1611.908)" fill="#4d96c2"/>
          <path id="Trazado_11183" data-name="Trazado 11183" d="M718.214,1616.86h-39.76a.368.368,0,1,1,0-.735h39.76a.368.368,0,1,1,0,.735Z" transform="translate(-635.856 -1611.794)" fill="#7f7f7f"/>
          <path id="Trazado_11184" data-name="Trazado 11184" d="M740.831,1620.959H678.454a.368.368,0,1,1,0-.735h62.377a.368.368,0,1,1,0,.735Z" transform="translate(-635.856 -1611.684)" fill="#7f7f7f"/>
          <path id="Trazado_11185" data-name="Trazado 11185" d="M734.188,1625.416H706.917a.368.368,0,1,1,0-.735h27.272a.368.368,0,1,1,0,.735Z" transform="translate(-635.089 -1611.564)" fill="#7f7f7f"/>
        </g>
      </g>
      <g id="Grupo_12617" data-name="Grupo 12617" transform="translate(91.153 55.84)">
        <g id="Grupo_12614" data-name="Grupo 12614">
          <path id="Trazado_11186" data-name="Trazado 11186" d="M267.217,1734.823h0V1513.271h0a16.351,16.351,0,0,0-16.351,16.351v188.85A16.352,16.352,0,0,0,267.217,1734.823Z" transform="translate(-250.866 -1513.271)" fill="#777"/>
          <path id="Trazado_11187" data-name="Trazado 11187" d="M624.047,1734.656H262.825a6.514,6.514,0,0,1-6.641-6.38V1517.513a4.331,4.331,0,0,1,4.416-4.242H624.047a4.331,4.331,0,0,1,4.416,4.242v212.9A4.331,4.331,0,0,1,624.047,1734.656Z" transform="translate(-250.723 -1513.271)" fill="#424242"/>
          <rect id="Rectángulo_3303" data-name="Rectángulo 3303" width="357.061" height="206.303" rx="14.905" transform="translate(13.036 7.372)" fill="#e2e8eb"/>
          <g id="Grupo_12613" data-name="Grupo 12613" transform="translate(17.046 11.383)">
            <path id="Trazado_11188" data-name="Trazado 11188" d="M615.325,1727.827H268.645a1.18,1.18,0,1,1,0-2.359h346.68a4.014,4.014,0,0,0,4.01-4.01V1525.535a1.18,1.18,0,1,1,2.36,0v195.923A6.377,6.377,0,0,1,615.325,1727.827Z" transform="translate(-267.465 -1524.355)" fill="#777"/>
          </g>
        </g>
        <g id="Grupo_12616" data-name="Grupo 12616" transform="translate(10.184 220.525)">
          <path id="Trazado_11189" data-name="Trazado 11189" d="M745.037,1740.324H269.38a8.6,8.6,0,0,1-8.6-8.6v-2.718H753.207a1.573,1.573,0,0,1,1.573,1.572h0A9.742,9.742,0,0,1,745.037,1740.324Z" transform="translate(-260.783 -1727.982)" fill="#424242"/>
          <path id="Trazado_11190" data-name="Trazado 11190" d="M420.65,1739.324H269.38a8.6,8.6,0,0,1-8.6-8.6v-2.718H428.82a1.573,1.573,0,0,1,1.573,1.572h0A9.743,9.743,0,0,1,420.65,1739.324Z" transform="translate(-260.783 -1728.009)" fill="#777"/>
          <g id="Grupo_12615" data-name="Grupo 12615" transform="translate(20.96 3.072)">
            <path id="Trazado_11191" data-name="Trazado 11191" d="M371.131,1736.712H282.755a1.562,1.562,0,0,1-1.562-1.562h0c0-.863.7-1.562.535-4.15H370.1c1.89,2.588,2.589,3.287,2.589,4.15h0A1.562,1.562,0,0,1,371.131,1736.712Z" transform="translate(-281.193 -1731)" fill="#424242"/>
            <path id="Trazado_11192" data-name="Trazado 11192" d="M380.819,1736.644h15.764a1.562,1.562,0,0,0,1.562-1.562h0a1.562,1.562,0,0,0-1.562-1.562H380.819a1.562,1.562,0,0,0-1.562,1.562h0A1.562,1.562,0,0,0,380.819,1736.644Z" transform="translate(-278.55 -1730.932)" fill="#4e9ab6"/>
          </g>
        </g>
      </g>
      <g id="Grupo_12668" data-name="Grupo 12668" transform="translate(203.124)">
        <rect id="Rectángulo_3304" data-name="Rectángulo 3304" width="202.038" height="251.716" fill="#fff9ec"/>
        <g id="Grupo_12618" data-name="Grupo 12618" transform="translate(17.173 17.298)">
          <path id="Trazado_11193" data-name="Trazado 11193" d="M542.6,1477.3H377.4a.779.779,0,1,1,0-1.559H542.6a.779.779,0,0,1,0,1.559Z" transform="translate(-376.621 -1475.741)" fill="#6b614f"/>
        </g>
        <g id="Grupo_12619" data-name="Grupo 12619" transform="translate(17.173 42.555)">
          <path id="Trazado_11194" data-name="Trazado 11194" d="M542.6,1501.894H377.4a.779.779,0,1,1,0-1.559H542.6a.779.779,0,0,1,0,1.559Z" transform="translate(-376.621 -1500.335)" fill="#6b614f"/>
        </g>
        <g id="Grupo_12621" data-name="Grupo 12621" transform="translate(11.718 17.53)">
          <g id="Grupo_12620" data-name="Grupo 12620">
            <circle id="Elipse_655" data-name="Elipse 655" cx="9.919" cy="9.919" r="9.919" transform="translate(0 13.233) rotate(-41.839)" fill="#ba1400"/>
            <path id="Trazado_11195" data-name="Trazado 11195" d="M391.269,1488.132H386.82V1483.9H383.4v4.234h-4.448v3.256H383.4v4.234h3.421v-4.234h4.448Z" transform="translate(-371.103 -1475.753)" fill="#fafafa"/>
          </g>
        </g>
        <g id="Grupo_12622" data-name="Grupo 12622" transform="translate(138.906 54.248)">
          <path id="Trazado_11196" data-name="Trazado 11196" d="M538.85,1514.216H496.406a1.247,1.247,0,0,1,0-2.495H538.85a1.247,1.247,0,0,1,0,2.495Z" transform="translate(-495.159 -1511.721)" fill="#6fa4c5"/>
        </g>
        <g id="Grupo_12623" data-name="Grupo 12623" transform="translate(87.143 54.248)">
          <path id="Trazado_11197" data-name="Trazado 11197" d="M501.818,1514.216H446a1.247,1.247,0,1,1,0-2.495h55.816a1.247,1.247,0,1,1,0,2.495Z" transform="translate(-444.754 -1511.721)" fill="#6fa4c5"/>
        </g>
        <g id="Grupo_12624" data-name="Grupo 12624" transform="translate(17.3 120.769)">
          <path id="Trazado_11198" data-name="Trazado 11198" d="M427.571,1578.991h-49.58a1.247,1.247,0,0,1,0-2.495h49.58a1.247,1.247,0,1,1,0,2.495Z" transform="translate(-376.744 -1576.496)" fill="#6fa4c5"/>
        </g>
        <g id="Grupo_12625" data-name="Grupo 12625" transform="translate(17.3 129.55)">
          <path id="Trazado_11199" data-name="Trazado 11199" d="M427.571,1587.542h-49.58a1.247,1.247,0,0,1,0-2.494h49.58a1.247,1.247,0,1,1,0,2.494Z" transform="translate(-376.744 -1585.047)" fill="#2d6c9c"/>
        </g>
        <g id="Grupo_12626" data-name="Grupo 12626" transform="translate(17.3 140.527)">
          <path id="Trazado_11200" data-name="Trazado 11200" d="M427.571,1598.231h-49.58a1.247,1.247,0,0,1,0-2.495h49.58a1.247,1.247,0,1,1,0,2.495Z" transform="translate(-376.744 -1595.736)" fill="#2d6c9c"/>
        </g>
        <g id="Grupo_12627" data-name="Grupo 12627" transform="translate(17.3 151.504)">
          <path id="Trazado_11201" data-name="Trazado 11201" d="M427.571,1608.92h-49.58a1.247,1.247,0,0,1,0-2.495h49.58a1.247,1.247,0,1,1,0,2.495Z" transform="translate(-376.744 -1606.425)" fill="#2d6c9c"/>
        </g>
        <g id="Grupo_12628" data-name="Grupo 12628" transform="translate(17.3 162.481)">
          <path id="Trazado_11202" data-name="Trazado 11202" d="M427.571,1619.609h-49.58a1.247,1.247,0,0,1,0-2.495h49.58a1.247,1.247,0,1,1,0,2.495Z" transform="translate(-376.744 -1617.114)" fill="#2d6c9c"/>
        </g>
        <g id="Grupo_12629" data-name="Grupo 12629" transform="translate(74.982 129.55)">
          <path id="Trazado_11203" data-name="Trazado 11203" d="M483.74,1587.542H434.16a1.247,1.247,0,1,1,0-2.494h49.58a1.247,1.247,0,0,1,0,2.494Z" transform="translate(-432.912 -1585.047)" fill="#2d6c9c"/>
        </g>
        <g id="Grupo_12630" data-name="Grupo 12630" transform="translate(74.982 140.527)">
          <path id="Trazado_11204" data-name="Trazado 11204" d="M483.74,1598.231H434.16a1.247,1.247,0,1,1,0-2.495h49.58a1.247,1.247,0,0,1,0,2.495Z" transform="translate(-432.912 -1595.736)" fill="#2d6c9c"/>
        </g>
        <g id="Grupo_12631" data-name="Grupo 12631" transform="translate(74.982 151.504)">
          <path id="Trazado_11205" data-name="Trazado 11205" d="M483.74,1608.92H434.16a1.247,1.247,0,1,1,0-2.495h49.58a1.247,1.247,0,0,1,0,2.495Z" transform="translate(-432.912 -1606.425)" fill="#2d6c9c"/>
        </g>
        <g id="Grupo_12632" data-name="Grupo 12632" transform="translate(74.982 162.481)">
          <path id="Trazado_11206" data-name="Trazado 11206" d="M483.74,1619.609H434.16a1.247,1.247,0,1,1,0-2.495h49.58a1.247,1.247,0,0,1,0,2.495Z" transform="translate(-432.912 -1617.114)" fill="#2d6c9c"/>
        </g>
        <g id="Grupo_12633" data-name="Grupo 12633" transform="translate(131.907 129.55)">
          <path id="Trazado_11207" data-name="Trazado 11207" d="M539.171,1587.542h-49.58a1.247,1.247,0,0,1,0-2.494h49.58a1.247,1.247,0,1,1,0,2.494Z" transform="translate(-488.344 -1585.047)" fill="#2d6c9c"/>
        </g>
        <g id="Grupo_12634" data-name="Grupo 12634" transform="translate(131.907 140.527)">
          <path id="Trazado_11208" data-name="Trazado 11208" d="M539.171,1598.231h-49.58a1.247,1.247,0,0,1,0-2.495h49.58a1.247,1.247,0,1,1,0,2.495Z" transform="translate(-488.344 -1595.736)" fill="#2d6c9c"/>
        </g>
        <g id="Grupo_12635" data-name="Grupo 12635" transform="translate(131.907 151.504)">
          <path id="Trazado_11209" data-name="Trazado 11209" d="M539.171,1608.92h-49.58a1.247,1.247,0,0,1,0-2.495h49.58a1.247,1.247,0,1,1,0,2.495Z" transform="translate(-488.344 -1606.425)" fill="#2d6c9c"/>
        </g>
        <g id="Grupo_12636" data-name="Grupo 12636" transform="translate(131.907 162.481)">
          <path id="Trazado_11210" data-name="Trazado 11210" d="M539.171,1619.609h-49.58a1.247,1.247,0,0,1,0-2.495h49.58a1.247,1.247,0,1,1,0,2.495Z" transform="translate(-488.344 -1617.114)" fill="#2d6c9c"/>
        </g>
        <g id="Grupo_12637" data-name="Grupo 12637" transform="translate(74.604 120.769)">
          <path id="Trazado_11211" data-name="Trazado 11211" d="M483.371,1578.991h-49.58a1.247,1.247,0,0,1,0-2.495h49.58a1.247,1.247,0,1,1,0,2.495Z" transform="translate(-432.544 -1576.496)" fill="#6fa4c5"/>
        </g>
        <g id="Grupo_12638" data-name="Grupo 12638" transform="translate(131.907 120.769)">
          <path id="Trazado_11212" data-name="Trazado 11212" d="M539.171,1578.991h-49.58a1.247,1.247,0,0,1,0-2.495h49.58a1.247,1.247,0,1,1,0,2.495Z" transform="translate(-488.344 -1576.496)" fill="#6fa4c5"/>
        </g>
        <g id="Grupo_12639" data-name="Grupo 12639" transform="translate(158.863 65.067)">
          <path id="Trazado_11213" data-name="Trazado 11213" d="M538.326,1524.751H515.839a1.247,1.247,0,0,1,0-2.495h22.487a1.247,1.247,0,0,1,0,2.495Z" transform="translate(-514.592 -1522.256)" fill="#2d6c9c"/>
        </g>
        <g id="Grupo_12640" data-name="Grupo 12640" transform="translate(87.143 65.067)">
          <path id="Trazado_11214" data-name="Trazado 11214" d="M501.818,1524.751H446a1.247,1.247,0,1,1,0-2.495h55.816a1.247,1.247,0,1,1,0,2.495Z" transform="translate(-444.754 -1522.256)" fill="#2d6c9c"/>
        </g>
        <g id="Grupo_12641" data-name="Grupo 12641" transform="translate(142.959 75.887)">
          <path id="Trazado_11215" data-name="Trazado 11215" d="M531.259,1535.286H500.353a1.247,1.247,0,0,1,0-2.494h30.906a1.247,1.247,0,1,1,0,2.494Z" transform="translate(-499.106 -1532.792)" fill="#2d6c9c"/>
        </g>
        <g id="Grupo_12642" data-name="Grupo 12642" transform="translate(87.143 75.887)">
          <path id="Trazado_11216" data-name="Trazado 11216" d="M477.807,1535.286H446a1.247,1.247,0,1,1,0-2.494h31.806a1.247,1.247,0,1,1,0,2.494Z" transform="translate(-444.754 -1532.792)" fill="#2d6c9c"/>
        </g>
        <g id="Grupo_12643" data-name="Grupo 12643" transform="translate(142.959 86.706)">
          <path id="Trazado_11217" data-name="Trazado 11217" d="M521.592,1545.822H500.353a1.247,1.247,0,0,1,0-2.494h21.239a1.247,1.247,0,1,1,0,2.494Z" transform="translate(-499.106 -1543.327)" fill="#2d6c9c"/>
        </g>
        <g id="Grupo_12644" data-name="Grupo 12644" transform="translate(87.143 86.706)">
          <path id="Trazado_11218" data-name="Trazado 11218" d="M484.044,1545.822H446a1.247,1.247,0,1,1,0-2.494h38.042a1.247,1.247,0,1,1,0,2.494Z" transform="translate(-444.754 -1543.327)" fill="#2d6c9c"/>
        </g>
        <g id="Grupo_12645" data-name="Grupo 12645" transform="translate(130.798 97.525)">
          <path id="Trazado_11219" data-name="Trazado 11219" d="M539.062,1556.357H488.512a1.247,1.247,0,1,1,0-2.494h50.551a1.247,1.247,0,0,1,0,2.494Z" transform="translate(-487.264 -1553.862)" fill="#2d6c9c"/>
        </g>
        <g id="Grupo_12646" data-name="Grupo 12646" transform="translate(87.143 97.525)">
          <path id="Trazado_11220" data-name="Trazado 11220" d="M471.26,1556.357H446a1.247,1.247,0,1,1,0-2.494H471.26a1.247,1.247,0,0,1,0,2.494Z" transform="translate(-444.754 -1553.862)" fill="#2d6c9c"/>
        </g>
        <g id="Grupo_12647" data-name="Grupo 12647" transform="translate(147.948 108.344)">
          <path id="Trazado_11221" data-name="Trazado 11221" d="M538.612,1566.892h-33.4a1.247,1.247,0,1,1,0-2.495h33.4a1.247,1.247,0,0,1,0,2.495Z" transform="translate(-503.964 -1564.397)" fill="#2d6c9c"/>
        </g>
        <g id="Grupo_12648" data-name="Grupo 12648" transform="translate(87.143 108.344)">
          <path id="Trazado_11222" data-name="Trazado 11222" d="M489.345,1566.892H446a1.247,1.247,0,1,1,0-2.495h43.343a1.247,1.247,0,0,1,0,2.495Z" transform="translate(-444.754 -1564.397)" fill="#2d6c9c"/>
        </g>
        <g id="Grupo_12651" data-name="Grupo 12651" transform="translate(17.859 171.669)">
          <g id="Grupo_12649" data-name="Grupo 12649">
            <path id="Trazado_11223" data-name="Trazado 11223" d="M390.662,1642.581H380.436a3.151,3.151,0,0,1-3.147-3.146v-10.226a3.151,3.151,0,0,1,3.147-3.146h10.226a3.15,3.15,0,0,1,3.147,3.146v10.226A3.15,3.15,0,0,1,390.662,1642.581Zm-10.226-14.421a1.05,1.05,0,0,0-1.048,1.048v10.226a1.05,1.05,0,0,0,1.048,1.048h10.226a1.05,1.05,0,0,0,1.049-1.048v-10.226a1.05,1.05,0,0,0-1.049-1.048Z" transform="translate(-377.289 -1626.061)" fill="#2d6c9c"/>
          </g>
          <g id="Grupo_12650" data-name="Grupo 12650" transform="translate(0.216 0)">
            <path id="Trazado_11224" data-name="Trazado 11224" d="M385.4,1642.58a1.436,1.436,0,0,1-1.015-.42l-6.465-6.464a1.436,1.436,0,1,1,2.031-2.031l5.048,5.047,5.863-11.851a1.437,1.437,0,0,1,2.576,1.275l-6.751,13.645a1.436,1.436,0,0,1-1.055.781A1.476,1.476,0,0,1,385.4,1642.58Z" transform="translate(-377.5 -1626.062)" fill="#f5a06d"/>
          </g>
        </g>
        <g id="Grupo_12654" data-name="Grupo 12654" transform="translate(75.85 171.669)">
          <g id="Grupo_12652" data-name="Grupo 12652">
            <path id="Trazado_11225" data-name="Trazado 11225" d="M447.131,1642.581H436.9a3.151,3.151,0,0,1-3.147-3.146v-10.226a3.151,3.151,0,0,1,3.147-3.146h10.226a3.151,3.151,0,0,1,3.147,3.146v10.226A3.151,3.151,0,0,1,447.131,1642.581ZM436.9,1628.159a1.05,1.05,0,0,0-1.049,1.048v10.226a1.05,1.05,0,0,0,1.049,1.048h10.226a1.05,1.05,0,0,0,1.049-1.048v-10.226a1.05,1.05,0,0,0-1.049-1.048Z" transform="translate(-433.758 -1626.061)" fill="#2d6c9c"/>
          </g>
          <g id="Grupo_12653" data-name="Grupo 12653" transform="translate(0.216 0)">
            <path id="Trazado_11226" data-name="Trazado 11226" d="M441.868,1642.58a1.439,1.439,0,0,1-1.016-.42l-6.464-6.464a1.436,1.436,0,0,1,2.031-2.031l5.049,5.047,5.863-11.851a1.437,1.437,0,0,1,2.576,1.275l-6.751,13.645a1.436,1.436,0,0,1-1.055.781A1.476,1.476,0,0,1,441.868,1642.58Z" transform="translate(-433.969 -1626.062)" fill="#f87314"/>
          </g>
        </g>
        <g id="Grupo_12657" data-name="Grupo 12657" transform="translate(131.893 171.669)">
          <g id="Grupo_12655" data-name="Grupo 12655">
            <path id="Trazado_11227" data-name="Trazado 11227" d="M501.7,1642.581H491.477a3.151,3.151,0,0,1-3.147-3.146v-10.226a3.151,3.151,0,0,1,3.147-3.146H501.7a3.15,3.15,0,0,1,3.147,3.146v10.226A3.15,3.15,0,0,1,501.7,1642.581Zm-10.226-14.421a1.05,1.05,0,0,0-1.049,1.048v10.226a1.05,1.05,0,0,0,1.049,1.048H501.7a1.05,1.05,0,0,0,1.049-1.048v-10.226a1.05,1.05,0,0,0-1.049-1.048Z" transform="translate(-488.33 -1626.061)" fill="#2d6c9c"/>
          </g>
          <g id="Grupo_12656" data-name="Grupo 12656" transform="translate(0.216 0)">
            <path id="Trazado_11228" data-name="Trazado 11228" d="M496.44,1642.58a1.441,1.441,0,0,1-1.016-.42l-6.464-6.464a1.436,1.436,0,1,1,2.031-2.031l5.048,5.047,5.863-11.851a1.437,1.437,0,0,1,2.576,1.275l-6.751,13.645a1.436,1.436,0,0,1-1.055.781A1.475,1.475,0,0,1,496.44,1642.58Z" transform="translate(-488.541 -1626.062)" fill="#f87314"/>
          </g>
        </g>
        <g id="Grupo_12658" data-name="Grupo 12658" transform="translate(38.022 173.926)">
          <path id="Trazado_11229" data-name="Trazado 11229" d="M427.027,1629.817H397.7a.779.779,0,1,1,0-1.559h29.326a.779.779,0,1,1,0,1.559Z" transform="translate(-396.922 -1628.258)" fill="#2d6c9c"/>
        </g>
        <g id="Grupo_12659" data-name="Grupo 12659" transform="translate(38.022 179.15)">
          <path id="Trazado_11230" data-name="Trazado 11230" d="M427.027,1634.9H397.7a.779.779,0,0,1,0-1.559h29.326a.779.779,0,1,1,0,1.559Z" transform="translate(-396.922 -1633.345)" fill="#2d6c9c"/>
        </g>
        <g id="Grupo_12660" data-name="Grupo 12660" transform="translate(38.022 184.373)">
          <path id="Trazado_11231" data-name="Trazado 11231" d="M427.027,1639.991H397.7a.78.78,0,0,1,0-1.56h29.326a.78.78,0,1,1,0,1.56Z" transform="translate(-396.922 -1638.431)" fill="#2d6c9c"/>
        </g>
        <g id="Grupo_12661" data-name="Grupo 12661" transform="translate(96.689 173.926)">
          <path id="Trazado_11232" data-name="Trazado 11232" d="M484.155,1629.817H454.829a.779.779,0,1,1,0-1.559h29.326a.779.779,0,1,1,0,1.559Z" transform="translate(-454.05 -1628.258)" fill="#2d6c9c"/>
        </g>
        <g id="Grupo_12662" data-name="Grupo 12662" transform="translate(96.689 179.15)">
          <path id="Trazado_11233" data-name="Trazado 11233" d="M484.155,1634.9H454.829a.779.779,0,1,1,0-1.559h29.326a.779.779,0,0,1,0,1.559Z" transform="translate(-454.05 -1633.345)" fill="#2d6c9c"/>
        </g>
        <g id="Grupo_12663" data-name="Grupo 12663" transform="translate(96.689 184.373)">
          <path id="Trazado_11234" data-name="Trazado 11234" d="M484.155,1639.991H454.829a.78.78,0,0,1,0-1.56h29.326a.78.78,0,0,1,0,1.56Z" transform="translate(-454.05 -1638.431)" fill="#2d6c9c"/>
        </g>
        <g id="Grupo_12664" data-name="Grupo 12664" transform="translate(152.629 173.926)">
          <path id="Trazado_11235" data-name="Trazado 11235" d="M538.627,1629.817H509.3a.779.779,0,1,1,0-1.559h29.326a.779.779,0,1,1,0,1.559Z" transform="translate(-508.522 -1628.258)" fill="#2d6c9c"/>
        </g>
        <g id="Grupo_12665" data-name="Grupo 12665" transform="translate(152.629 179.15)">
          <path id="Trazado_11236" data-name="Trazado 11236" d="M538.627,1634.9H509.3a.779.779,0,0,1,0-1.559h29.326a.779.779,0,1,1,0,1.559Z" transform="translate(-508.522 -1633.345)" fill="#2d6c9c"/>
        </g>
        <g id="Grupo_12666" data-name="Grupo 12666" transform="translate(152.629 184.373)">
          <path id="Trazado_11237" data-name="Trazado 11237" d="M538.627,1639.991H509.3a.78.78,0,0,1,0-1.56h29.326a.78.78,0,0,1,0,1.56Z" transform="translate(-508.522 -1638.431)" fill="#2d6c9c"/>
        </g>
        <path id="Trazado_11238" data-name="Trazado 11238" d="M540.212,1671.133H532.75v-12.162a.936.936,0,0,0-1.822-.3l-6.885,20.429-1.309-7.2a.934.934,0,0,0-.92-.768h-7.8v-12.162a.935.935,0,0,0-1.849-.2l-4.681,21.1-3.638-8.176a.937.937,0,0,0-.855-.556h-8.223v-12.162a.936.936,0,0,0-1.822-.3l-6.886,20.429-1.308-7.2a.936.936,0,0,0-.92-.768h-7.8v-12.162a.935.935,0,0,0-1.848-.2l-4.681,21.1-3.639-8.176a.935.935,0,0,0-.854-.556H456.8v-12.162a.935.935,0,0,0-1.822-.3L448.1,1679.1l-1.308-7.2a.936.936,0,0,0-.92-.768h-7.8v-12.162a.935.935,0,0,0-1.849-.2l-4.682,21.1-3.638-8.176a.935.935,0,0,0-.854-.556H415.933a.936.936,0,0,0,0,1.871h10.509l4.545,10.212a.935.935,0,0,0,.854.556c.031,0,.063,0,.094-.005a.935.935,0,0,0,.82-.728l3.446-15.533v4.563a.936.936,0,0,0,.936.936h7.95l1.818,10a.935.935,0,0,0,1.806.131l6.222-18.459v7.393a.936.936,0,0,0,.936.936h8.541l4.545,10.212a.936.936,0,0,0,.854.556c.032,0,.063,0,.095-.005a.935.935,0,0,0,.819-.728l3.446-15.533v4.563a.936.936,0,0,0,.936.936h7.951l1.817,10a.936.936,0,0,0,1.807.131l6.221-18.459v7.393a.936.936,0,0,0,.936.936h8.551l4.545,10.212a.934.934,0,0,0,.854.556c.031,0,.063,0,.094-.005a.934.934,0,0,0,.82-.728l3.447-15.533v4.563a.935.935,0,0,0,.935.936h7.951l1.818,10a.935.935,0,0,0,1.806.131l6.222-18.459v7.393a.935.935,0,0,0,.936.936h8.4a.936.936,0,0,0,0-1.871Z" transform="translate(-358.413 -1453.53)" fill="#f87314"/>
        <g id="Grupo_12667" data-name="Grupo 12667" transform="translate(17.593 202.383)">
          <path id="Trazado_11239" data-name="Trazado 11239" d="M405.955,1672.124v-4.563l-3.446,15.533a.935.935,0,0,1-.82.728c-.032,0-.063.005-.093.005a.934.934,0,0,1-.854-.556L396.2,1673.06h-10.51a.936.936,0,0,1,0-1.871H396.8a.935.935,0,0,1,.854.556l3.64,8.176,4.681-21.1a.935.935,0,0,1,1.849.2v12.162h5.647a10.78,10.78,0,0,0,1.007-3.371l.083-.122H414.5a10.538,10.538,0,0,0-18.7-7.771,10.539,10.539,0,0,0-18.768,6.587,10.73,10.73,0,0,0,.068,1.184h-.068l.083.116c2.386,9.344,19.044,22.712,19.044,22.712s11.554-9.379,16.328-17.463h-5.595A.936.936,0,0,1,405.955,1672.124Z" transform="translate(-377.03 -1655.969)" fill="#f87314"/>
        </g>
      </g>
      <g id="_7" data-name="7" transform="translate(424.266 75.187)">
        <g id="Grupo_12670" data-name="Grupo 12670" transform="translate(0 221.492)">
          <g id="Grupo_12669" data-name="Grupo 12669">
            <path id="Trazado_11240" data-name="Trazado 11240" d="M575.237,1760.34c.339.28,7.912.12,15.228-.252.86-.044,3.235-1.517,4.075-1.565s.12,1.326.9,1.274c4.912-.332,8.775-.746,8.76-1.153a23.7,23.7,0,0,0-3.1-10.56c-1.768.512-6.4.221-6.609-.295a67.266,67.266,0,0,1-8.251,6.99C583.708,1756.217,575.678,1757.235,575.237,1760.34Z" transform="translate(-575.237 -1747.789)" fill="#0a3454"/>
          </g>
        </g>
        <g id="Grupo_12672" data-name="Grupo 12672" transform="translate(10.895 222.254)">
          <g id="Grupo_12671" data-name="Grupo 12671">
            <path id="Trazado_11241" data-name="Trazado 11241" d="M585.846,1760.581c.317.305,7.855.8,14.562-.083.853-.113,3.338-1.272,4.18-1.259s.022,1.332.808,1.337c4.922.034,8.806-.092,8.822-.5a23.7,23.7,0,0,0-2.31-10.76c-1.8.381-6.4-.255-6.57-.784a67.149,67.149,0,0,1-8.745,6.36C593.957,1756.136,586.517,1757.517,585.846,1760.581Z" transform="translate(-585.846 -1748.531)" fill="#0b3c60"/>
          </g>
        </g>
        <path id="Trazado_11242" data-name="Trazado 11242" d="M589.636,1544.052c0-9.83,9.6-14.273,16.132-10.738,2.92,1.581,5.369,6.285,3.946,9.416,4.1-3.2,9.6-.356,9.582,5.313-.016,5.165-6.886,13.853-16,10.626C598,1556.794,589.636,1550.061,589.636,1544.052Z" transform="translate(-574.849 -1532.11)" fill="#232b59"/>
        <path id="Trazado_11243" data-name="Trazado 11243" d="M592.76,1751.685c.234-5.646-5.689-44.046-10.111-62.213-2.149-8.832-12.126-44.778,1.23-69.063,1.059-1.927,14.423-4.465,18.587-6.4,1.738,6.652,6.8,12.833,8.194,19.579,1.788,8.639-11.469,55.726-12.076,55.772,2.944,4.859,8.391,11.715,9.451,17.49,1.707,9.306-1.907,33.239-6.594,45.679C601.282,1752.95,592.826,1753.461,592.76,1751.685Z" transform="translate(-575.188 -1529.903)" fill="url(#linear-gradient)"/>
        <path id="Trazado_11244" data-name="Trazado 11244" d="M603.681,1753.172c.291-5.644-4.843-45.532-9.081-63.742-2.061-8.854-14.832-54.4-3.524-69.429,1.322-1.756,17.013.277,21.2-1.616,1.67,6.669,10.1,15.528,11.3,22.313,2.332,13.194-10.924,35.822-9.751,49.241.433,4.951,4.989,11.337,5.99,17.122,1.614,9.323-2.643,34.649-7.455,47.041C612.19,1754.523,603.728,1754.949,603.681,1753.172Z" transform="translate(-574.935 -1529.785)" fill="#1d868b"/>
        <path id="Trazado_11245" data-name="Trazado 11245" d="M604.817,1567.326c2.566,1.154,11.011,7.062,12.3,10,3.205,7.321-6.277,30.321-6.277,38.473,0,5.222,12.113,18.183,13.272,23.339,1.529,6.8-46.927,8.141-47.049,7.044-2.433-22.13,5.933-27.7,4.669-42.21-.323-3.705-3.32-10.412-3.32-14.618,0-8.5,13.628-17.776,15.819-20.554C596.26,1566.228,598,1564.26,604.817,1567.326Z" transform="translate(-575.2 -1531.203)" fill="url(#radial-gradient)"/>
        <path id="Trazado_11246" data-name="Trazado 11246" d="M603.685,1551.358c.383,6,3.288,16.718,3.643,19.132.439,2.99-15.373,8.283-16.728,7.608-.823-.411,2.485-7.084,3.071-8.289a73.614,73.614,0,0,0,3.254-16.557C597.468,1546.857,603.53,1548.914,603.685,1551.358Z" transform="translate(-574.826 -1531.655)" fill="#f19e86"/>
        <path id="Trazado_11247" data-name="Trazado 11247" d="M592.641,1538.754c-5.365,8.822-2.762,20.945.906,22.109,3.008.955,12.764-2.785,12.271-9.775a3.158,3.158,0,0,0,2.9-4.12c-.912-1.961-2.293-.09-3.044.036C603.893,1540.7,592.641,1538.754,592.641,1538.754Z" transform="translate(-574.85 -1531.931)" fill="#f5b48d"/>
        <path id="Trazado_11248" data-name="Trazado 11248" d="M623.12,1599.963a99.017,99.017,0,0,1-4.661,28.052c-2.082,6.147-19.261,24.992-20.107,25.806s-.618-6.157-.618-6.157,4.976-21.026,8.536-26.076c1.564-2.218,3.438-29.527,3.438-29.527Z" transform="translate(-574.631 -1530.494)" fill="#f5b48d"/>
        <path id="Trazado_11249" data-name="Trazado 11249" d="M613.335,1573.957c8.917,1.872,12.139,24.455,11.641,26.718-1.208,5.5-20.081,5.816-21.369,2.195C602.109,1598.657,604.84,1572.173,613.335,1573.957Z" transform="translate(-574.483 -1530.985)" fill="#20949a"/>
        <path id="Trazado_11250" data-name="Trazado 11250" d="M601.428,1649.159c1.141,6.762-3.168,8.043-3.148,9.466s.376,4.986-.323,6.148c-.861,1.43-5.626-5.357-5.635-7.666-.015-4.27,5.557-10.9,5.557-10.9Z" transform="translate(-574.777 -1529.035)" fill="#f5b48d"/>
      </g>
      <g id="_2" data-name="2" transform="translate(115.1 73.323)">
        <g id="Grupo_12673" data-name="Grupo 12673" transform="translate(3.488 184.504)">
          <path id="Trazado_11251" data-name="Trazado 11251" d="M286.466,1710.882c-1.46,3.8-.949,10.365-.511,11.452.218.539,2.154,6.634-3.248,4.957a10.052,10.052,0,0,1-3.124-1.437c-.782-.609-.34-2.153-.214-2.466,1.561-3.878.532-10.855.532-12.2C279.9,1709.743,287,1709.479,286.466,1710.882Z" transform="translate(-277.539 -1709.957)" fill="#f5b48d"/>
          <path id="Trazado_11252" data-name="Trazado 11252" d="M278.115,1726.445c-.685-.154-.626,2.14-.3,2.634.366.549,3.923.927,7.872.826,3.575-.091,5.845-.283,6.134-.946a2.739,2.739,0,0,0-.773-2.332c-.613-.39-6.516-.757-6.715-.7S278.115,1726.445,278.115,1726.445Z" transform="translate(-277.58 -1709.527)" fill="#072b45"/>
          <path id="Trazado_11253" data-name="Trazado 11253" d="M285.025,1720.262c.783.027,1.917,1.767,2.546,3.6.731.772,2.064,1.052,2.759,2.084.484.718,1.094,1.981.832,2.322-.911,1.19-12.525.99-12.942-.082-.541-1.394.593-2.671.757-4.044a7.7,7.7,0,0,1,.326-2.357,3.5,3.5,0,0,0,.578.32c-.033.886-.061,2.215,1.1,2.379C282.066,1721.289,283.739,1720.217,285.025,1720.262Z" transform="translate(-277.567 -1709.679)" fill="#0b3c5f"/>
        </g>
        <g id="Grupo_12674" data-name="Grupo 12674" transform="translate(53.738 185.294)">
          <path id="Trazado_11254" data-name="Trazado 11254" d="M327.774,1725.815c-.844-.136-.727,1.917-.419,2.081,2.058,1.091,7.123,1.234,11.108,1.519,4.656.331,8.411.462,9.842-.617.753-.568.835-1.863-.83-2.666-.765-.37-11.324-1.023-11.565-.959S327.774,1725.815,327.774,1725.815Z" transform="translate(-326.495 -1710.337)" fill="#072b45"/>
          <path id="Trazado_11255" data-name="Trazado 11255" d="M332.978,1711.61c.173,3.073,2.472,8.142,3.014,9.281.214.449,1.912,3.77.665,5.1a4.679,4.679,0,0,1-7.957-2.491c1.259-5.108-2.188-9.635-2.188-11.155S332.887,1709.985,332.978,1711.61Z" transform="translate(-326.512 -1710.726)" fill="#f5b48d"/>
          <path id="Trazado_11256" data-name="Trazado 11256" d="M327.79,1726.623c.333,1.177,17.238,3.083,19.665,1.511,1.288-.836.142-1.791-1.316-2.4-1.7-.711-6.473-3.769-8.05-4.47-1.3-.574-2.242-3.125-2.751-2.666-.475.428-.448,3.009-.226,4.026.218,1,.067,1.86-.376,2-2.485.756-5.09-3.437-5.76-3.238C328.109,1721.634,327.447,1725.428,327.79,1726.623Z" transform="translate(-326.48 -1710.516)" fill="#0b3c5f"/>
        </g>
        <g id="Grupo_12675" data-name="Grupo 12675" transform="translate(4.438 78.839)">
          <path id="Trazado_11257" data-name="Trazado 11257" d="M334.623,1714.92c-.3,2.146-8.052,2.409-8.471,1.255-2.911-8.023-9.017-16.367-11.033-29.788-.427-2.847.475-9.137.678-12.279.46-7.155-10.464-23.5-11-26.9-.642-4.089-.8-6.759-.8-6.759l5.855-20.47.136-.483,3.555-12.429,11.67,6.673s1.82-.44,1.91,1.321c.289,5.6.989,18.845,1.816,31.928.706,11.15-.265,20.557.444,26.624C330.426,1682.564,332.092,1703.327,334.623,1714.92Z" transform="translate(-277.819 -1607.065)" fill="url(#radial-gradient-2)"/>
          <path id="Trazado_11258" data-name="Trazado 11258" d="M318.938,1620.811s-3.266,11.833-8.1,26.953c-1.184,3.705-2.463,7.6-3.813,11.58-1.843,5.448-3.822,7.971-5.864,13.366-1.22,3.226-1.5,9.654-4.216,17.019-2.535,6.862-7.008,16.755-9.568,23.682-.87,3.087-7.791,2.392-8.546.978,0-1.057-1.356-21.8,1.431-30.834,1.2-3.879,5.888-8.646,7.68-13.252,2.386-6.13-.718-17.043-1.3-27.254a154.054,154.054,0,0,1-.14-19.359,50.584,50.584,0,0,1,.854-6.5l20.465,2.35,1.473.166Z" transform="translate(-278.506 -1606.792)" fill="url(#radial-gradient-3)"/>
        </g>
        <path id="Trazado_11259" data-name="Trazado 11259" d="M331.163,1569.194c6.88,2.369,10.576,22.33,10.406,32.463-.214,12.744-34.556,7.105-34.556,7.105l.519-12.458,18.313-1.1Z" transform="translate(-273.299 -1529.247)" fill="#0e787d"/>
        <path id="Trazado_11260" data-name="Trazado 11260" d="M308.544,1560.371c-4.46.828-28.1,6.775-30.758,13.345-2.653,6.549-5,23.709-2.612,38.4.277,1.7,7,2.677,7.28,4.338.384,2.268,1.373,22.679,1.994,23.5,2.223,2.946,40.9,6.31,45.48-.6,1.3-1.96,9.988-61.827,3.126-69.04C328.629,1565.659,308.544,1560.371,308.544,1560.371Z" transform="translate(-274.184 -1529.485)" fill="#1d888c"/>
        <path id="Trazado_11261" data-name="Trazado 11261" d="M316.357,1533.813c.681.567,1.421.519,2.151,1.791,1.695,2.955-.847,15.923-7.027,19.385-1.748.979-6.481,3.678-9.106.868-1.13-1.21-1.151-2.471-2.353-9.907-.507-3.143-1.379-5.834-.138-9.247,1.438-3.949,5.95-3.349,6.689-3.773,1.157-.664,3.086-2.634,5.648-2.635C315.835,1530.293,315.826,1533.371,316.357,1533.813Z" transform="translate(-273.509 -1530.295)" fill="#232b59"/>
        <path id="Trazado_11262" data-name="Trazado 11262" d="M302.7,1550.242c-.736,5.949-1.7,11.864-2.135,12.912-.5,1.208,4.406,3.9,7.952,3.925,4.888.036,7.749-1.812,7.749-2.919s-1.61-12.3-1.61-12.3l-3.828-8.47S302.814,1549.329,302.7,1550.242Z" transform="translate(-273.474 -1529.942)" fill="#f19e86"/>
        <path id="Trazado_11263" data-name="Trazado 11263" d="M316.836,1550.6c-.627,3.469-2.068,6-4.382,6.429a9.378,9.378,0,0,1-8.11-2.367c-1.806-2.069-2.332-6.3-2.382-8.4-.845.354-1.191-2.267-.889-3.256.551-1.826,1.433-.66,1.54-.286a16.824,16.824,0,0,1,.077,2.824c.005.795.059,1.45.29,1.554.117.054.371-.284.533-.7.13-.041.261-.313.279-.486.2-1.919-.149-5.3,2.49-6.824,1.617-.93,4.025-.19,5.5-.167,1.387.027,3.212-.637,3.849-.172,1.058.768,1.233,1.807,1.473,5.177A27.323,27.323,0,0,1,316.836,1550.6Z" transform="translate(-273.462 -1530.072)" fill="#f5b48d"/>
        <path id="Trazado_11264" data-name="Trazado 11264" d="M341.759,1601.016c.678,3.027-5.718,12.785-10.173,13.345-9.638,1.212-31.624-18.484-31.624-18.484l7.76-.214s17.715-3.578,24.266-2.449S341.373,1599.292,341.759,1601.016Z" transform="translate(-273.489 -1528.605)" fill="#f19e86"/>
        <path id="Trazado_11265" data-name="Trazado 11265" d="M307.187,1621.561c.674.584,1.356,3.313,0,3.555s-15.209.451-15.812,0-.9-2.861,0-3.233S306.714,1621.15,307.187,1621.561Z" transform="translate(-273.736 -1527.84)" fill="#0e787d"/>
        <path id="Trazado_11266" data-name="Trazado 11266" d="M305.683,1585.326c.546.474,1.1,2.692,0,2.889s-12.359.366-12.849,0-.734-2.325,0-2.627S305.3,1584.991,305.683,1585.326Z" transform="translate(-273.694 -1528.816)" fill="#0e787d"/>
        <path id="Trazado_11267" data-name="Trazado 11267" d="M316.9,1549.947c1.717,3.493.508,7.147-1.8,7.577-3.366.623-10.452.077-11.8-1.468-1.807-2.069-1.9-7.73-1.949-9.826a1.624,1.624,0,0,0,1.334-.868,6.64,6.64,0,0,0,.823.859,4.934,4.934,0,0,0,2.22,3.4c1.7,1.034,3.113-.41,6.325-.678C315.437,1548.656,316.587,1549.146,316.9,1549.947Z" transform="translate(-273.452 -1529.889)" fill="#232b59"/>
        <path id="Trazado_11268" data-name="Trazado 11268" d="M303.827,1593.1a41.1,41.1,0,0,0-9.305-4.036,7.469,7.469,0,0,0-3.765.337c-1.381.349-2.584.7-2.409,1.167.68,1.823,4.335-.25,4.7.707a26.181,26.181,0,0,0-3.719,1.289,10.234,10.234,0,0,0-1.882,3.088c-.5,1.673,2.347,2.793,3.464,3.5s8.428-1.546,8.428-1.546Z" transform="translate(-273.828 -1528.715)" fill="#f19e86"/>
        <path id="Trazado_11269" data-name="Trazado 11269" d="M280.8,1604.217c-3.8,7.451,14.446,12.84,20.545,11.869,4.962-.791,23.17-22.174,26.372-22.293.52-1.839-3.941-3.89-7.584-3.636s-22.563,1.56-27.4,4.924S281.926,1602,280.8,1604.217Z" transform="translate(-274.02 -1528.682)" fill="#f5b48d"/>
      </g>
      <g id="_1" data-name="1" transform="translate(471.062 63.724)">
        <path id="Trazado_11270" data-name="Trazado 11270" d="M635.16,1577.128c-1.661,1.391-5.846,28.407-7.141,41.356-1.15,11.5-1.15,25.573-1.15,25.573l22.085-26.044S649.3,1565.293,635.16,1577.128Z" transform="translate(-620.642 -1519.481)" fill="#f4f4ef"/>
        <path id="Trazado_11271" data-name="Trazado 11271" d="M655.14,1647.147l3.342-27.825-37.678,2.233.368,30.353Z" transform="translate(-620.805 -1518.297)" fill="#2d6c9c"/>
        <g id="Grupo_12676" data-name="Grupo 12676" transform="translate(12.234 222.553)">
          <path id="Trazado_11272" data-name="Trazado 11272" d="M658.931,1755.921c1.052-.17.906,2.388.523,2.591-2.564,1.359-8.873,1.538-13.837,1.892-5.8.413-10.476.576-12.259-.768-.938-.708-1.04-2.32,1.033-3.32.953-.461,14.106-1.275,14.406-1.2S658.931,1755.921,658.931,1755.921Z" transform="translate(-632.718 -1737.191)" fill="#423c32"/>
          <path id="Trazado_11273" data-name="Trazado 11273" d="M648.151,1738.763c-.215,3.826.857,9.592.182,11.011-.266.56-2.382,4.7-.828,6.349,2.386,2.538,8.375,2.881,9.91-3.1a48.5,48.5,0,0,1-1.212-13.346C656.2,1737.78,648.264,1736.737,648.151,1738.763Z" transform="translate(-632.334 -1737.661)" fill="#f5b48d"/>
          <path id="Trazado_11274" data-name="Trazado 11274" d="M658.866,1756.931c-.415,1.466-21.472,3.841-24.494,1.881-1.605-1.04-.178-2.23,1.638-2.994,2.115-.886,7.263-4.822,9.227-5.7,1.616-.714,2.792-3.891,3.427-3.32.593.533,1.358,3.876,1.08,5.143-.271,1.24-.082,2.317.469,2.485,3.1.942,6.339-4.281,7.174-4.033C658.469,1750.718,659.292,1755.442,658.866,1756.931Z" transform="translate(-632.692 -1737.417)" fill="#423c32"/>
        </g>
        <g id="Grupo_12677" data-name="Grupo 12677" transform="translate(40.357 220.582)">
          <path id="Trazado_11275" data-name="Trazado 11275" d="M667.667,1736.97c1.939,5.054.623,12.293.042,13.736-.289.716-2.86,8.81,4.314,6.584,4.666-1.448,4.484-5,4.282-5.531-1.856-4.924.08-12.641.08-14.376C676.386,1735.458,666.952,1735.106,667.667,1736.97Z" transform="translate(-659.916 -1735.741)" fill="#f5b48d"/>
          <path id="Trazado_11276" data-name="Trazado 11276" d="M678.363,1756.2c.91-.2.578,2.978.33,3.308s-5.142,1.422-10.388,1.288c-4.748-.121-7.763-.376-8.146-1.256a3.64,3.64,0,0,1,1.027-3.1c.814-.518,8.654-1,8.918-.933S678.363,1756.2,678.363,1756.2Z" transform="translate(-660.102 -1735.209)" fill="#423c32"/>
          <path id="Trazado_11277" data-name="Trazado 11277" d="M669.146,1747.993c-1.039.036-2.546,2.348-3.38,4.779-.971,1.027-2.742,1.4-3.666,2.767-.643.954-1.452,2.631-1.1,3.085,1.211,1.58,16.635,1.315,17.188-.11.72-1.852-.788-3.547-1-5.371-.2-1.672.005-2.507-.585-3.391-.183-.273-.641-.108-.624.418.036,1.154.212,3.194-1.454,3.429C673.076,1749.358,670.855,1747.935,669.146,1747.993Z" transform="translate(-660.081 -1735.411)" fill="#423c32"/>
        </g>
        <path id="Trazado_11278" data-name="Trazado 11278" d="M637.622,1632.169a295.876,295.876,0,0,1-.051,53.394q.41,2.508.822,5.031c4.256,26.062,8.292,49.505,9.623,55.936.508,2.457,8.315,1.314,8.654-1.172,1.322-9.676,7.278-29.721,6.147-38.673-.5-3.989-3.523-11.129-5.54-15.976-2.519-6.053,9.572-40.1.144-66.8C654.87,1616.689,637.622,1632.169,637.622,1632.169Z" transform="translate(-620.353 -1518.225)" fill="#6b614f"/>
        <path id="Trazado_11279" data-name="Trazado 11279" d="M654.264,1632.643s11.011,100.783,13.106,114.49c.379,2.48,9.113,2.1,9.582-.368,1.827-9.594,8.824-29.3,8.162-38.3-.294-4.009-2.936-11.3-4.7-16.244-.912-2.561.938-9.8,2.843-19.329,2.69-13.453,1.065-30.571-3.628-46.466C677.464,1619.083,654.264,1632.643,654.264,1632.643Z" transform="translate(-619.903 -1518.164)" fill="#6b614f"/>
        <path id="Trazado_11280" data-name="Trazado 11280" d="M636.586,1686.8l50.636-1.746s-4.979-91.991,4.708-109.282c2.371-4.24-5.942-9.366-14.857-12.739-6.375-2.415-13.061-3.931-16.373-3.587a33.631,33.631,0,0,0-10.819,3.312c-6.623,3.215-12.88,8.482-14.912,14.8C631.8,1587.427,636.586,1686.8,636.586,1686.8Z" transform="translate(-620.452 -1519.912)" fill="#f4f4ef"/>
        <path id="Trazado_11281" data-name="Trazado 11281" d="M654.92,1547.208s-2.435,16.111-2.322,16.57c.216.873,4.551-2.874,6.03-2.021,2.153,1.243,11.317,3.938,12.116,2.021.176-.422-2.094-18.471-2.094-18.471Z" transform="translate(-619.948 -1520.292)" fill="#f19e86"/>
        <g id="Grupo_12678" data-name="Grupo 12678" transform="translate(27.671)">
          <path id="Trazado_11282" data-name="Trazado 11282" d="M652.537,1543.617c-3.862-3.532-1.381-5.87-4.787-8.148a4.728,4.728,0,0,1,3.164-.1c-.877-1.325-1.164-3.168-2.471-3.865a5.438,5.438,0,0,1,3.545.75c-.036-1.252-2.434-2.577-2-4.176a5.969,5.969,0,0,0,3.615,1.527,5.083,5.083,0,0,0-2.589-3.722,5.6,5.6,0,0,1,4.581,1.145,3.638,3.638,0,0,0-1.05-3.364,3.9,3.9,0,0,1,4.164,2.094c.769-.5,1.119-2.649,1.156-4.1a8.885,8.885,0,0,1,2.094,3.785,17.988,17.988,0,0,1,.985-4.5c1.038,2.648,3.468,2.007,3.651,5.3.3-1.483,3.078-2.4,4.033-2.911-1.008,2.2-.87,4.368-.6,4.665.227.249,2.022-.788,2.02-2.963,1.266,1.253,2.559,3.736.986,7.652.489-.03,1.987-1.361,2.542-2.971.484.7,1.138,4.587-.281,8.281a2.9,2.9,0,0,0,1.419-.872,15.6,15.6,0,0,1-4.991,8.685c-.831.935-2.616.17-3.765.438a81.511,81.511,0,0,1-8.113,1.412Z" transform="translate(-647.75 -1520.948)" fill="#232b59"/>
          <path id="Trazado_11283" data-name="Trazado 11283" d="M651.6,1536.677c-.977,1.508-.906,6.544-.852,8.264.062,1.962,1.84,10.3,4.041,11.51,1.912,1.052,7.442,1.374,8.787.735,3.269-1.553,6.256-7.211,6.672-10.632,1.835.1,3.847-9.17,1.122-7.741-.815.427-1.2,2.685-1.229,3.49-.033.776-.805,1.8-.889,1.548-.71-2.1-1.063-6.609-1.7-6.992a2.333,2.333,0,0,0-3.2,1.748,2.077,2.077,0,0,1-.056-2.792c-2.138-.478-4.563-.341-6.467,3a4.774,4.774,0,0,1,.646-4.161,4.764,4.764,0,0,0-3.776,3.383,4.919,4.919,0,0,1,.608-4.083A12.907,12.907,0,0,0,651.6,1536.677Z" transform="translate(-647.67 -1520.598)" fill="#f5b48d"/>
        </g>
        <path id="Trazado_11284" data-name="Trazado 11284" d="M690.942,1572.025c7.749,12.4,14.631,45.221,13.067,51.349-1.314,5.148-17.271,11.369-36.712,9.931-2.773-.205-.834-14.917-.834-14.917s17.031-1.344,16.992-5.78-1.43-7.673-1.43-12.736S690.942,1572.025,690.942,1572.025Z" transform="translate(-619.592 -1519.572)" fill="#f4f4ef"/>
        <path id="Trazado_11285" data-name="Trazado 11285" d="M625.308,1651.981c1.316.459,2.1-1.291,2.506-1.174.505.146.64,1.383,1.227,1.489a13.55,13.55,0,0,0,4.789-1.035c.505-.587.667-3.561-.148-3.906-.352-.149-3.721-.98-4.412-.76-.45.142-.594,2.515-1.024,2.53-.969.033.084-2.359-1.6-2.182C624.875,1647.129,624.3,1651.63,625.308,1651.981Z" transform="translate(-620.697 -1517.563)" fill="#f19e86"/>
        <path id="Trazado_11286" data-name="Trazado 11286" d="M655.393,1617.414c.33-.866,1.633-.664,2.621-.342a1.537,1.537,0,0,1-.7-1.836c.1-.337,1.594.259,2.945.4,1.116.117,2.274-.426,3.484.259a14.64,14.64,0,0,1,3.843,3.88l-.756,5.326c-3.6,3.157-9.042,1.742-10.45.668C654.878,1624.624,654.882,1618.76,655.393,1617.414Z" transform="translate(-619.881 -1518.41)" fill="#f5b48d"/>
        <g id="Grupo_12679" data-name="Grupo 12679" transform="translate(38.328 98.676)">
          <path id="Trazado_11287" data-name="Trazado 11287" d="M663,1618.231a.141.141,0,0,0,.07-.263,9.2,9.2,0,0,0-2.126-.415,13.227,13.227,0,0,1-2.62-.506.141.141,0,1,0-.116.257,12.966,12.966,0,0,0,2.7.529,10.067,10.067,0,0,1,2.025.38A.131.131,0,0,0,663,1618.231Z" transform="translate(-658.127 -1617.034)" fill="#d4936f"/>
        </g>
        <g id="Grupo_12680" data-name="Grupo 12680" transform="translate(46.536 79.968)">
          <path id="Trazado_11288" data-name="Trazado 11288" d="M666.348,1617.982a.332.332,0,0,1-.21-.421c.36-1.081,4.234-1.95,12.239-3.377,2.126-.379,4.321-.769,4.792-.96a62.7,62.7,0,0,0-.691-7.127c-.292-2.355-.594-4.791-.794-6.916a.334.334,0,0,1,.664-.062c.2,2.114.5,4.544.792,6.9.7,5.634.849,7.215.582,7.612-.188.281-.823.428-5.229,1.213-3.7.659-11.4,2.031-11.723,2.931a.333.333,0,0,1-.316.228A.317.317,0,0,1,666.348,1617.982Zm16.8-4.7h0Z" transform="translate(-666.12 -1598.817)" fill="#ccc"/>
        </g>
        <g id="Grupo_12681" data-name="Grupo 12681" transform="translate(45.035 108.289)">
          <path id="Trazado_11289" data-name="Trazado 11289" d="M670.352,1632.429c4.627,0,12.572-.707,13.9-.891a.333.333,0,1,0-.092-.66c-2.446.341-15.381,1.315-16.685.663-1.1-.548-1.931-3.706-2.158-4.876a.333.333,0,1,0-.654.127c.089.463.922,4.552,2.514,5.346A10.126,10.126,0,0,0,670.352,1632.429Z" transform="translate(-664.658 -1626.395)" fill="#ccc"/>
        </g>
        <g id="Grupo_12682" data-name="Grupo 12682" transform="translate(12.189 71.591)">
          <path id="Trazado_11290" data-name="Trazado 11290" d="M633.917,1620.428h.027a.334.334,0,0,0,.306-.359c-.015-.2-1.56-19.606-.588-29.04a.334.334,0,0,0-.3-.366.33.33,0,0,0-.366.3c-.978,9.5.571,28.966.587,29.162A.333.333,0,0,0,633.917,1620.428Z" transform="translate(-632.674 -1590.66)" fill="#ccc"/>
        </g>
        <path id="Trazado_11291" data-name="Trazado 11291" d="M651.668,1586.725c4.18,1.762,5.908,2.506,10.109,0,3.763-2.247,14.092-16.918,14.9-23.705a68.628,68.628,0,0,0-9.847-2.939c-2.665-.561-5.2.745-6.755.907-1.957.2-3.888-.852-6.105-.1a39.314,39.314,0,0,0-4.484,1.853A42.574,42.574,0,0,0,651.668,1586.725Z" transform="translate(-620.054 -1519.897)" fill="#fffeeb"/>
        <path id="Trazado_11292" data-name="Trazado 11292" d="M662.134,1564.057s-2.609,5.538-3.267,6.758,2.853,14.023,2.834,15.882c-1.426,1.612-6.965,5.425-6.965,5.425a48.241,48.241,0,0,1-3.148-5.425c-.317-4.238,5.38-15.41,4.992-17.24s-2.079-6.245-2.079-6.245l3.167-2.252h1.972Z" transform="translate(-619.976 -1519.87)" fill="#ba1400"/>
        <path id="Trazado_11293" data-name="Trazado 11293" d="M670.609,1556.342c1.22,0,3.389,5.548,3.192,6.337-.295,1.174-7.744,5.726-9.715,5.726-.565,0-4.552-6.618-5.586-6.711s-3.948,5.9-5.022,5.537c-.7-.234-2.355-3.832-2.211-5.24s1.254-4.612,1.789-4.71,3.755,3.285,5.444,3.519C660.5,1561.079,669.855,1556.343,670.609,1556.342Z" transform="translate(-619.984 -1519.994)" fill="#f4f3e4"/>
        <g id="Grupo_12683" data-name="Grupo 12683" transform="translate(33.408 46.952)">
          <path id="Trazado_11294" data-name="Trazado 11294" d="M655.132,1684.2a.319.319,0,0,0,.11-.019.334.334,0,0,0,.2-.425c-1.089-3.1-1.587-19.911-1.406-47.351.144-21.754.676-42.275.875-43.144.557-.913,11.589-4.992,15.742-6.528,2.109-.781,3.05-1.13,3.236-1.231a.461.461,0,0,0,.237-.329c.078-.419-.375-.975-1.325-2.1-.679-.8-2.093-2.47-1.8-2.858.313-.42,2.976-.1,4.567.084,2.711.321,3.684.388,3.96-.125a11.35,11.35,0,0,0,.517-1.928c.636-2.784,1.821-7.965,4.016-11.051a.333.333,0,1,0-.542-.387c-2.274,3.195-3.477,8.46-4.124,11.289a15.5,15.5,0,0,1-.453,1.762,15.664,15.664,0,0,1-3.3-.222c-2.885-.342-4.674-.5-5.18.181-.6.812.634,2.274,1.831,3.686a11.836,11.836,0,0,1,1.138,1.472c-.416.171-1.632.62-3.009,1.13-11.651,4.308-15.877,6.129-16.148,6.958-.235.719-.76,21.861-.9,43.1-.132,19.564.011,43.742,1.442,47.813A.335.335,0,0,0,655.132,1684.2Z" transform="translate(-653.337 -1566.668)" fill="#ccc"/>
        </g>
        <g id="Grupo_12684" data-name="Grupo 12684" transform="translate(21.145 48.079)">
          <path id="Trazado_11295" data-name="Trazado 11295" d="M653.993,1592.273a.333.333,0,0,0,.137-.638c-4.256-1.908-8.886-9.34-8.927-10.192a15.883,15.883,0,0,1,1.9-1.924c1.419-1.324,1.779-1.7,1.8-2.016a.437.437,0,0,0-.128-.309c-.259-.232-.868-.16-3.159.227a17.976,17.976,0,0,1-3.428.406c-.354-.736.035-6.34,1.134-9.624a.334.334,0,0,0-.633-.212c-1.037,3.1-1.753,9.709-.923,10.364.351.278,1.251.181,3.961-.277.759-.127,1.724-.291,2.277-.34-.319.331-.9.868-1.352,1.293-1.339,1.248-1.981,1.879-2.092,2.28-.295,1.074,5.1,9.049,9.305,10.932A.32.32,0,0,0,653.993,1592.273Z" transform="translate(-641.395 -1567.765)" fill="#ccc"/>
        </g>
      </g>
      <g id="Grupo_12700" data-name="Grupo 12700" transform="translate(74.05 7.295)">
        <g id="Grupo_12688" data-name="Grupo 12688">
          <g id="Grupo_12686" data-name="Grupo 12686">
            <rect id="Rectángulo_3305" data-name="Rectángulo 3305" width="57.84" height="91.699" rx="7.252" fill="#424242"/>
            <path id="Trazado_11296" data-name="Trazado 11296" d="M241.58,1554.288a4.464,4.464,0,0,1-4.468-4.45v-76.487a4.464,4.464,0,0,1,4.468-4.45h42.946a4.464,4.464,0,0,1,4.468,4.45v76.487a4.464,4.464,0,0,1-4.468,4.45Z" transform="translate(-234.133 -1465.922)" fill="#777"/>
            <g id="Grupo_12685" data-name="Grupo 12685" transform="translate(5.958 5.945)">
              <path id="SVGID" d="M241.5,1551.243a1.487,1.487,0,0,1-1.489-1.483v-76.487a1.488,1.488,0,0,1,1.489-1.484h42.946a1.488,1.488,0,0,1,1.489,1.484v76.487a1.487,1.487,0,0,1-1.489,1.483Z" transform="translate(-240.013 -1471.789)" fill="#fff9ec"/>
            </g>
          </g>
          <g id="Grupo_12687" data-name="Grupo 12687" transform="translate(10.382 11.369)">
            <circle id="Elipse_656" data-name="Elipse 656" cx="15.998" cy="15.998" r="15.998" transform="translate(0 31.508) rotate(-79.979)" fill="#f87314"/>
          </g>
        </g>
        <g id="Grupo_12691" data-name="Grupo 12691" transform="translate(23.703 16.742)">
          <g id="Grupo_12690" data-name="Grupo 12690">
            <g id="Grupo_12689" data-name="Grupo 12689">
              <path id="Trazado_11297" data-name="Trazado 11297" d="M261.3,1507.921a5.148,5.148,0,0,1-3.093-2.16,5.26,5.26,0,0,1,1.081-7.083v-12.994a3.329,3.329,0,0,1,2.214-3.213,3.288,3.288,0,0,1,4.341,3.109v13.1a5.269,5.269,0,0,1-4.543,9.243Zm.547-24.411a2.243,2.243,0,0,0-1.466,2.167v13.554l-.228.163a4.175,4.175,0,0,0-.823,6.054,3.921,3.921,0,0,0,1.9,1.322,4.18,4.18,0,0,0,3.744-7.376l-.229-.163V1485.58A2.192,2.192,0,0,0,261.846,1483.511Z" transform="translate(-257.292 -1482.303)" fill="#fff"/>
            </g>
            <path id="Trazado_11298" data-name="Trazado 11298" d="M263.039,1500.248v-14.74a.546.546,0,0,0-1.093,0v14.74a2.544,2.544,0,0,0-1.915,3.124,2.516,2.516,0,0,0,1.783,1.806,2.541,2.541,0,1,0,1.225-4.93Z" transform="translate(-257.221 -1482.231)" fill="#fff"/>
          </g>
        </g>
        <g id="Grupo_12699" data-name="Grupo 12699" transform="translate(6.939 27.116)">
          <g id="Grupo_12696" data-name="Grupo 12696" transform="translate(1.782)">
            <g id="Grupo_12693" data-name="Grupo 12693" transform="translate(20.199)">
              <path id="Trazado_11299" data-name="Trazado 11299" d="M279.03,1497.425c.046-1.134.2-4.795.2-4.795s2.93.253,2.9,1.417C282.09,1495.191,279.594,1496.5,279.03,1497.425Z" transform="translate(-261.924 -1492.398)" fill="#6fa4c5"/>
              <g id="Grupo_12692" data-name="Grupo 12692">
                <path id="Trazado_11300" data-name="Trazado 11300" d="M263.067,1518.491a.694.694,0,0,1-.01-1.388,13.407,13.407,0,0,0,9.929-4.164c6.441-6.8,6-19.682,6-19.811a.694.694,0,0,1,1.387-.057c.022.552.465,13.6-6.374,20.823a14.749,14.749,0,0,1-10.917,4.6Z" transform="translate(-262.373 -1492.404)" fill="#6fa4c5"/>
              </g>
            </g>
            <g id="Grupo_12695" data-name="Grupo 12695">
              <path id="Trazado_11301" data-name="Trazado 11301" d="M245.8,1497.425l-.2-4.795s-2.931.253-2.9,1.417C242.736,1495.191,245.232,1496.5,245.8,1497.425Z" transform="translate(-242.704 -1492.398)" fill="#6fa4c5"/>
              <g id="Grupo_12694" data-name="Grupo 12694" transform="translate(2.19)">
                <path id="Trazado_11302" data-name="Trazado 11302" d="M262.151,1518.491a.694.694,0,0,0,.009-1.388,13.407,13.407,0,0,1-9.929-4.164c-6.441-6.8-6-19.682-5.994-19.811a.695.695,0,0,0-1.388-.057c-.022.552-.465,13.6,6.375,20.823a14.747,14.747,0,0,0,10.916,4.6Z" transform="translate(-244.836 -1492.404)" fill="#6fa4c5"/>
              </g>
            </g>
          </g>
          <g id="Grupo_12697" data-name="Grupo 12697" transform="translate(3.403 26.086)">
            <path id="Trazado_11303" data-name="Trazado 11303" d="M267.161,1546.322a12.071,12.071,0,0,1-6.273-1.8c-10.992-6.658-16.22-13.951-16.436-14.258a.926.926,0,0,1,1.512-1.069c.051.072,5.245,7.3,15.884,13.744a9.8,9.8,0,0,0,10.791-.152c2.6-1.716,4.208-4.4,3.908-6.534-.2-1.425-1.278-2.481-3.113-3.055-10-3.126-12.034-11.2-11.448-14.62a.926.926,0,1,1,1.825.311c-.321,1.877.465,9.507,10.176,12.541,2.529.791,4.089,2.411,4.393,4.564.4,2.859-1.493,6.21-4.721,8.339A11.745,11.745,0,0,1,267.161,1546.322Z" transform="translate(-244.283 -1517.806)" fill="#2d6c9c"/>
          </g>
          <g id="Grupo_12698" data-name="Grupo 12698" transform="translate(0 33.537)">
            <path id="Trazado_11304" data-name="Trazado 11304" d="M241.135,1528.617a4.805,4.805,0,1,1,3.39,5.888A4.805,4.805,0,0,1,241.135,1528.617Z" transform="translate(-240.969 -1525.061)" fill="#6fa4c5"/>
            <path id="Trazado_11305" data-name="Trazado 11305" d="M242.458,1528.946a3.4,3.4,0,1,1,2.4,4.164A3.4,3.4,0,0,1,242.458,1528.946Z" transform="translate(-240.932 -1525.024)" fill="#586dbb"/>
          </g>
          <path id="Trazado_11306" data-name="Trazado 11306" d="M261.394,1515.712a15.853,15.853,0,0,0,2.044.136,1.27,1.27,0,0,1,1.251,1.609,9.648,9.648,0,0,0-.261,1.317,1.285,1.285,0,0,1-1.269,1.124h-1.616a1.277,1.277,0,0,1-1.27-1.123c-.052-.448-.131-.982-.249-1.514A1.273,1.273,0,0,1,261.394,1515.712Z" transform="translate(-240.456 -1491.777)" fill="#2d6c9c"/>
        </g>
      </g>
      <g id="_4" data-name="4" transform="translate(187.324 76.069)">
        <g id="Grupo_12701" data-name="Grupo 12701" transform="translate(27.591 31.487)">
          <path id="Trazado_11307" data-name="Trazado 11307" d="M383.117,1604.508a.561.561,0,0,1-.459-.236c-9.627-13.484-13.406-26.1-10.11-33.738,1.662-3.852,5.083-6.237,9.895-6.9a.563.563,0,0,1,.153,1.116c-4.462.613-7.495,2.708-9.014,6.228-3.137,7.277.6,19.477,9.992,32.638a.563.563,0,0,1-.131.786A.556.556,0,0,1,383.117,1604.508Z" transform="translate(-371.38 -1563.63)" fill="#232b59"/>
        </g>
        <g id="Grupo_12702" data-name="Grupo 12702" transform="translate(45.544 32.427)">
          <path id="Trazado_11308" data-name="Trazado 11308" d="M397.854,1604.483a.542.542,0,0,1-.128-.015.563.563,0,0,1-.421-.677c3.85-16.481,1.265-28.308-2.437-33.88-1.621-2.438-3.535-3.907-5.537-4.246a.563.563,0,1,1,.189-1.11c2.316.393,4.49,2.029,6.286,4.733,3.834,5.768,6.528,17.928,2.6,34.76A.563.563,0,0,1,397.854,1604.483Z" transform="translate(-388.861 -1564.546)" fill="#232b59"/>
        </g>
        <path id="Trazado_11309" data-name="Trazado 11309" d="M411.8,1585.911c1.715,1.435,8.45,34.5,7.434,43.269-1.426,12.312-9.1,29.952-9.1,29.952l-13.725,2.253S397.206,1573.691,411.8,1585.911Z" transform="translate(-343.114 -1531.574)" fill="#f19e86"/>
        <g id="Grupo_12703" data-name="Grupo 12703" transform="translate(34.425 224.288)">
          <path id="Trazado_11310" data-name="Trazado 11310" d="M378.869,1770.524c-1.085-.176-.934,2.466-.539,2.675,2.646,1.4,9.16,1.589,14.286,1.953,5.987.426,10.817.595,12.657-.794.967-.729,1.073-2.395-1.067-3.428-.984-.475-14.564-1.314-14.873-1.233S378.869,1770.524,378.869,1770.524Z" transform="translate(-378.034 -1750.878)" fill="#001833"/>
          <path id="Trazado_11311" data-name="Trazado 11311" d="M390.734,1752.509c.221,3.951-2.068,10.211-1.371,11.676.275.578,2.458,4.848.855,6.554-2.464,2.621-8.648,2.975-10.233-3.2a78.884,78.884,0,0,0,2.434-14.088C382.42,1751.494,390.617,1750.418,390.734,1752.509Z" transform="translate(-377.982 -1751.372)" fill="#f5b48d"/>
          <path id="Trazado_11312" data-name="Trazado 11312" d="M378.889,1771.563c.429,1.514,22.17,3.965,25.29,1.942,1.656-1.074.183-2.3-1.691-3.091-2.182-.914-8.323-4.846-10.352-5.749-1.669-.737-2.884-4.018-3.539-3.428-.611.551-.576,3.87-.291,5.178.28,1.28.086,2.393-.484,2.566-3.2.972-6.545-4.42-7.407-4.164C379.3,1765.148,378.45,1770.026,378.889,1771.563Z" transform="translate(-378.014 -1751.108)" fill="#00294c"/>
        </g>
        <g id="Grupo_12704" data-name="Grupo 12704" transform="translate(25.445 222.56)">
          <path id="Trazado_11313" data-name="Trazado 11313" d="M380.7,1750.957c-2,5.218-.644,12.693-.043,14.183.3.739,2.952,9.1-4.454,6.8-4.818-1.5-4.629-5.158-4.422-5.711,1.915-5.084-.082-13.051-.082-14.844C371.694,1749.4,381.434,1749.034,380.7,1750.957Z" transform="translate(-369.226 -1749.689)" fill="#f5b48d"/>
          <path id="Trazado_11314" data-name="Trazado 11314" d="M369.909,1770.817c-.94-.212-.6,3.074-.341,3.415s5.309,1.468,10.724,1.33c4.9-.125,8.015-.388,8.411-1.3.2-.464-.108-2.593-1.061-3.2-.84-.535-8.935-1.037-9.207-.964S369.909,1770.817,369.909,1770.817Z" transform="translate(-369.291 -1749.139)" fill="#072b45"/>
          <path id="Trazado_11315" data-name="Trazado 11315" d="M379.387,1762.338c1.073.037,2.629,2.425,3.491,4.934,1,1.061,2.83,1.442,3.784,2.857.663.985,1.5,2.716,1.141,3.184-1.25,1.632-17.175,1.358-17.746-.113-.743-1.912.812-3.662,1.037-5.545.205-1.727-.006-2.589.6-3.5.188-.281.662-.111.645.431-.037,1.192-.219,3.3,1.5,3.54C375.33,1763.747,377.624,1762.278,379.387,1762.338Z" transform="translate(-369.275 -1749.348)" fill="#0b3c5f"/>
        </g>
        <path id="Trazado_11316" data-name="Trazado 11316" d="M410.159,1650.88s-9.961,95.6-12.863,109.621c-.525,2.536-15.786,1.67-16.137-.9-1.365-9.99-7.514-30.686-6.347-39.929.521-4.118,3.638-11.49,5.72-16.495,2.6-6.249-9.883-41.4-.149-68.968C383.017,1626.756,410.159,1650.88,410.159,1650.88Z" transform="translate(-343.7 -1530.28)" fill="#234f73"/>
        <path id="Trazado_11317" data-name="Trazado 11317" d="M395.155,1642.233s-7.107,104.492-9.27,118.645c-.391,2.559-20.718,3.287-21.844-2.59-1.9-9.9-1.419-28.478-.737-37.769.3-4.14,3.032-11.666,4.849-16.772,2.27-6.376-12.037-40.829-3.759-68.866C366.632,1627.3,395.155,1642.233,395.155,1642.233Z" transform="translate(-344.047 -1530.281)" fill="#275c85"/>
        <path id="Trazado_11318" data-name="Trazado 11318" d="M406.419,1649.593c-.375,3,1.98,7.358,3.661,7.79,0,2.8-2.719,7.416-4.158,11.168-1.563,4.076-7.529-7.976-7.529-7.976Z" transform="translate(-343.061 -1529.826)" fill="#234f73"/>
        <path id="Trazado_11319" data-name="Trazado 11319" d="M386.385,1567.669c9.386.978,23.156,8.557,26.567,18.7,1.924,5.724-2.229,66.264-2.229,66.264l-50.424,1.255s3.458-15.14,3.817-19.1c.862-9.482-4-39.6-9.971-50.26C349.943,1577.023,378.192,1566.817,386.385,1567.669Z" transform="translate(-344.265 -1532.036)" fill="#2d6c9c"/>
        <path id="Trazado_11320" data-name="Trazado 11320" d="M391.263,1555.035s2.514,16.634,2.4,17.108c-.222.9-1.529,10.32-3.055,11.2-2.222,1.283-14.855-9.222-15.679-11.2-.182-.436,2.162-19.071,2.162-19.071Z" transform="translate(-343.694 -1532.428)" fill="#f19e86"/>
        <g id="Grupo_12707" data-name="Grupo 12707" transform="translate(29.155)">
          <path id="Trazado_11321" data-name="Trazado 11321" d="M394.649,1551c1.637-9.609-.459-15.05-1.38-16.371-1.29-1.851-16.559-2.919-18.979,1.068s-1.139,13.738-.142,15.3,12.1,2.991,12.1,2.991Z" transform="translate(-372.903 -1532.969)" fill="#232b59"/>
          <path id="Trazado_11322" data-name="Trazado 11322" d="M391.656,1539.924c1.531,1.932,1.975,4.232,2.017,8.256,3.393-5.693,2.254,7.049-.266,5.779-.4,4.115-2.516,8.538-6.093,10.506a4.921,4.921,0,0,1-4.838.375c-4.416-2.065-6.5-6.9-6.934-10.435-1.251.067-2.655-4.258-2.536-6.65.081-1.642,1.34-2.374,2.019-.144-.132-4.384.323-6.735,1.255-7.687,1.177-1.2,4.727,2.426,9.61,2.443C390.461,1542.383,390.692,1538.709,391.656,1539.924Z" transform="translate(-372.901 -1532.789)" fill="#f5b48d"/>
          <g id="Grupo_12705" data-name="Grupo 12705" transform="translate(2.171 15.3)">
            <path id="Trazado_11323" data-name="Trazado 11323" d="M380.469,1554.247a36.387,36.387,0,0,1-4.246-.216,1.027,1.027,0,0,1-.6-.664c-.453-1.089-.783-4.344-.49-4.839.1-.177.3-.268.785-.361,1.387-.269,6.2-.609,7.323.25h0c.137.1.5.379.531,2.327.005.281.033,2.758-.52,3.21A7.324,7.324,0,0,1,380.469,1554.247Zm-4.015-.969a33.079,33.079,0,0,0,6.287.062c.279-.58.365-3.828.008-4.309-.865-.619-6.02-.356-6.96-.036C375.691,1549.683,376.05,1552.847,376.454,1553.279Zm.017.016Zm-.766-4.266Z" transform="translate(-375.017 -1547.868)" fill="#232b59"/>
          </g>
          <g id="Grupo_12706" data-name="Grupo 12706" transform="translate(12.573 15.299)">
            <path id="Trazado_11324" data-name="Trazado 11324" d="M388.447,1554.249a7.313,7.313,0,0,1-2.778-.295c-.553-.452-.526-2.929-.521-3.21.035-1.948.4-2.223.531-2.327h0c1.13-.861,5.938-.519,7.325-.25.481.094.678.185.783.361.3.507-.024,3.718-.49,4.838a1.024,1.024,0,0,1-.6.665A36.256,36.256,0,0,1,388.447,1554.249Zm-2.272-.908a33.158,33.158,0,0,0,6.286-.062c.4-.426.752-3.5.651-4.287-.974-.318-6.085-.576-6.945.04C385.81,1549.513,385.895,1552.76,386.175,1553.341Zm6.27-.045Zm.765-4.266Z" transform="translate(-385.146 -1547.867)" fill="#232b59"/>
          </g>
        </g>
        <path id="Trazado_11325" data-name="Trazado 11325" d="M353.985,1582.656c-8,12.805-9.879,45.11-8.013,51.368,3.38,11.334,21.777,30.044,21.777,30.044l3.379-7.3s-10.178-22.953-10.137-27.533,2.635-14.981,2.635-20.207S353.985,1582.656,353.985,1582.656Z" transform="translate(-344.492 -1531.63)" fill="#f19e86"/>
        <path id="Trazado_11326" data-name="Trazado 11326" d="M344.513,1616.941c.422-7.757,4.975-37.043,13.726-39.578,6.343-1.837,12.462,42.707,9.223,43.458S344.513,1616.941,344.513,1616.941Z" transform="translate(-344.513 -1531.775)" fill="#2d6c9c"/>
        <path id="Trazado_11327" data-name="Trazado 11327" d="M407.066,1578.733c6.062,2.957,13.449,28.863,11.987,34.917a55.59,55.59,0,0,1-10.755,2.535Z" transform="translate(-342.827 -1531.736)" fill="#2d6c9c"/>
        <g id="Grupo_12708" data-name="Grupo 12708" transform="translate(68.383 62.824)">
          <path id="Trazado_11328" data-name="Trazado 11328" d="M411.384,1613.348h-.013a.281.281,0,0,1-.269-.294c.321-7.06,0-18.5,0-18.615a.281.281,0,0,1,.274-.289.264.264,0,0,1,.29.273c0,.115.321,11.576,0,18.657A.281.281,0,0,1,411.384,1613.348Z" transform="translate(-411.102 -1594.145)" fill="#275a82"/>
        </g>
        <circle id="Elipse_657" data-name="Elipse 657" cx="4.646" cy="4.646" r="4.646" transform="translate(35.26 70.937) rotate(-22.356)" fill="#95c2dc"/>
        <g id="Grupo_12709" data-name="Grupo 12709" transform="translate(22.2 62.828)">
          <path id="Trazado_11329" data-name="Trazado 11329" d="M367.776,1619.712h-.022a.282.282,0,0,1-.26-.3c.012-.162,1.183-16.356-1.353-24.9a.282.282,0,0,1,.54-.161c2.564,8.642,1.386,24.939,1.374,25.1A.282.282,0,0,1,367.776,1619.712Z" transform="translate(-366.131 -1594.149)" fill="#275a82"/>
        </g>
        <path id="Trazado_11330" data-name="Trazado 11330" d="M371.248,1595.324c1.83,0,12.906-.141,13.141,0s.188,3.943.188,3.943H371.623Z" transform="translate(-343.792 -1531.291)" fill="#275a82"/>
        <g id="Grupo_12710" data-name="Grupo 12710" transform="translate(27.571 35.67)">
          <path id="Trazado_11331" data-name="Trazado 11331" d="M383.118,1604.4a.561.561,0,0,1-.459-.236c-10.9-15.273-14.209-29.16-8.627-36.244a.564.564,0,1,1,.885.7c-5.18,6.571-1.781,20.268,8.658,34.892a.563.563,0,0,1-.131.786A.556.556,0,0,1,383.118,1604.4Z" transform="translate(-371.361 -1567.704)" fill="#232b59"/>
        </g>
        <g id="Grupo_12711" data-name="Grupo 12711" transform="translate(50.68 35.85)">
          <path id="Trazado_11332" data-name="Trazado 11332" d="M397.719,1604.393a.542.542,0,0,1-.128-.015.563.563,0,0,1-.421-.677c4.12-17.638.86-29.829-3.184-34.909a.563.563,0,1,1,.881-.7c4.4,5.529,7.607,17.856,3.4,35.866A.563.563,0,0,1,397.719,1604.393Z" transform="translate(-393.863 -1567.879)" fill="#232b59"/>
        </g>
        <g id="Grupo_12712" data-name="Grupo 12712" transform="translate(46.659 75.684)">
          <path id="Trazado_11333" data-name="Trazado 11333" d="M401.087,1612.028a.282.282,0,0,1-.28-.258,5.233,5.233,0,0,0-3.811-4.291c-2.382-.719-4.767.156-6.546,2.4a.281.281,0,1,1-.442-.349c1.93-2.434,4.535-3.376,7.15-2.589a5.809,5.809,0,0,1,4.211,4.782.282.282,0,0,1-.257.3Z" transform="translate(-389.948 -1606.667)" fill="#95c2dc"/>
        </g>
        <g id="Grupo_12713" data-name="Grupo 12713" transform="translate(45.677 71.431)">
          <path id="Trazado_11334" data-name="Trazado 11334" d="M395.972,1623.007a.423.423,0,0,1-.3-.721c2.355-2.355,6.206-10.444,5.286-15.323a3.853,3.853,0,0,0-2.2-3.053,4.694,4.694,0,0,0-4.722.18c-2.8,1.868-4.329,7.068-4.2,14.262a.422.422,0,0,1-.414.43.447.447,0,0,1-.43-.414c-.14-7.49,1.526-12.95,4.57-14.981a5.555,5.555,0,0,1,5.529-.252,4.648,4.648,0,0,1,2.691,3.67c.968,5.133-3.055,13.615-5.518,16.077A.423.423,0,0,1,395.972,1623.007Z" transform="translate(-388.991 -1602.526)" fill="#232b59"/>
        </g>
        <g id="Grupo_12714" data-name="Grupo 12714" transform="translate(38.544 70.287)">
          <path id="Trazado_11335" data-name="Trazado 11335" d="M385.225,1607.771a3.179,3.179,0,1,1,3.179-3.179A3.183,3.183,0,0,1,385.225,1607.771Zm0-5.515a2.335,2.335,0,1,0,2.334,2.335A2.338,2.338,0,0,0,385.225,1602.256Z" transform="translate(-382.045 -1601.412)" fill="#232b59"/>
        </g>
        <path id="Trazado_11336" data-name="Trazado 11336" d="M389.437,1617.533c-1.38-.212-1.287,3.145-.137,3.1S390.513,1617.7,389.437,1617.533Z" transform="translate(-343.33 -1530.691)" fill="#95c2dc"/>
        <path id="Trazado_11337" data-name="Trazado 11337" d="M396.72,1621.036c-1.007-.968-2.862,1.83-1.895,2.453S397.505,1621.79,396.72,1621.036Z" transform="translate(-343.164 -1530.602)" fill="#95c2dc"/>
        <path id="Trazado_11338" data-name="Trazado 11338" d="M389.123,1620.227c-.036-.176.435-.212.474,0S389.158,1620.4,389.123,1620.227Z" transform="translate(-343.311 -1530.622)" fill="#2d6c9c"/>
        <path id="Trazado_11339" data-name="Trazado 11339" d="M394.8,1623.077c.048-.173.486.008.424.216S394.747,1623.249,394.8,1623.077Z" transform="translate(-343.158 -1530.543)" fill="#2d6c9c"/>
        <path id="Trazado_11340" data-name="Trazado 11340" d="M398.282,1600.716c-.915-.164-.777.845-1.431,1.314-.466.334-2.406-.047-2.116,1.164.228.949,1.5.249,2.759.573,1.28.328,2.169,1.468,2.6.931.747-.931-.914-1.465-1.265-2.133S399.23,1600.885,398.282,1600.716Z" transform="translate(-343.16 -1531.144)" fill="#95c2dc"/>
      </g>
    </g>
    <g id="Grupo_12717" data-name="Grupo 12717" transform="translate(418.155 1481.686)">
      <g id="Grupo_12716" data-name="Grupo 12716">
        <path id="Trazado_11341" data-name="Trazado 11341" d="M418.594,1490.342c-.066-1.262-.132-2.79-.116-4.02h-.049c-.216,1.229-.516,2.576-.781,3.654l-1.163,4.552h-1.213l-1.1-4.435c-.3-1.13-.6-2.525-.8-3.771h-.049c-.016,1.263-.083,2.741-.149,4.07l-.2,4.269h-1.545l.748-11.2h1.877l1.079,4.535c.349,1.445.632,2.624.847,3.887h.034c.2-1.263.448-2.426.779-3.887l1.047-4.535h1.909l.665,11.2H418.81Z" transform="translate(-411.435 -1481.024)" fill="#6b614f"/>
        <path id="Trazado_11342" data-name="Trazado 11342" d="M423.336,1491.754l-.6,2.907h-1.727l2.491-11.2h2.076l2.309,11.2H426.16l-.6-2.907Zm2.044-1.395-.465-2.575c-.15-.73-.3-1.76-.416-2.541h-.049c-.116.78-.282,1.86-.415,2.558l-.5,2.558Z" transform="translate(-411.177 -1481.024)" fill="#6b614f"/>
        <path id="Trazado_11343" data-name="Trazado 11343" d="M428.985,1483.633a9.485,9.485,0,0,1,2.126-.217,3.909,3.909,0,0,1,2.775.814,2.908,2.908,0,0,1,.847,2.276,2.949,2.949,0,0,1-1.761,2.824v.033c.8.282,1.2,1.03,1.428,2.359a16.669,16.669,0,0,0,.681,2.94h-1.843a15.714,15.714,0,0,1-.565-2.724c-.216-1.461-.631-1.927-1.528-1.927h-.4v4.651h-1.761Zm1.761,5.017h.465a1.767,1.767,0,0,0,1.727-1.977c0-1.1-.449-1.844-1.595-1.861a2.058,2.058,0,0,0-.6.067Z" transform="translate(-410.962 -1481.025)" fill="#6b614f"/>
        <path id="Trazado_11344" data-name="Trazado 11344" d="M441.314,1494.481a3.943,3.943,0,0,1-1.644.282c-2.558,0-4.021-2.093-4.021-5.549,0-4.3,2.277-5.846,4.269-5.846a3.1,3.1,0,0,1,1.462.282l-.333,1.512a2.1,2.1,0,0,0-1.063-.232c-1.213,0-2.459,1.112-2.459,4.168,0,3.007,1.13,4.086,2.475,4.086a3.326,3.326,0,0,0,1.1-.2Z" transform="translate(-410.782 -1481.027)" fill="#6b614f"/>
        <path id="Trazado_11345" data-name="Trazado 11345" d="M444.99,1494.8c-2.226,0-3.34-2.358-3.34-5.747,0-3.355,1.263-5.714,3.522-5.714,2.341,0,3.272,2.558,3.272,5.58,0,4.22-1.479,5.88-3.438,5.88Zm.1-1.545c1.146,0,1.511-2.01,1.511-4.253,0-2.026-.332-4.119-1.528-4.119-1.179,0-1.594,2.077-1.577,4.153-.016,2.209.4,4.219,1.577,4.219Z" transform="translate(-410.621 -1481.027)" fill="#6b614f"/>
        <path id="Trazado_11346" data-name="Trazado 11346" d="M456.663,1489.561h-2.658v3.555h3.023v1.544h-4.8v-11.2h4.6v1.545h-2.824v3.074h2.658Z" transform="translate(-410.336 -1481.024)" fill="#6b614f"/>
        <path id="Trazado_11347" data-name="Trazado 11347" d="M458.076,1492.77a3.789,3.789,0,0,0,1.727.448,1.5,1.5,0,0,0,1.694-1.561c0-.9-.548-1.411-1.462-2.043a3.965,3.965,0,0,1-2.109-3.123,3.023,3.023,0,0,1,3.273-3.123,3.505,3.505,0,0,1,1.661.4l-.315,1.528a2.565,2.565,0,0,0-1.379-.383,1.363,1.363,0,0,0-1.494,1.363c0,.864.448,1.262,1.594,1.993a3.744,3.744,0,0,1,1.977,3.205,3.189,3.189,0,0,1-3.438,3.289,4.277,4.277,0,0,1-2.026-.465Z" transform="translate(-410.186 -1481.027)" fill="#6b614f"/>
        <path id="Trazado_11348" data-name="Trazado 11348" d="M465.707,1485.093H463.7v-1.628h5.8v1.628h-2.01v9.568h-1.777Z" transform="translate(-410.027 -1481.024)" fill="#6b614f"/>
        <path id="Trazado_11349" data-name="Trazado 11349" d="M470.522,1483.633a9.484,9.484,0,0,1,2.126-.217,3.9,3.9,0,0,1,2.774.814,2.908,2.908,0,0,1,.847,2.276,2.948,2.948,0,0,1-1.76,2.824v.033c.8.282,1.2,1.03,1.429,2.359a16.666,16.666,0,0,0,.681,2.94h-1.843a15.715,15.715,0,0,1-.565-2.724c-.216-1.461-.632-1.927-1.528-1.927h-.4v4.651h-1.761Zm1.761,5.017h.465a1.766,1.766,0,0,0,1.726-1.977c0-1.1-.448-1.844-1.594-1.861a2.058,2.058,0,0,0-.6.067Z" transform="translate(-409.843 -1481.025)" fill="#6b614f"/>
        <path id="Trazado_11350" data-name="Trazado 11350" d="M479.35,1491.754l-.6,2.907h-1.727l2.491-11.2h2.077l2.309,11.2h-1.727l-.6-2.907Zm2.044-1.395-.465-2.575c-.15-.73-.3-1.76-.416-2.541h-.049c-.116.78-.282,1.86-.415,2.558l-.5,2.558Z" transform="translate(-409.667 -1481.024)" fill="#6b614f"/>
        <path id="Trazado_11351" data-name="Trazado 11351" d="M485.392,1485.093h-2.01v-1.628h5.8v1.628h-2.011v9.568h-1.777Z" transform="translate(-409.496 -1481.024)" fill="#6b614f"/>
        <path id="Trazado_11352" data-name="Trazado 11352" d="M494.642,1489.625h-2.658v3.555h3.023v1.544h-4.8v-11.2h4.6v1.545h-2.824v3.074h2.658Zm.415-8.537-2.043,1.843H491.7l1.461-1.843Z" transform="translate(-409.312 -1481.088)" fill="#6b614f"/>
        <path id="Trazado_11353" data-name="Trazado 11353" d="M502.2,1494.365a6.529,6.529,0,0,1-2.176.4,3.7,3.7,0,0,1-2.841-1.1,6.455,6.455,0,0,1-1.4-4.5c.034-4.2,2.326-5.8,4.519-5.8a3.9,3.9,0,0,1,1.727.333l-.349,1.528a2.615,2.615,0,0,0-1.279-.266c-1.446,0-2.774,1.063-2.774,4.219,0,3.04,1.162,4.07,2.341,4.07a1.422,1.422,0,0,0,.581-.083v-3.139h-1.2v-1.461H502.2Z" transform="translate(-409.162 -1481.027)" fill="#6b614f"/>
        <path id="Trazado_11354" data-name="Trazado 11354" d="M505.442,1483.465v11.2h-1.778v-11.2Z" transform="translate(-408.949 -1481.024)" fill="#6b614f"/>
        <path id="Trazado_11355" data-name="Trazado 11355" d="M512.483,1494.481a3.942,3.942,0,0,1-1.644.282c-2.558,0-4.019-2.093-4.019-5.549,0-4.3,2.276-5.846,4.269-5.846a3.1,3.1,0,0,1,1.461.282l-.332,1.512a2.105,2.105,0,0,0-1.064-.232c-1.213,0-2.459,1.112-2.459,4.168,0,3.007,1.13,4.086,2.475,4.086a3.321,3.321,0,0,0,1.1-.2Z" transform="translate(-408.864 -1481.027)" fill="#6b614f"/>
        <path id="Trazado_11356" data-name="Trazado 11356" d="M516.159,1494.8c-2.226,0-3.339-2.358-3.339-5.747,0-3.355,1.262-5.714,3.52-5.714,2.342,0,3.273,2.558,3.273,5.58,0,4.22-1.478,5.88-3.438,5.88Zm.1-1.545c1.146,0,1.512-2.01,1.512-4.253,0-2.026-.333-4.119-1.528-4.119-1.18,0-1.595,2.077-1.578,4.153-.016,2.209.4,4.219,1.578,4.219Z" transform="translate(-408.703 -1481.027)" fill="#6b614f"/>
      </g>
    </g>
  </g>
</svg>
