<svg xmlns="http://www.w3.org/2000/svg" xmlns:xlink="http://www.w3.org/1999/xlink" width="59.5" height="59.715" viewBox="0 0 59.5 59.715">
  <defs>
    <linearGradient id="linear-gradient" x1="0.5" y1="-2.833" x2="0.5" y2="29.398" gradientUnits="objectBoundingBox">
      <stop offset="0" stop-color="#fff33b"/>
      <stop offset="0.014" stop-color="#fee72e"/>
      <stop offset="0.042" stop-color="#fed51b"/>
      <stop offset="0.07" stop-color="#fdca10"/>
      <stop offset="0.1" stop-color="#fdc70c"/>
      <stop offset="0.4" stop-color="#f3903f"/>
      <stop offset="0.8" stop-color="#ed683c"/>
      <stop offset="1" stop-color="#e93e3a"/>
    </linearGradient>
    <linearGradient id="linear-gradient-3" y1="-4.833" y2="27.398" xlink:href="#linear-gradient"/>
    <linearGradient id="linear-gradient-4" y1="-6.833" y2="25.398" xlink:href="#linear-gradient"/>
    <linearGradient id="linear-gradient-5" y1="-8.833" y2="23.398" xlink:href="#linear-gradient"/>
    <linearGradient id="linear-gradient-6" y1="-10.833" y2="21.398" xlink:href="#linear-gradient"/>
    <linearGradient id="linear-gradient-7" y1="-0.028" y2="1.047" xlink:href="#linear-gradient"/>
  </defs>
  <g id="smartphone-online_learning-hand-document-learning" data-name="smartphone-online learning-hand-document-learning" transform="translate(-2.216 -2)">
    <path id="Trazado_11141" data-name="Trazado 11141" d="M22,6h1.99V7.99H22Z" transform="translate(-0.094 -0.019)" fill="url(#linear-gradient)"/>
    <path id="Trazado_11142" data-name="Trazado 11142" d="M26,6H45.9V7.99H26Z" transform="translate(-0.113 -0.019)" fill="url(#linear-gradient)"/>
    <g id="Grupo_12579" data-name="Grupo 12579" transform="translate(21.906 9.962)">
      <path id="Trazado_11143" data-name="Trazado 11143" d="M22,10H45.886v1.99H22Z" transform="translate(-22 -10)" fill="url(#linear-gradient-3)"/>
      <path id="Trazado_11144" data-name="Trazado 11144" d="M22,14H45.886v1.99H22Z" transform="translate(-22 -10.019)" fill="url(#linear-gradient-4)"/>
      <path id="Trazado_11145" data-name="Trazado 11145" d="M22,18H45.886v1.99H22Z" transform="translate(-22 -10.038)" fill="url(#linear-gradient-5)"/>
      <path id="Trazado_11146" data-name="Trazado 11146" d="M22,22H45.886v1.99H22Z" transform="translate(-22 -10.057)" fill="url(#linear-gradient-6)"/>
    </g>
    <path id="Trazado_11147" data-name="Trazado 11147" d="M58.73,37.829a2.986,2.986,0,0,0-1,.179V21.9a3,3,0,0,0-2.986-2.986H49.773V4.986A3,3,0,0,0,46.787,2H20.911a3,3,0,0,0-2.986,2.986V18.919H12.949A3,3,0,0,0,9.963,21.9v1.443l-5.4,3.374a4.952,4.952,0,0,0-2.319,4.7L3.992,49.772V60.719a1,1,0,0,0,1,1H18.92a1,1,0,0,0,1-1V49.433a4.97,4.97,0,0,0-1.453-3.523L17.338,44.8H37.83v4.976a.935.935,0,0,0,.189.577l4.787,6.708v3.662a1,1,0,0,0,1,1H57.735a1,1,0,0,0,1-1v-3.8l2.926-7.793a1.025,1.025,0,0,0,.06-.348V40.815a3,3,0,0,0-2.986-2.986ZM49.773,20.91h4.976a1,1,0,0,1,1,1v16.1a2.986,2.986,0,0,0-1-.179,2.951,2.951,0,0,0-1.99.766,2.951,2.951,0,0,0-1.99-.766,2.986,2.986,0,0,0-1,.179ZM19.915,4.986a1,1,0,0,1,1-1H46.787a1,1,0,0,1,1,1V25.07a2.923,2.923,0,0,0-3.2.816H19.915Zm-1.99,54.738H5.982v-1.99H17.925ZM14.233,44.507l2.817,2.817a2.942,2.942,0,0,1,.876,2.11v6.31H5.982V49.682L4.22,31.23a2.964,2.964,0,0,1,1.393-2.817l4.349-2.727V39.342a.982.982,0,0,0,.617.916,1,1,0,0,0,1.085-.209l6.091-6.1a1.99,1.99,0,1,1,2.807,2.817l-6.33,6.33a1.009,1.009,0,0,0,0,1.413Zm24.155-1.7H17.338l4.638-4.628a3.987,3.987,0,1,0-5.633-5.643l-4.389,4.4V21.9a1,1,0,0,1,1-1h4.976v5.971a1,1,0,0,0,1,1H43.8v13.5a3.887,3.887,0,0,0-1.99-.557,3.961,3.961,0,0,0-3.424,1.99ZM56.739,59.724H44.8v-1.99H56.739ZM59.725,48.6l-2.677,7.146H44.309l-4.489-6.29V44.8a1.99,1.99,0,0,1,3.981,0v2.986h1.99v-19.9a1,1,0,0,1,1.99,0v19.9h1.99V40.815a1,1,0,0,1,1.99,0v6.967h1.99V40.815a1,1,0,0,1,1.99,0v6.967h1.99V40.815a1,1,0,0,1,1.99,0Z" transform="translate(0)" fill="url(#linear-gradient-7)"/>
  </g>
</svg>
