<svg xmlns="http://www.w3.org/2000/svg" xmlns:xlink="http://www.w3.org/1999/xlink" width="310.827" height="366.7" viewBox="0 0 310.827 366.7">
  <defs>
    <linearGradient id="linear-gradient" x1="-89.392" y1="0.5" x2="-88.392" y2="0.5" gradientUnits="objectBoundingBox">
      <stop offset="0" stop-color="#f1f8f7"/>
      <stop offset="1" stop-color="#bfe3ee"/>
    </linearGradient>
    <linearGradient id="linear-gradient-2" x1="-111.089" y1="0.5" x2="-110.089" y2="0.5" xlink:href="#linear-gradient"/>
    <linearGradient id="linear-gradient-3" x1="314.126" y1="0.5" x2="315.126" y2="0.5" xlink:href="#linear-gradient"/>
    <linearGradient id="linear-gradient-4" x1="262.074" y1="0.5" x2="263.074" y2="0.5" xlink:href="#linear-gradient"/>
  </defs>
  <g id="Grupo_12577" data-name="Grupo 12577" transform="translate(-259 -2169.809)">
    <g id="Grupo_12576" data-name="Grupo 12576" transform="translate(259 2169.809)">
      <g id="Grupo_12522" data-name="Grupo 12522" transform="translate(42.748 0)">
        <g id="Grupo_12518" data-name="Grupo 12518" transform="translate(43.003)">
          <path id="Trazado_11002" data-name="Trazado 11002" d="M808.433,920.924s14.12-61.194-23.562-87.6C719.136,877.446,762.7,941.979,762.7,941.979Z" transform="translate(-748.549 -833.324)" fill="#f6a505"/>
          <path id="Trazado_11003" data-name="Trazado 11003" d="M784.5,833.324c-.229.154-.451.307-.677.462l1.9,73.974-35.561-29.416c-.124.5-.242,1-.354,1.5l35.961,29.748.549,21.347,1.362-.628-1.094-42.553h0l21.856-15.427c-.1-.488-.208-.975-.32-1.462L786.548,886.1l-1.343-52.26c-.235-.171-.462-.346-.7-.513Z" transform="translate(-748.18 -833.324)" fill="#fff"/>
        </g>
        <g id="Grupo_12519" data-name="Grupo 12519" transform="translate(5.15 16.775)">
          <path id="Trazado_11004" data-name="Trazado 11004" d="M797.416,919.921s-11.569-74.039-69.035-73.607c-28.039,44.972,17.364,83.866,17.364,83.866l94.676,43.493L817.513,925.3Z" transform="translate(-719.239 -846.313)" fill="#fdd247"/>
          <path id="Trazado_11005" data-name="Trazado 11005" d="M772.242,867.71l-10.5,25.712-32.414-47.039c-.346-.023-.691-.053-1.04-.07-.11.177-.209.352-.318.529l17.36,25.194-25.619-3.052c-.036.243-.063.483-.1.724l-.076.643,26.833,3.2,28.929,41.985-45.133-3.921c.312.5.626.987.943,1.466l45.206,3.928,20.542,29.813.881.287.054-1.36-35.118-50.966,10.628-26.031Q772.78,868.227,772.242,867.71Z" transform="translate(-719.15 -846.312)" fill="#fff"/>
        </g>
        <g id="Grupo_12521" data-name="Grupo 12521" transform="translate(0 90.304)">
          <path id="Trazado_11006" data-name="Trazado 11006" d="M803.645,966.06a24.041,24.041,0,0,1,6.238-3.983l-11.038-23.514a61.177,61.177,0,0,0-54.789-35.314c-10.124-.072-20.382,2.29-28.805,9.319,7.155,50.491,55.263,61.127,82.443,63.061A21.507,21.507,0,0,1,803.645,966.06Z" transform="translate(-715.251 -903.247)" fill="#6b614f"/>
          <g id="Grupo_12520" data-name="Grupo 12520" transform="translate(0 0.016)">
            <path id="Trazado_11007" data-name="Trazado 11007" d="M715.251,912.565c.039.274.081.542.123.813l64.41,29.381L745.4,960.168q.682.434,1.372.851l34.614-17.527,25.158,11.476-.907-1.931L756.661,930.7,746.267,903.3q-.746-.031-1.492-.044l10.1,26.623-39.022-17.8c-.2.16-.406.315-.6.482Z" transform="translate(-715.251 -903.259)" fill="#fff"/>
          </g>
        </g>
      </g>
      <g id="Grupo_12529" data-name="Grupo 12529" transform="translate(0 168.456)">
        <g id="Grupo_12523" data-name="Grupo 12523" transform="translate(3.033)">
          <path id="Trazado_11008" data-name="Trazado 11008" d="M687.3,968.4l-2.8,5.5,5.872-1.34,20.087-6.329Z" transform="translate(-684.5 -963.041)" fill="#afd8c7"/>
          <path id="Trazado_11009" data-name="Trazado 11009" d="M684.5,972.586l9.975-.62-2.444-1.243Z" transform="translate(-684.5 -961.73)" fill="#63c0c4"/>
          <path id="Trazado_11010" data-name="Trazado 11010" d="M687.059,969.117l-1.746-5.357,24.909,3.187Z" transform="translate(-684.263 -963.76)" fill="url(#linear-gradient)"/>
          <path id="Trazado_11011" data-name="Trazado 11011" d="M709.133,966.228l-20.087,6.329,2.994,7.722Z" transform="translate(-683.174 -963.041)" fill="url(#linear-gradient-2)"/>
        </g>
        <g id="Grupo_12528" data-name="Grupo 12528" transform="translate(0 14.13)">
          <g id="Grupo_12524" data-name="Grupo 12524" transform="translate(4.978)">
            <path id="Trazado_11012" data-name="Trazado 11012" d="M686.263,976.961a.483.483,0,0,1-.142-.11.47.47,0,0,1,.047-.662,13.05,13.05,0,0,1,1.975-1.422.469.469,0,0,1,.475.808,12.088,12.088,0,0,0-1.834,1.321A.469.469,0,0,1,686.263,976.961Z" transform="translate(-686.006 -974.701)" fill="#63c0c4"/>
          </g>
          <g id="Grupo_12526" data-name="Grupo 12526" transform="translate(0 3.453)">
            <g id="Grupo_12525" data-name="Grupo 12525">
              <path id="Trazado_11013" data-name="Trazado 11013" d="M694.071,1027.642l-.027-.014a14.155,14.155,0,0,1-3.688-3.193.47.47,0,0,1,.724-.6,13.213,13.213,0,0,0,3.44,2.983.469.469,0,0,1-.449.823Zm-5.176-5.431a.468.468,0,0,1-.2-.186,17.743,17.743,0,0,1-1.8-4.51.47.47,0,0,1,.912-.225,16.779,16.779,0,0,0,1.7,4.271.469.469,0,0,1-.621.65Zm-2.19-7.195a.467.467,0,0,1-.256-.386l-.014-.226a22.629,22.629,0,0,1,.24-4.6.469.469,0,0,1,.927.141,21.7,21.7,0,0,0-.23,4.41l.013.212a.469.469,0,0,1-.435.5A.462.462,0,0,1,686.7,1015.017Zm.8-7.506a.469.469,0,0,1-.24-.539,35.036,35.036,0,0,1,1.565-4.541.467.467,0,0,1,.613-.25.472.472,0,0,1,.252.613,34.2,34.2,0,0,0-1.524,4.418.469.469,0,0,1-.573.333A.566.566,0,0,1,687.508,1007.511Zm2.725-7.067a.468.468,0,0,1-.208-.625l.154-.309a15.122,15.122,0,0,1-2.05-1.146.469.469,0,1,1,.522-.78,14.39,14.39,0,0,0,1.954,1.09c.5-.969,1.058-1.972,1.688-3.054a.469.469,0,0,1,.811.471c-.607,1.045-1.144,2.015-1.631,2.947a14.039,14.039,0,0,0,1.339.442.469.469,0,0,1-.252.9,15.537,15.537,0,0,1-1.518-.5q-.089.176-.176.354a.47.47,0,0,1-.628.214Zm-4.24-3.863a.465.465,0,0,1-.124-.09,12.918,12.918,0,0,1-1.846-2.4,12.7,12.7,0,0,1-.84-1.684.469.469,0,0,1,.868-.356,11.745,11.745,0,0,0,2.49,3.788.469.469,0,0,1-.549.745Zm9.275,4.275a.47.47,0,0,1,.253-.886,13.746,13.746,0,0,0,4.549-.354.469.469,0,0,1,.23.909,14.68,14.68,0,0,1-4.859.38A.482.482,0,0,1,695.268,1000.856Zm-12.647-10.939a.467.467,0,0,1-.249-.337,15.157,15.157,0,0,1-.047-4.87.469.469,0,1,1,.929.138,14.216,14.216,0,0,0,.043,4.569.47.47,0,0,1-.675.5Zm20.008,9.574a.469.469,0,0,1,0-.836,11.617,11.617,0,0,0,1.019-.589,9.119,9.119,0,0,0,2.4-2.295.469.469,0,1,1,.762.548,10.026,10.026,0,0,1-2.653,2.534,12.273,12.273,0,0,1-1.1.638A.468.468,0,0,1,702.629,999.491Zm-8.67-5.649c-.014-.007-.029-.016-.041-.023a.471.471,0,0,1-.141-.65,18.3,18.3,0,0,1,3.059-3.763.469.469,0,1,1,.628.7,17.424,17.424,0,0,0-2.9,3.576A.469.469,0,0,1,693.959,993.842Zm-10.709-11.4a.471.471,0,0,1-.231-.571,16.242,16.242,0,0,1,.867-2.048,15.339,15.339,0,0,1,1.406-2.256.469.469,0,1,1,.749.564,14.3,14.3,0,0,0-1.319,2.118,14.908,14.908,0,0,0-.815,1.927.469.469,0,0,1-.6.292A.647.647,0,0,1,683.25,982.438Zm24.188,11.475a.47.47,0,0,1-.243-.532,4.24,4.24,0,0,0-.3-3.078,3.825,3.825,0,0,0-.644-.885.469.469,0,1,1,.673-.653,4.794,4.794,0,0,1,.8,1.1,5.212,5.212,0,0,1,.384,3.742.468.468,0,0,1-.568.342A.488.488,0,0,1,707.438,993.913Zm-8.154-5.33a.468.468,0,0,1,.017-.843,7.569,7.569,0,0,1,4.944-.465.469.469,0,1,1-.23.909,6.723,6.723,0,0,0-4.321.407A.465.465,0,0,1,699.284,988.583Z" transform="translate(-682.151 -977.374)" fill="#63c0c4"/>
            </g>
          </g>
          <g id="Grupo_12527" data-name="Grupo 12527" transform="translate(14.31 53.98)">
            <path id="Trazado_11014" data-name="Trazado 11014" d="M693.488,1017.385a.469.469,0,0,1,.342-.869,10.066,10.066,0,0,0,2.206.372.469.469,0,1,1-.052.937,11.04,11.04,0,0,1-2.412-.406A.508.508,0,0,1,693.488,1017.385Z" transform="translate(-693.232 -1016.498)" fill="#63c0c4"/>
          </g>
        </g>
      </g>
      <g id="Grupo_12534" data-name="Grupo 12534" transform="translate(152.354 182.975)">
        <g id="Grupo_12530" data-name="Grupo 12530">
          <path id="Trazado_11015" data-name="Trazado 11015" d="M804.784,1055.525S787.518,1001.557,819.425,975c62.4,34.761,28.046,96.037,28.046,96.037Z" transform="translate(-800.119 -975.002)" fill="#afd8c7"/>
          <path id="Trazado_11016" data-name="Trazado 11016" d="M819.269,975c.217.121.429.243.643.365l3.815,66.652,29.775-29.1q.225.661.43,1.319l-30.111,29.433,1.1,19.234-1.271-.462-2.194-38.342h0l-20.8-12.237c.055-.446.114-.892.178-1.339l20.54,12.083-2.7-47.089c.2-.17.39-.345.593-.512Z" transform="translate(-799.964 -975.002)" fill="#fff"/>
        </g>
        <g id="Grupo_12531" data-name="Grupo 12531" transform="translate(22.091 10.227)">
          <path id="Trazado_11017" data-name="Trazado 11017" d="M842.869,998.648c8.534-7.85,18.976-14.114,31.3-15.727,28.569,38.339-9.348,76.7-9.348,76.7l-45.569,19.107-1.408-11.357A79.965,79.965,0,0,1,842.869,998.648Z" transform="translate(-817.224 -982.921)" fill="#f6a505"/>
          <path id="Trazado_11018" data-name="Trazado 11018" d="M835.825,1005.441l11.357,22.333,25.629-44.714c.31-.047.617-.1.93-.139.112.15.214.3.324.452l-13.726,23.948,22.806-4.657c.05.216.093.43.141.644l.116.572-23.887,4.878-22.875,39.909,40.288-6.9c-.245.469-.491.934-.739,1.388l-40.351,6.908-16.244,28.339-.77.323-.151-1.219,27.768-48.446-11.5-22.611Q835.38,1005.946,835.825,1005.441Z" transform="translate(-816.802 -982.921)" fill="#fff"/>
        </g>
        <g id="Grupo_12533" data-name="Grupo 12533" transform="translate(16.683 77.202)">
          <path id="Trazado_11019" data-name="Trazado 11019" d="M818.943,1095.923a21.717,21.717,0,0,0-5.906-3.114l16.229-43.638s39.244-26.156,65.158-7.944c-2.663,45.931-45.122,59.087-69.415,62.855A19.42,19.42,0,0,0,818.943,1095.923Z" transform="translate(-813.037 -1034.779)" fill="#6b614f"/>
          <g id="Grupo_12532" data-name="Grupo 12532" transform="translate(2.468 0.286)">
            <path id="Trazado_11020" data-name="Trazado 11020" d="M893.867,1041.164c-.014.248-.034.493-.05.74L838.1,1073.132l32.211,13.083q-.579.442-1.169.868l-32.43-13.173-21.763,12.2.67-1.8,42.37-23.748,7.3-25.4q.668-.083,1.338-.151l-7.094,24.692,33.757-18.919c.193.129.386.253.579.389Z" transform="translate(-814.948 -1035.001)" fill="#fff"/>
          </g>
        </g>
      </g>
      <g id="Grupo_12535" data-name="Grupo 12535" transform="translate(33.288 256.226)">
        <path id="Trazado_11021" data-name="Trazado 11021" d="M792.917,1037.8h8.2l10.826,5.829-9.513,5.278-5.969-7.389Z" transform="translate(-683.152 -1029.948)" fill="#ee7717"/>
        <path id="Trazado_11022" data-name="Trazado 11022" d="M727.288,1098.5a24.933,24.933,0,0,0,13.225-3.411c.642-.4,1.6-.092,1.6.509v35.827c0,3.944,4.355,6.628,9.614,6.009l96.759-11.392a6.4,6.4,0,0,0,5.7-6.065v-70.71a6.4,6.4,0,0,0-5.7-6.063l-30.794-3.626a10.855,10.855,0,0,1,1.5,6.044c-.331,5.6-5.609,9.809-12.347,9.667-8.105-.17-15.1-6.218-15.1-13.106a9.335,9.335,0,0,1,1.729-5.455l-41.749-4.915c-5.259-.619-9.614,2.065-9.614,6.008v35.827c0,.6-.96.9-1.6.508a24.594,24.594,0,0,0-12.091-3.4c-11.554-.34-21.25,6.389-20.445,14.826C708.661,1092.8,717.21,1098.4,727.288,1098.5Z" transform="translate(-707.926 -1031.72)" fill="#ee7717"/>
        <path id="Trazado_11023" data-name="Trazado 11023" d="M749.228,1114.314H740.08l-.821-2.983,11.26,1.491Z" transform="translate(-698.793 -1008.515)" fill="#ee7717"/>
        <path id="Trazado_11024" data-name="Trazado 11024" d="M749.439,1031.721l-10.089.116,1.759,3.766H748.5Z" transform="translate(-698.766 -1031.72)" fill="#ee7717"/>
        <path id="Trazado_11025" data-name="Trazado 11025" d="M733.637,1098.5a24.928,24.928,0,0,0,13.224-3.411c.643-.4,1.6-.092,1.6.509v35.827c0,3.944,4.355,6.628,9.613,6.009l96.761-11.392a6.4,6.4,0,0,0,5.7-6.065v-70.71a6.4,6.4,0,0,0-5.7-6.063l-30.8-3.626a10.846,10.846,0,0,1,1.5,6.044c-.331,5.6-5.609,9.809-12.347,9.667-8.105-.17-15.1-6.218-15.1-13.106a9.335,9.335,0,0,1,1.729-5.455l-41.75-4.915c-5.258-.619-9.613,2.065-9.613,6.008v35.827c0,.6-.959.9-1.6.508a24.6,24.6,0,0,0-12.091-3.4c-11.554-.34-21.25,6.389-20.446,14.826C715.01,1092.8,723.558,1098.4,733.637,1098.5Z" transform="translate(-706.075 -1031.72)" fill="#f6a505"/>
      </g>
      <g id="Grupo_12536" data-name="Grupo 12536" transform="translate(69.656 150.58)">
        <path id="Trazado_11026" data-name="Trazado 11026" d="M814.111,1071.36a8.9,8.9,0,0,0-1.625-7.471c-.3-.4.1-.916.66-.861l29.915,2.9a5.489,5.489,0,0,0,6-4.373l10.471-63.92a6.888,6.888,0,0,0-4.137-6.982l-92.463-39.425c-5.541-2.362-10.7-1.12-11.35,2.848l-5.757,35.146a27.849,27.849,0,0,1,10.513,1.482c9.216,3.1,15.6,10.311,15.117,16.722-.555,7.4-9.687,11.65-20.434,9.323a29.477,29.477,0,0,1-9.111-3.628l-5.757,35.147c-.651,3.967,3.7,7.657,9.535,8.223l45.223,4.382c.658.063.913.686.434,1.04a10.992,10.992,0,0,0-4.538,6.957c-1.082,6.606,5.225,12.121,13.488,11.951C807.027,1080.679,812.9,1076.572,814.111,1071.36Z" transform="translate(-736.086 -949.885)" fill="#f6a505"/>
        <path id="Trazado_11027" data-name="Trazado 11027" d="M740.594,998.883l6.663,1.274,1.909,6.952-7.213-.584Z" transform="translate(-734.772 -935.646)" fill="#f6a505"/>
        <path id="Trazado_11028" data-name="Trazado 11028" d="M743.626,981.75l6.685,1.139,2.169-3.975-4.49-3.247Z" transform="translate(-733.888 -942.413)" fill="#f6a505"/>
        <path id="Trazado_11029" data-name="Trazado 11029" d="M740.527,1032.54l10.609,2.429-4.572-5.839-5.663,1.123Z" transform="translate(-734.791 -926.829)" fill="#f6a505"/>
        <path id="Trazado_11030" data-name="Trazado 11030" d="M792.186,1054.8l-11.662-2.9,1.154-7.044,13.538,4.915Z" transform="translate(-723.133 -922.245)" fill="#f6a505"/>
        <path id="Trazado_11031" data-name="Trazado 11031" d="M762.13,951.275l-9.69-1.357,3.883,6.43,2.419.341Z" transform="translate(-731.319 -949.918)" fill="#f6a505"/>
        <path id="Trazado_11032" data-name="Trazado 11032" d="M820.164,1072.864a8.936,8.936,0,0,0-1.652-7.52c-.3-.4.1-.921.668-.865l30.276,2.956a5.537,5.537,0,0,0,6.066-4.393l10.537-64.316a6.941,6.941,0,0,0-4.2-7.028l-93.586-39.744c-5.605-2.38-10.821-1.135-11.475,2.855l-5.791,35.344a28.34,28.34,0,0,1,10.631,1.5c9.325,3.125,15.785,10.386,15.3,16.836-.554,7.446-9.787,11.71-20.657,9.357a29.936,29.936,0,0,1-9.216-3.659l-5.79,35.344c-.655,3.99,3.749,7.707,9.65,8.283l45.743,4.466c.665.064.925.691.44,1.046a11.025,11.025,0,0,0-4.585,6.995c-1.089,6.645,5.3,12.2,13.657,12.042C813,1082.233,818.948,1078.108,820.164,1072.864Z" transform="translate(-734.589 -949.676)" fill="#fdd247"/>
      </g>
      <g id="Grupo_12546" data-name="Grupo 12546" transform="translate(168.969 246.059)">
        <g id="Grupo_12537" data-name="Grupo 12537" transform="translate(71.143 111.46)">
          <path id="Trazado_11033" data-name="Trazado 11033" d="M874.584,1112.968s-.012,2.751-5.537,4.4c-1.133.34-.765.674-.978,1.151h6.358l2.49-2.8.774.665,1.8-1.763s-.838-2.552-2.2-2.575Z" transform="translate(-868.07 -1109.599)" fill="#212b53"/>
          <path id="Trazado_11034" data-name="Trazado 11034" d="M872.314,1111.139l1.033,2.382h0a2.491,2.491,0,0,0,2.584-.785l.114-.134-.834-2.448Z" transform="translate(-866.833 -1110.152)" fill="#f7b58e"/>
        </g>
        <g id="Grupo_12538" data-name="Grupo 12538" transform="translate(0 113.583)">
          <path id="Trazado_11035" data-name="Trazado 11035" d="M821.113,1113.922a15.033,15.033,0,0,1-6.167,2.836c-.944.24-1.962-.081-1.962,1.476h5.2l4.328-.748v.748h2.336s.651-3.822-.714-4.312Z" transform="translate(-812.984 -1111.176)" fill="#212b53"/>
          <path id="Trazado_11036" data-name="Trazado 11036" d="M819.541,1111.8l-.264,2.746h0a2.641,2.641,0,0,0,2.863.1l.16-.1.971-2.746Z" transform="translate(-811.149 -1111.796)" fill="#f7b58e"/>
        </g>
        <g id="Grupo_12539" data-name="Grupo 12539" transform="translate(23.155 0.356)">
          <path id="Trazado_11037" data-name="Trazado 11037" d="M836.178,1029.619l1.05-3.583a.942.942,0,0,0-.217-.9l-.529-.569a.935.935,0,0,0-.65-.3l-3.678-.148a.937.937,0,0,0-.943.687l-.124.442a.943.943,0,0,0,.077.7l2.2,4.082Z" transform="translate(-830.873 -1024.123)" fill="#f7b58e"/>
          <path id="Trazado_11038" data-name="Trazado 11038" d="M833.4,1029.725l-2.247-2.417a.9.9,0,0,1,.212-1.394l1.245-.713c.332-.19,2.106.868,2.106.868s-.4,1.466-1.921.329c-.086.248-.514.505-.514.505a4.043,4.043,0,0,1,3.153,2.524Z" transform="translate(-830.913 -1023.816)" fill="#f7b58e"/>
        </g>
        <g id="Grupo_12541" data-name="Grupo 12541" transform="translate(22.867 5.255)">
          <path id="Trazado_11039" data-name="Trazado 11039" d="M832.216,1027.917s-4.21,17.6,3.118,24.626,22.174,2.432,22.174,2.432l1-12.2-12.673,2.592c-2.491.312-4.841-.829-5.494-3.253l-4.107-14.124Z" transform="translate(-830.596 -1027.917)" fill="#f4f4f4"/>
          <g id="Grupo_12540" data-name="Grupo 12540" transform="translate(0 10.092)">
            <path id="Trazado_11040" data-name="Trazado 11040" d="M856.685,1052.727a40.331,40.331,0,0,1-7.435,1.175c-4.179.244-9.944-.215-13.674-3.792-3.456-3.315-4.355-9.091-4.448-13.718-.148-.22-.3-.439-.438-.661.019,4.812.856,11.111,4.589,14.689,3.153,3.025,7.687,3.888,11.569,3.961.847.017,1.664-.005,2.427-.05a40.581,40.581,0,0,0,7.544-1.195C856.771,1053,856.726,1052.864,856.685,1052.727Z" transform="translate(-830.69 -1035.731)" fill="#fff"/>
          </g>
        </g>
        <g id="Grupo_12542" data-name="Grupo 12542" transform="translate(17.219)">
          <path id="Trazado_11041" data-name="Trazado 11041" d="M828.077,1029.99l-1.666-3.341a.938.938,0,0,1,.055-.919l.42-.654a.945.945,0,0,1,.588-.411l3.593-.8a.944.944,0,0,1,1.051.51l.2.413a.936.936,0,0,1,.046.7l-1.44,4.406Z" transform="translate(-826.317 -1023.848)" fill="#f7b58e"/>
          <path id="Trazado_11042" data-name="Trazado 11042" d="M830.348,1029.572l1.785-2.777a.9.9,0,0,0-.456-1.334l-1.351-.481c-.359-.129-1.92,1.227-1.92,1.227s.65,1.372,1.949-.017a1.42,1.42,0,0,0,.6.407,4.043,4.043,0,0,0-2.657,3.041Z" transform="translate(-825.741 -1023.521)" fill="#f7b58e"/>
        </g>
        <path id="Trazado_11043" data-name="Trazado 11043" d="M841.385,1077.892c4.272,14.633,40.005,47.613,40.005,47.613l4.591-1.35s-9.744-25.419-21.51-33.9a115.961,115.961,0,0,0-14.519-27.474l-11.02,8.822S838,1068.965,841.385,1077.892Z" transform="translate(-805.455 -1012.499)" fill="#2d6c9c"/>
        <g id="Grupo_12543" data-name="Grupo 12543" transform="translate(38.786 2.159)">
          <path id="Trazado_11044" data-name="Trazado 11044" d="M845.634,1035.7l.5,5.787,5.6-1.773-1.441-4.612Z" transform="translate(-842.253 -1022.726)" fill="#f39f85"/>
          <path id="Trazado_11045" data-name="Trazado 11045" d="M846.326,1027.808s-4.285,6.451-3.1,10.223c1.33,1.892,6.8-.739,6.8-.739v-8.746Z" transform="translate(-843.016 -1024.853)" fill="#f7b58e"/>
          <path id="Trazado_11046" data-name="Trazado 11046" d="M844.947,1028.463a5.232,5.232,0,0,1,2.441,1.139c1.034.93.148,4.669.148,4.669l-.045,1.318a2.892,2.892,0,0,0,2.89,2.993h.11s7.092-7.059,4.137-10.31C849.457,1023.543,844.947,1028.463,844.947,1028.463Z" transform="translate(-842.454 -1025.316)" fill="#212b53"/>
          <path id="Trazado_11047" data-name="Trazado 11047" d="M846.04,1032.634a1.187,1.187,0,0,1,.821-1.224c.555-.218,1.091-.026,1.193.432a1.185,1.185,0,0,1-.82,1.224C846.678,1033.285,846.143,1033.092,846.04,1032.634Z" transform="translate(-842.14 -1023.829)" fill="#f7b58e"/>
          <path id="Trazado_11048" data-name="Trazado 11048" d="M843.863,1027.293c0,.979,1.084,1.773,2.419,1.773s5.967-.794,5.967-1.773-4.63-1.773-5.967-1.773S843.863,1026.314,843.863,1027.293Z" transform="translate(-842.77 -1025.52)" fill="#212b53"/>
        </g>
        <path id="Trazado_11049" data-name="Trazado 11049" d="M838.128,1065.9l13.316,4.523,6.745-17.187a15.831,15.831,0,0,0,.975-8.017c-.52-3.632-2.424-7.638-8.294-7.638-10.734,0-11.882,13.971-11.882,13.971Z" transform="translate(-805.655 -1019.846)" fill="#fff"/>
        <path id="Trazado_11050" data-name="Trazado 11050" d="M843.862,1059.5l-19.633,15.66a12.764,12.764,0,0,0-4.788,9.274l-.987,43.7h5.166s10.307-28.349,8.3-39.069c28.561-7.891,25.259-25.039,25.259-25.039Z" transform="translate(-811.389 -1013.454)" fill="#2d6c9c"/>
        <g id="Grupo_12545" data-name="Grupo 12545" transform="translate(16.842 5.706)">
          <path id="Trazado_11051" data-name="Trazado 11051" d="M827.357,1028.266s-3.875,17.675,3.586,24.562,22.216,2.009,22.216,2.009l.767-12.215-12.622,2.835c-2.485.359-4.856-.737-5.555-3.149l-4.376-14.042Z" transform="translate(-825.93 -1028.266)" fill="#fff"/>
          <g id="Grupo_12544" data-name="Grupo 12544" transform="translate(0 10.12)">
            <path id="Trazado_11052" data-name="Trazado 11052" d="M852.34,1052.6a40.235,40.235,0,0,1-7.412,1.316c-4.174.324-9.947-.025-13.744-3.53-3.519-3.249-4.527-9.007-4.707-13.631-.154-.214-.3-.433-.452-.652.112,4.811,1.069,11.093,4.868,14.6,3.211,2.963,7.76,3.739,11.644,3.739.846,0,1.662-.036,2.425-.1a40.7,40.7,0,0,0,7.519-1.339C852.432,1052.872,852.384,1052.736,852.34,1052.6Z" transform="translate(-826.025 -1036.102)" fill="#fff"/>
          </g>
        </g>
      </g>
      <g id="Grupo_12559" data-name="Grupo 12559" transform="translate(14.926 234.602)">
        <g id="Grupo_12558" data-name="Grupo 12558">
          <g id="Grupo_12547" data-name="Grupo 12547">
            <path id="Trazado_11053" data-name="Trazado 11053" d="M696.044,1142.426l41-127.449h-2.335l-41,127.449Z" transform="translate(-693.709 -1014.977)" fill="#00666b"/>
          </g>
          <g id="Grupo_12548" data-name="Grupo 12548" transform="translate(21.198)">
            <path id="Trazado_11054" data-name="Trazado 11054" d="M712.457,1142.426l41-127.449h-2.335l-41,127.449Z" transform="translate(-710.122 -1014.977)" fill="#00666b"/>
          </g>
          <g id="Grupo_12549" data-name="Grupo 12549" transform="translate(30.375 33.085)">
            <path id="Trazado_11055" data-name="Trazado 11055" d="M717.229,1040.607v1.9l21.965-.012.375-1.9Z" transform="translate(-717.229 -1040.594)" fill="#00666b"/>
          </g>
          <g id="Grupo_12550" data-name="Grupo 12550" transform="translate(34.917 20.736)">
            <path id="Trazado_11056" data-name="Trazado 11056" d="M720.745,1031.045v1.9l21.965-.012.375-1.9Z" transform="translate(-720.745 -1031.033)" fill="#00666b"/>
          </g>
          <g id="Grupo_12551" data-name="Grupo 12551" transform="translate(38.671 8.387)">
            <path id="Trazado_11057" data-name="Trazado 11057" d="M723.652,1021.483v1.9l21.965-.012.375-1.9Z" transform="translate(-723.652 -1021.471)" fill="#00666b"/>
          </g>
          <g id="Grupo_12552" data-name="Grupo 12552" transform="translate(26.375 45.593)">
            <path id="Trazado_11058" data-name="Trazado 11058" d="M714.131,1050.292v1.9l21.965-.012.375-1.9Z" transform="translate(-714.131 -1050.28)" fill="#00666b"/>
          </g>
          <g id="Grupo_12553" data-name="Grupo 12553" transform="translate(22.62 58.1)">
            <path id="Trazado_11059" data-name="Trazado 11059" d="M711.223,1059.976v1.9l21.965-.012.375-1.9Z" transform="translate(-711.223 -1059.964)" fill="#00666b"/>
          </g>
          <g id="Grupo_12554" data-name="Grupo 12554" transform="translate(17.848 71.095)">
            <path id="Trazado_11060" data-name="Trazado 11060" d="M708.416,1070.038l-.888,1.9,21.965-.012.375-1.9Z" transform="translate(-707.529 -1070.026)" fill="#00666b"/>
          </g>
          <g id="Grupo_12555" data-name="Grupo 12555" transform="translate(13.73 84.09)">
            <path id="Trazado_11061" data-name="Trazado 11061" d="M705.227,1080.1l-.888,1.9,21.965-.012.375-1.9Z" transform="translate(-704.34 -1080.088)" fill="#00666b"/>
          </g>
          <g id="Grupo_12556" data-name="Grupo 12556" transform="translate(9.873 96.795)">
            <path id="Trazado_11062" data-name="Trazado 11062" d="M702.241,1089.937l-.887,1.9,21.965-.012.375-1.9Z" transform="translate(-701.354 -1089.926)" fill="#00666b"/>
          </g>
          <g id="Grupo_12557" data-name="Grupo 12557" transform="translate(6.678 109.778)">
            <path id="Trazado_11063" data-name="Trazado 11063" d="M699.767,1099.99l-.888,1.9,21.965-.012.375-1.9Z" transform="translate(-698.879 -1099.978)" fill="#00666b"/>
          </g>
        </g>
      </g>
      <g id="Grupo_12565" data-name="Grupo 12565" transform="translate(51.682 127.412)">
        <g id="Grupo_12561" data-name="Grupo 12561" transform="translate(13.949 0.907)">
          <path id="Trazado_11064" data-name="Trazado 11064" d="M747.892,938.564l-7.184,18.773-4.528-3.369L746.3,936.909Z" transform="translate(-732.034 -931.45)" fill="#f39f85"/>
          <g id="Grupo_12560" data-name="Grupo 12560" transform="translate(14.001)">
            <path id="Trazado_11065" data-name="Trazado 11065" d="M744.777,934.119a2.926,2.926,0,0,0-.65,1.982l-.316,2.71.369.42,1.272,1.129c-.045-.562-.108,0-.108,0l2.043-3.558s2.472-1.585-.646-3.922a.892.892,0,0,0-1.024-.066A2.292,2.292,0,0,0,744.777,934.119Z" transform="translate(-743.811 -932.682)" fill="#f39f85"/>
          </g>
          <path id="Trazado_11066" data-name="Trazado 11066" d="M732.97,967.285a118.026,118.026,0,0,0,8.674-13.558l-3.9-4.436-4.777,5.57Z" transform="translate(-732.97 -927.84)" fill="#00666b"/>
        </g>
        <path id="Trazado_11067" data-name="Trazado 11067" d="M724.315,1035.6l2.287.4c.473-2.838,7.588-16.29,8.166-23.277a157.679,157.679,0,0,1,2.445-16.391l-7.652-2.276s-1.939,0,.19,15.807C724.966,1016.143,723.683,1030.4,724.315,1035.6Z" transform="translate(-721.587 -913.885)" fill="#f39f85"/>
        <path id="Trazado_11068" data-name="Trazado 11068" d="M728.644,989.6s1.8,10.814,4.3,22.379c-2.61,6.984,1.369,26.473,1.443,26.4.3-.282,1.674,1.412,1.674,1.412s2.9-17.2,3.544-24.955.8-17.213.8-17.213Z" transform="translate(-720.281 -915.183)" fill="#f7b58e"/>
        <path id="Trazado_11069" data-name="Trazado 11069" d="M733.042,1026.532a2.554,2.554,0,0,0-.89,2.1c.2,1.176.483,3.935.483,3.935h1.12L733.72,1030c0-.168,2.4,2.573,2.809,2.573h5.927s.393-1.736-3.087-2.293S733.042,1026.532,733.042,1026.532Z" transform="translate(-719.266 -904.419)" fill="#053c5e"/>
        <g id="Grupo_12562" data-name="Grupo 12562" transform="translate(0 119.222)">
          <path id="Trazado_11070" data-name="Trazado 11070" d="M726.831,1025.224l-.159,2.454a2.285,2.285,0,0,0,.4,1.452,9.188,9.188,0,0,0,1.782,1.853c-1.719.552-3.28-1.375-4.1-2.655a3.058,3.058,0,0,1-.444-2.1l.289-1.93Z" transform="translate(-721.554 -1024.293)" fill="#f39f85"/>
          <path id="Trazado_11071" data-name="Trazado 11071" d="M724.9,1026.059s-1.511.135-1.763,1.285-.965,3.475-.965,3.475l.824.657,1.162-2.306a34.531,34.531,0,0,0,2.9,3.536h6.469s0-2.141-4.048-2.239C725.742,1030.378,724.9,1026.059,724.9,1026.059Z" transform="translate(-722.169 -1023.778)" fill="#212b53"/>
        </g>
        <path id="Trazado_11072" data-name="Trazado 11072" d="M753.736,937.861l-7.184,18.773-4.528-3.37,10.118-17.058Z" transform="translate(-716.382 -930.747)" fill="#f7b58e"/>
        <g id="Grupo_12563" data-name="Grupo 12563" transform="translate(35.498)">
          <path id="Trazado_11073" data-name="Trazado 11073" d="M750.621,933.418a2.919,2.919,0,0,0-.65,1.982l-.316,2.71.369.42,1.271,1.128c-.044-.561-.107,0-.107,0l2.043-3.557s2.472-1.585-.646-3.924a.9.9,0,0,0-1.024-.066A2.293,2.293,0,0,0,750.621,933.418Z" transform="translate(-749.655 -931.979)" fill="#f7b58e"/>
        </g>
        <path id="Trazado_11074" data-name="Trazado 11074" d="M735.313,956.814h-4.63l1.848-5.441,3.62,2.225Z" transform="translate(-719.687 -926.326)" fill="#f39f85"/>
        <path id="Trazado_11075" data-name="Trazado 11075" d="M742.4,963.478c-.023-.138-.056-.252-.083-.378,4.585-5.912,8.477-10.076,8.477-10.076l-3.9-4.435L738.046,957l-2.6.01a5.208,5.208,0,0,0-6.578.846c-1.12,1.155-1.865,4.288-1.117,7.6,2.063,9.131.448,13.96.448,13.96l11.945,4.455s.273-7.94.459-13.508v-.02a6.206,6.206,0,0,1,.97-3.047A5.445,5.445,0,0,0,742.4,963.478Z" transform="translate(-720.629 -927.138)" fill="#62c1c5"/>
        <g id="Grupo_12564" data-name="Grupo 12564" transform="translate(9.66 15.266)">
          <path id="Trazado_11076" data-name="Trazado 11076" d="M737.242,943.8l-7.593,2.658.748,5.667c.011.082.032.158.048.236.146.027.292.054.436.089l.071.021c.022.005.045.008.068.014a5.2,5.2,0,0,1,3.549,3.553,8.954,8.954,0,0,0,3.286-.043,3.286,3.286,0,0,0,1.727-.744C741.183,951.757,737.242,943.8,737.242,943.8Z" transform="translate(-729.649 -943.8)" fill="#f7b58e"/>
        </g>
        <path id="Trazado_11077" data-name="Trazado 11077" d="M739.068,949.047c-2.043,1-1.563,11.533-1.915,18.706a8.153,8.153,0,0,1-6.9,7.625c-2.706.433-5.676.511-7.469-.509,1.185-.97,7.572-10.367,5.526-22.81-.27-1.638-.3-6.2,2.456-8.672,3.063-2.75,9.385.837,9.385.837S741.876,947.674,739.068,949.047Z" transform="translate(-721.991 -928.957)" fill="#212b53"/>
        <path id="Trazado_11078" data-name="Trazado 11078" d="M741.142,972.243a88.657,88.657,0,0,1,1.59,12.908c0,2.646-.648,19.312-.648,19.312s-11.348.822-13.553.822c-.546-13.658-3.66-14.077-3.66-20.446,0-2.769,1.419-5.9,2.509-7.891a11.533,11.533,0,0,0,1.573-4.429l.075-.258Z" transform="translate(-721.381 -920.243)" fill="#053c5e"/>
        <path id="Trazado_11079" data-name="Trazado 11079" d="M727.282,995.841" transform="translate(-720.679 -913.365)" fill="#ffd147"/>
      </g>
      <g id="Grupo_12567" data-name="Grupo 12567" transform="translate(86.222 50.429)">
        <path id="Trazado_11080" data-name="Trazado 11080" d="M887.319,937.839l-79.956-62.776c-4.54-3.565-9.886-3.61-11.825-.009L778.37,906.947a25.982,25.982,0,0,1,9.482,4.1c7.8,5.357,11.53,13.98,8.9,20.035-3.032,6.993-13.244,8.591-22.69,3.444a26.606,26.606,0,0,1-7.372-5.892l-17.168,31.3c-1.938,3.6.869,8.362,6.137,10.576l3.11,1.281a41.055,41.055,0,0,1,37.261-19.713,39.315,39.315,0,0,1,19.428,7.019l7.793,7.179a39.377,39.377,0,0,1,7.541,14.368q1.476.035,2.977.209a39.323,39.323,0,0,1,19.427,7.018q3.9,3.59,7.794,7.181.593.723,1.146,1.462L889.3,946.069A6.8,6.8,0,0,0,887.319,937.839Z" transform="translate(-748.913 -872.371)" fill="#158a91"/>
        <path id="Trazado_11081" data-name="Trazado 11081" d="M769.181,919.519l-6.217-3.607-1.642,6.064,3.289,1.771,2.423-.238Z" transform="translate(-745.296 -859.679)" fill="#158a91"/>
        <path id="Trazado_11082" data-name="Trazado 11082" d="M778.2,901.919l-6.479-2.2,5.412-2.531,2.741,1.476Z" transform="translate(-742.264 -865.139)" fill="#158a91"/>
        <path id="Trazado_11083" data-name="Trazado 11083" d="M769.457,918.166l-6.448-2.318-1.344,7.137,5.594-.734Z" transform="translate(-745.196 -859.698)" fill="#158a91"/>
        <g id="Grupo_12566" data-name="Grupo 12566" transform="translate(6.479 2.205)">
          <path id="Trazado_11084" data-name="Trazado 11084" d="M822.03,1008.009a9.243,9.243,0,0,0,.94-7.957c-.161-.491.412-.882.96-.651l29.509,12.4a6.163,6.163,0,0,0,7.751-2.5l33.123-61.533a6.8,6.8,0,0,0-1.977-8.231L812.38,876.769c-4.541-3.564-9.888-3.61-11.826-.009l-17.168,31.893a25.976,25.976,0,0,1,9.483,4.1c7.8,5.357,11.529,13.98,8.9,20.035-3.033,6.993-13.246,8.591-22.69,3.444a26.608,26.608,0,0,1-7.372-5.892l-17.168,31.893c-1.938,3.6.869,8.361,6.137,10.576l41.908,17.619c.624.262.662.952.07,1.155a11.952,11.952,0,0,0-6.823,5.455c-3.317,6.161.962,13.563,9.16,16C811.732,1015.046,819.021,1012.827,822.03,1008.009Z" transform="translate(-753.93 -874.078)" fill="#62c1c5"/>
          <path id="Trazado_11085" data-name="Trazado 11085" d="M824.292,898.237l-7.255-6.247A30.685,30.685,0,0,1,814.4,899.1c-1.6,3.192-3.229,6.372-4.846,9.556-1.563,3.075-3.12,6.159-4.642,9.263q1.189.724,2.387,1.432a130.425,130.425,0,0,0,19.112,9.409,74.094,74.094,0,0,0,8.468,1.689q2.581-.064,5.151-.35a62.366,62.366,0,0,0,7.777-2.9q1.806-.887,3.619-1.759,1.66-.562,3.332-.975l-12.917-11.121c-.513-.442-.337-1.109.289-1.121a11.957,11.957,0,0,0,8.171-3.091c5.051-4.841,3.258-13.2-3.791-18.045-5.791-3.98-13.411-4.112-17.755-.455a9.246,9.246,0,0,0-3.345,7.283C825.409,898.43,824.743,898.625,824.292,898.237Z" transform="translate(-739.07 -870.022)" fill="#62c1c5"/>
        </g>
      </g>
      <g id="Grupo_12572" data-name="Grupo 12572" transform="translate(263.552 238.817)">
        <path id="Trazado_11092" data-name="Trazado 11092" d="M913.78,1089.155c2.376,17-.225,34.608-.225,34.454a7.882,7.882,0,0,0-1.895,0s-2.627-20.661-3.243-27.558,0-7.356,0-7.356S911.4,1072.157,913.78,1089.155Z" transform="translate(-879.83 -999.808)" fill="#f39f85"/>
        <path id="Trazado_11093" data-name="Trazado 11093" d="M912.991,1055.721l5.812,3.706,2.452-5.109-7.51-8.607Z" transform="translate(-878.417 -1010.234)" fill="#fdf1c7"/>
        <g id="Grupo_12570" data-name="Grupo 12570">
          <path id="Trazado_11094" data-name="Trazado 11094" d="M889.239,1027.536l7.116,18.594,4.544-3.381-10.153-17.117Z" transform="translate(-885.34 -1016.087)" fill="#f7b58e"/>
          <g id="Grupo_12569" data-name="Grupo 12569">
            <path id="Trazado_11095" data-name="Trazado 11095" d="M889.706,1023.378a2.931,2.931,0,0,1,1.047,1.812l.872,2.6-.276.488-1.229,1.415a1.874,1.874,0,0,0-.487-.971l-1.935-2.167s-3.177-3.7-.213-4.959c-1.738-3.441-.493-3.351-.493-3.351l1.558,2.947Z" transform="translate(-886.22 -1018.241)" fill="#f7b58e"/>
            <path id="Trazado_11096" data-name="Trazado 11096" d="M888.6,1023.506s.641-.6.07-2.039.293-1.334.293-1.334,2.375,5.595,1.613,6.231S888.6,1023.506,888.6,1023.506Z" transform="translate(-885.562 -1017.69)" fill="#f7b58e"/>
          </g>
        </g>
        <path id="Trazado_11097" data-name="Trazado 11097" d="M908.028,1046.33l-2.131.166-7.24-8.44-3.909,4.452a118.083,118.083,0,0,0,8.836,13.784c.3,1.426,1.853,15.771,1.853,15.771h12.553s-2-10.527,1.533-16.385S908.028,1046.33,908.028,1046.33Z" transform="translate(-883.734 -1012.465)" fill="#fdf1c7"/>
        <path id="Trazado_11098" data-name="Trazado 11098" d="M909.489,1089.155c2.376,17-.225,34.608-.225,34.454a7.882,7.882,0,0,0-1.895,0s-2.626-20.661-3.242-27.558,0-7.356,0-7.356S907.112,1072.157,909.489,1089.155Z" transform="translate(-881.08 -999.808)" fill="#f7b58e"/>
        <g id="Grupo_12571" data-name="Grupo 12571" transform="translate(21.244 20.739)">
          <path id="Trazado_11099" data-name="Trazado 11099" d="M905.263,1034.3l7.231,2.532-.713,5.4c-.01.076-.031.15-.045.225-.14.026-.278.052-.416.085-.023.005-.045.013-.067.019l-.066.013a4.951,4.951,0,0,0-3.38,3.384,8.51,8.51,0,0,1-3.131-.04,3.131,3.131,0,0,1-1.643-.709C901.508,1041.876,905.263,1034.3,905.263,1034.3Z" transform="translate(-902.669 -1034.299)" fill="#f7b58e"/>
        </g>
        <path id="Trazado_11100" data-name="Trazado 11100" d="M904.72,1039.364a4.762,4.762,0,0,1,.148,4.156,6.989,6.989,0,0,0-.243,5.7,7.625,7.625,0,0,0,2.649,2.392,4.088,4.088,0,0,1,1.92,3.094c.16,1.755.328,3.911,1.831,4.429,4.364,1.5,5.964,1.357,6.546-2.278a7.4,7.4,0,0,0-.377-3.564,6.368,6.368,0,0,1,.136-4.776,8.325,8.325,0,0,0,.823-2.85,6.011,6.011,0,0,0-1.547-2.973,6.112,6.112,0,0,1-1.285-4.38,5.62,5.62,0,0,0-1.677-4.95c-2.982-2.544-9.6,1.46-9.6,1.46A6.384,6.384,0,0,0,904.72,1039.364Z" transform="translate(-881.069 -1014.081)" fill="#212b53"/>
        <path id="Trazado_11101" data-name="Trazado 11101" d="M921.36,1052.375l2.791,2.89c1.854,1.919,2.428,4.593.2,6.061l-9.122,7.245.838,1.569a3.828,3.828,0,0,1-.335,4.128l-.963,1.262-2.135-7.324,6.614-8.259a1.584,1.584,0,0,0-.341-2.463h0Z" transform="translate(-878.52 -1008.291)" fill="#f7b58e"/>
        <path id="Trazado_11102" data-name="Trazado 11102" d="M903.44,1064.389a30.632,30.632,0,0,0-1.839,9.6c0,2.654,2.3,22.675,2.3,22.675h11.951c-.81-14.786,3.673-16.6,3.673-22.99,0-4.507-3.531-9.287-3.531-9.287Z" transform="translate(-881.737 -1004.789)" fill="#6b614f"/>
        <path id="Trazado_11103" data-name="Trazado 11103" d="M914.375,1112.379a2.216,2.216,0,0,1,.854,1.869c-.191,1.047-.462,3.5-.462,3.5h-1.075l.032-2.287c0-.15-2.3,2.287-2.694,2.287h-5.685s-.378-1.543,2.961-2.039A12.31,12.31,0,0,0,914.375,1112.379Z" transform="translate(-880.649 -990.801)" fill="#212b53"/>
        <path id="Trazado_11104" data-name="Trazado 11104" d="M909.674,1112.379a2.213,2.213,0,0,1,.852,1.869c-.191,1.047-.462,3.5-.462,3.5H908.99l.034-2.287c0-.15-2.3,2.287-2.694,2.287h-5.686s-.377-1.543,2.961-2.039A12.318,12.318,0,0,0,909.674,1112.379Z" transform="translate(-882.02 -990.801)" fill="#12375a"/>
        <path id="Trazado_11105" data-name="Trazado 11105" d="M912.991,1087.423" transform="translate(-878.417 -998.075)" fill="#ffd147"/>
      </g>
      <g id="Grupo_12575" data-name="Grupo 12575" transform="translate(170.976 161.504)">
        <g id="Grupo_12573" data-name="Grupo 12573">
          <path id="Trazado_11106" data-name="Trazado 11106" d="M814.538,969l16.241-8.964,8.291-1.659,6.266.921Z" transform="translate(-814.538 -958.377)" fill="url(#linear-gradient-3)"/>
          <path id="Trazado_11107" data-name="Trazado 11107" d="M814.538,968.792l30.413-7.818.386-1.883" transform="translate(-814.538 -958.169)" fill="#afd8c7"/>
          <path id="Trazado_11108" data-name="Trazado 11108" d="M845.8,964.589l-.039.063-1.276,4.722L814.6,967.191Z" transform="translate(-814.521 -956.566)" fill="#158a91"/>
          <path id="Trazado_11109" data-name="Trazado 11109" d="M851.582,963.241l-4.339-3.522-32.551,8.838,28.021-.833Z" transform="translate(-814.493 -957.985)" fill="url(#linear-gradient-4)"/>
        </g>
        <g id="Grupo_12574" data-name="Grupo 12574" transform="translate(41.225 1.503)">
          <path id="Trazado_11110" data-name="Trazado 11110" d="M897.031,1009.4a22.726,22.726,0,0,1-2.925-1.271.442.442,0,1,0-.407.785,23.42,23.42,0,0,0,3.039,1.319c.375.133.75.254,1.129.368a.443.443,0,0,0,.39-.069.432.432,0,0,0,.159-.227.441.441,0,0,0-.295-.55Q897.573,1009.591,897.031,1009.4Z" transform="translate(-832.758 -945.392)" fill="#63c0c4"/>
          <path id="Trazado_11111" data-name="Trazado 11111" d="M851.209,959.9c-1.38.177-2.814.4-4.389.694a.442.442,0,1,0,.16.87c1.557-.288,2.978-.512,4.341-.687a.442.442,0,0,0-.112-.877Z" transform="translate(-846.459 -959.437)" fill="#63c0c4"/>
          <path id="Trazado_11112" data-name="Trazado 11112" d="M857,960.339a.448.448,0,0,0,.18-.351.443.443,0,0,0-.439-.446c-1.417-.013-2.916.047-4.454.174a.442.442,0,0,0,.074.881c1.511-.127,2.982-.185,4.373-.172A.44.44,0,0,0,857,960.339Z" transform="translate(-844.878 -959.541)" fill="#63c0c4"/>
          <path id="Trazado_11113" data-name="Trazado 11113" d="M889.793,1005.007a.437.437,0,0,0-.625.008.441.441,0,0,0,.009.625,24.569,24.569,0,0,0,3.487,2.832.442.442,0,0,0,.492-.734A23.757,23.757,0,0,1,889.793,1005.007Z" transform="translate(-834.046 -946.325)" fill="#63c0c4"/>
          <path id="Trazado_11114" data-name="Trazado 11114" d="M888.934,1004.978a.441.441,0,0,0,.061-.621q-.374-.457-.727-.932a23.051,23.051,0,0,1-1.7-2.654.441.441,0,0,0-.6-.177.447.447,0,0,0-.177.6,23.844,23.844,0,0,0,1.763,2.757q.366.494.754.967a.443.443,0,0,0,.6.075Z" transform="translate(-835.008 -947.59)" fill="#63c0c4"/>
          <path id="Trazado_11115" data-name="Trazado 11115" d="M885.779,1000.483a.441.441,0,0,0,.24-.576,30.066,30.066,0,0,1-1.344-4.135.441.441,0,1,0-.856.215,30.959,30.959,0,0,0,1.383,4.257A.442.442,0,0,0,885.779,1000.483Z" transform="translate(-835.573 -949.077)" fill="#63c0c4"/>
          <path id="Trazado_11116" data-name="Trazado 11116" d="M876.285,970.317q.552.674,1.071,1.373c.52.7,1.019,1.432,1.479,2.165a.44.44,0,0,0,.61.139l.028-.019a.442.442,0,0,0,.11-.589c-.471-.753-.982-1.5-1.516-2.221q-.531-.717-1.1-1.408a.421.421,0,0,0-.622-.06A.442.442,0,0,0,876.285,970.317Z" transform="translate(-837.794 -956.613)" fill="#63c0c4"/>
          <path id="Trazado_11117" data-name="Trazado 11117" d="M879.255,974.794a32.284,32.284,0,0,1,1.751,3.987.442.442,0,0,0,.566.266.411.411,0,0,0,.114-.061.441.441,0,0,0,.153-.5,33.149,33.149,0,0,0-1.8-4.1.442.442,0,1,0-.784.409Z" transform="translate(-836.913 -955.283)" fill="#63c0c4"/>
          <path id="Trazado_11118" data-name="Trazado 11118" d="M872.478,966.515a36.016,36.016,0,0,1,3.2,2.966.439.439,0,0,0,.581.05.369.369,0,0,0,.044-.036.442.442,0,0,0,.014-.624,36.9,36.9,0,0,0-3.278-3.04.442.442,0,0,0-.561.683Z" transform="translate(-838.921 -957.736)" fill="#63c0c4"/>
          <path id="Trazado_11119" data-name="Trazado 11119" d="M867.128,962.98a.442.442,0,1,0,.358-.809,34.972,34.972,0,0,0-4.2-1.544.442.442,0,0,0-.251.847A34,34,0,0,1,867.128,962.98Z" transform="translate(-841.718 -959.229)" fill="#63c0c4"/>
          <path id="Trazado_11120" data-name="Trazado 11120" d="M883.22,989.88a.431.431,0,0,0,.213-.084.438.438,0,0,0,.176-.4l-.062-.557c-.146-1.281-.293-2.562-.462-3.84a.442.442,0,1,0-.876.116c.168,1.271.314,2.548.46,3.823l.063.557A.44.44,0,0,0,883.22,989.88Z" transform="translate(-836.039 -952.233)" fill="#63c0c4"/>
          <path id="Trazado_11121" data-name="Trazado 11121" d="M871.719,965.814a.442.442,0,0,0,.518-.005.483.483,0,0,0,.1-.1.442.442,0,0,0-.107-.616,36.77,36.77,0,0,0-3.8-2.349.442.442,0,0,0-.417.78A35.84,35.84,0,0,1,871.719,965.814Z" transform="translate(-840.245 -958.622)" fill="#63c0c4"/>
          <path id="Trazado_11122" data-name="Trazado 11122" d="M883.239,990.052a.441.441,0,0,0-.384.493c.217,1.722.431,3.118.67,4.4a.442.442,0,0,0,.869-.164c-.236-1.259-.448-2.639-.663-4.342A.441.441,0,0,0,883.239,990.052Z" transform="translate(-835.85 -950.648)" fill="#63c0c4"/>
          <path id="Trazado_11123" data-name="Trazado 11123" d="M899.147,1009.862a.442.442,0,1,0-.171.867,35.693,35.693,0,0,0,4.432.572.442.442,0,0,0,.471-.409.441.441,0,0,0-.41-.472A35.159,35.159,0,0,1,899.147,1009.862Z" transform="translate(-831.254 -944.875)" fill="#63c0c4"/>
          <path id="Trazado_11124" data-name="Trazado 11124" d="M881.519,979.251a.443.443,0,0,0-.312.543c.349,1.3.647,2.7.912,4.277a.441.441,0,1,0,.87-.146c-.269-1.608-.573-3.034-.93-4.361A.441.441,0,0,0,881.519,979.251Z" transform="translate(-836.335 -953.799)" fill="#63c0c4"/>
          <path id="Trazado_11125" data-name="Trazado 11125" d="M859.372,959.778q-.775-.091-1.55-.15a.442.442,0,0,0-.067.882q.757.057,1.512.146c.934.111,1.877.266,2.8.462a.442.442,0,0,0,.182-.865C861.3,960.052,860.332,959.893,859.372,959.778Z" transform="translate(-843.285 -959.515)" fill="#63c0c4"/>
        </g>
      </g>
      <path id="Trazado_11126" data-name="Trazado 11126" d="M824.292,898.237l-7.255-6.247A30.685,30.685,0,0,1,814.4,899.1c-1.6,3.192-3.229,6.372-4.846,9.556-1.563,3.075-3.12,6.159-4.642,9.263q1.189.724,2.387,1.432a130.425,130.425,0,0,0,19.112,9.409,74.094,74.094,0,0,0,8.468,1.689q2.581-.064,5.151-.35a62.366,62.366,0,0,0,7.777-2.9q1.806-.887,3.619-1.759,1.66-.562,3.332-.975l-12.917-11.121c-.513-.442-.337-1.109.289-1.121a11.957,11.957,0,0,0,8.171-3.091c5.051-4.841,3.258-13.2-3.791-18.045-5.791-3.98-13.411-4.112-17.755-.455a9.246,9.246,0,0,0-3.345,7.283C825.409,898.43,824.743,898.625,824.292,898.237Z" transform="translate(-646.369 -817.389)" fill="#62c1c5"/>
    </g>
  </g>
</svg>
