<svg xmlns="http://www.w3.org/2000/svg" xmlns:xlink="http://www.w3.org/1999/xlink" width="463" height="229.975" viewBox="0 0 463 229.975">
  <defs>
    <linearGradient id="linear-gradient" x1="0.5" y1="1" x2="0.5" gradientUnits="objectBoundingBox">
      <stop offset="0.248" stop-color="#f4e9d4"/>
      <stop offset="1" stop-color="#e0cdaf"/>
    </linearGradient>
    <linearGradient id="linear-gradient-2" x1="0.5" y1="1" x2="0.5" gradientUnits="objectBoundingBox">
      <stop offset="0" stop-color="#f4e9d4"/>
      <stop offset="1" stop-color="#e5daca"/>
    </linearGradient>
    <clipPath id="clip-path">
      <path id="SVGID" d="M894.331-982.8s-7.965,38.408-8.424,52.1c-.2,5.829,2.847,25.442.614,35.67.261,1.9,5.947,2.359,6.207,1.307,2.149-8.713,7.515-21.642,7.907-29.286.087-1.7-1.691-4.682-2.745-7.253,2.319-6.5,11.879-30.688,11.879-30.688L901.348-990.4Z" fill="none"/>
    </clipPath>
    <clipPath id="clip-path-2">
      <path id="SVGID-2" data-name="SVGID" d="M917.892-936.532c-.912-4.527,6.807-43.919,7.071-57.505,5.721-.719,9.541,1.733,10.828,3.9,2.5,4.213,6.964,13.561,6.763,19.075C942.26-963,928.09-938.8,927.819-936.811c-.162,1.189,3.149,5.074,4.648,8.026,4.648,9.155-5.076,32.431-4.843,38.753.012.335-3.1,1.238-4.669-.306C919.761-915.792,918.627-932.882,917.892-936.532Z" fill="none"/>
    </clipPath>
    <clipPath id="clip-path-3">
      <path id="SVGID-3" data-name="SVGID" d="M993.96-978.113s-5.388,37.431-3.8,50.222c.677,5.443,5.379,29.4,4.81,39.23.521,1.722,7.019,1.515,7.1.5.714-8.41,4.643-26.256,3.882-33.415-.17-1.6-2.4-7.152-3.758-9.385,6.7-13.1,9.318-29.123,9.318-29.123l-12.16-26.122Z" fill="none"/>
    </clipPath>
    <clipPath id="clip-path-4">
      <path id="SVGID-4" data-name="SVGID" d="M806.736-970.841s7.743,37.007,8.189,50.2c.189,5.617-3.022,23.619-.851,33.474-.254,1.826-5.782,2.273-6.034,1.259-2.089-8.4-7.051-19.957-7.432-27.323-.085-1.642,1.644-4.511,2.668-6.988-2.254-6.259-11.548-29.569-11.548-29.569l8.187-28.378Z" fill="none"/>
    </clipPath>
  </defs>
  <g id="Grupo_12803" data-name="Grupo 12803" transform="translate(-797 -158)">
    <g id="Grupo_12323" data-name="Grupo 12323" transform="translate(138 1220.975)">
      <path id="Trazado_10419" data-name="Trazado 10419" d="M1048.713-895H729.33L659-833h463Z" fill="url(#linear-gradient)"/>
      <g id="Grupo_12266" data-name="Grupo 12266">
        <path id="Trazado_10420" data-name="Trazado 10420" d="M818.9-907.451c-9.488-.1-82.747,2.227-62.473.2" fill="url(#linear-gradient-2)"/>
      </g>
      <g id="trees">
        <g id="Grupo_12271" data-name="Grupo 12271">
          <path id="Trazado_10421" data-name="Trazado 10421" d="M735.606-969.922c6.783.98,13.148,9.78,12.669,20.6s-2.474,11.6-2.4,15.973c.11,6.2,5.136,11,4.554,20.406a16.534,16.534,0,0,1-14.62,15.6c-9.108,1.006-17.465-6.165-18.455-13.216-1.8-12.8,7.43-18.1,7.43-23.6s-3.384-11.1-2.4-22.657C723.032-964.341,728.055-971.013,735.606-969.922Z" fill="#ffb833"/>
          <g id="Grupo_12267" data-name="Grupo 12267">
            <path id="Trazado_10422" data-name="Trazado 10422" d="M733.8-875.505a.441.441,0,0,1-.424-.3c-3.5-11.009-1.867-27.9-.288-44.243,1.463-15.14,2.845-29.44.284-38.645a.415.415,0,0,1,.316-.509.445.445,0,0,1,.539.3c2.6,9.347,1.212,23.718-.259,38.933-1.571,16.26-3.2,33.074.255,43.927a.413.413,0,0,1-.3.519A.469.469,0,0,1,733.8-875.505Z" fill="#f4f4ef"/>
          </g>
          <g id="Grupo_12268" data-name="Grupo 12268">
            <path id="Trazado_10423" data-name="Trazado 10423" d="M735.238-943.759a.452.452,0,0,1-.337-.147l-8.261-9.15a.4.4,0,0,1,.05-.588.46.46,0,0,1,.623.048l8.261,9.15a.4.4,0,0,1-.05.588A.46.46,0,0,1,735.238-943.759Z" fill="#f4f4ef"/>
          </g>
          <g id="Grupo_12269" data-name="Grupo 12269">
            <path id="Trazado_10424" data-name="Trazado 10424" d="M732.444-907.339a.8.8,0,0,1-.7-.4.729.729,0,0,1,.327-1.015l14.128-7.12a.82.82,0,0,1,1.077.308.73.73,0,0,1-.327,1.015l-14.128,7.12A.836.836,0,0,1,732.444-907.339Z" fill="#ebe6e4"/>
          </g>
          <g id="Grupo_12270" data-name="Grupo 12270">
            <path id="Trazado_10425" data-name="Trazado 10425" d="M732.443-914.336a.454.454,0,0,1-.24-.067l-9.243-5.671a.4.4,0,0,1-.129-.576.457.457,0,0,1,.611-.122l9.243,5.67a.4.4,0,0,1,.129.577A.448.448,0,0,1,732.443-914.336Z" fill="#f4f4ef"/>
          </g>
        </g>
        <g id="Grupo_12282" data-name="Grupo 12282">
          <path id="Trazado_10426" data-name="Trazado 10426" d="M708.992-990.746c-12.063,4.55-8.834,17.262-11.7,22.674-2.091,3.943-12.783,10.367-12.783,19.986,0,8.558,8.994,16.056,9.813,20.321s-8.608,8.537-8.608,19.736c0,9.892,25.238,14.931,25.238,14.931s21.01-11.779,21.558-20.155-5.528-13.741-7.081-16.465,6.93-10.752,7.08-18.368c.135-6.87-9.529-12.941-10.406-16.1-.642-2.308,1.533-8.863,1.37-15.5C723.274-987.61,717.8-994.066,708.992-990.746Z" fill="#f87314"/>
          <g id="Grupo_12272" data-name="Grupo 12272">
            <path id="Trazado_10427" data-name="Trazado 10427" d="M712.525-870.717a.432.432,0,0,1-.44-.383c-.364-4.284-1.281-16.76-1.578-21.976-.061-1.083-.2-2.813-.376-5-1.189-14.8-3.974-49.476.547-77.1a.438.438,0,0,1,.5-.348.421.421,0,0,1,.37.475c-4.506,27.527-1.727,62.131-.54,76.908.177,2.194.316,3.928.378,5.02.3,5.211,1.213,17.674,1.577,21.954a.426.426,0,0,1-.406.449Z" fill="#f4f4ef"/>
          </g>
          <g id="Grupo_12273" data-name="Grupo 12273">
            <path id="Trazado_10428" data-name="Trazado 10428" d="M708.726-946.15a.445.445,0,0,1-.4-.236.406.406,0,0,1,.205-.556l14.389-6.557a.454.454,0,0,1,.591.193.407.407,0,0,1-.206.557l-14.389,6.557A.45.45,0,0,1,708.726-946.15Z" fill="#f4f4ef"/>
          </g>
          <g id="Grupo_12274" data-name="Grupo 12274">
            <path id="Trazado_10429" data-name="Trazado 10429" d="M708.725-934.385a.453.453,0,0,1-.26-.081L689.2-947.749a.4.4,0,0,1-.1-.583.461.461,0,0,1,.618-.09l19.263,13.284a.4.4,0,0,1,.1.582A.451.451,0,0,1,708.725-934.385Z" fill="#f4f4ef"/>
          </g>
          <g id="Grupo_12275" data-name="Grupo 12275">
            <path id="Trazado_10430" data-name="Trazado 10430" d="M697.434-942.172a.43.43,0,0,1-.442-.417v-9.161a.43.43,0,0,1,.442-.417.43.43,0,0,1,.442.417v9.161A.43.43,0,0,1,697.434-942.172Z" fill="#f4f4ef"/>
          </g>
          <g id="Grupo_12276" data-name="Grupo 12276">
            <path id="Trazado_10431" data-name="Trazado 10431" d="M726.208-909a.453.453,0,0,1-.263-.083l-7.861-5.518a.4.4,0,0,1-.09-.584.46.46,0,0,1,.618-.085l7.861,5.519a.4.4,0,0,1,.09.583A.451.451,0,0,1,726.208-909Z" fill="#f4f4ef"/>
          </g>
          <g id="Grupo_12277" data-name="Grupo 12277">
            <path id="Trazado_10432" data-name="Trazado 10432" d="M710.289-901.238a.465.465,0,0,1-.181-.037L692.377-908.8a.407.407,0,0,1-.222-.551.453.453,0,0,1,.585-.209l17.731,7.526a.407.407,0,0,1,.222.551A.444.444,0,0,1,710.289-901.238Z" fill="#f4f4ef"/>
          </g>
          <g id="Grupo_12278" data-name="Grupo 12278">
            <path id="Trazado_10433" data-name="Trazado 10433" d="M700.183-905.528a.434.434,0,0,1-.435-.347L697.8-916.693a.42.42,0,0,1,.362-.481.441.441,0,0,1,.51.341l1.951,10.819a.419.419,0,0,1-.361.48A.478.478,0,0,1,700.183-905.528Z" fill="#f4f4ef"/>
          </g>
          <g id="Grupo_12279" data-name="Grupo 12279">
            <path id="Trazado_10434" data-name="Trazado 10434" d="M693.376-903.7a.447.447,0,0,1-.379-.2.4.4,0,0,1,.152-.572l4.058-2.29a.458.458,0,0,1,.606.143.4.4,0,0,1-.152.572l-4.058,2.29A.461.461,0,0,1,693.376-903.7Z" fill="#f4f4ef"/>
          </g>
          <g id="Grupo_12280" data-name="Grupo 12280">
            <path id="Trazado_10435" data-name="Trazado 10435" d="M710.067-967.075a.451.451,0,0,1-.35-.161.4.4,0,0,1,.079-.585l5.854-4.27a.46.46,0,0,1,.62.074.4.4,0,0,1-.079.585l-5.854,4.27A.455.455,0,0,1,710.067-967.075Z" fill="#f4f4ef"/>
          </g>
          <g id="Grupo_12281" data-name="Grupo 12281">
            <path id="Trazado_10436" data-name="Trazado 10436" d="M709.6-910.937a.446.446,0,0,1-.393-.226.405.405,0,0,1,.19-.561l16.612-8.095a.455.455,0,0,1,.6.178.406.406,0,0,1-.19.562L709.8-910.984A.457.457,0,0,1,709.6-910.937Z" fill="#f4f4ef"/>
          </g>
        </g>
      </g>
      <g id="tree">
        <path id="Trazado_10437" data-name="Trazado 10437" d="M1035.526-1003.624c-10.818,1.288-20.97,12.857-20.205,27.084s3.945,15.243,3.822,21c-.174,8.157-8.19,14.455-7.262,26.825.69,9.2,8.791,19.185,23.316,20.507s27.853-8.1,29.433-17.374c2.866-16.822-11.85-23.794-11.85-31.025s5.4-14.592,3.823-29.784C1055.578-996.287,1047.568-1005.057,1035.526-1003.624Z" fill="#f87314"/>
        <g id="Grupo_12283" data-name="Grupo 12283">
          <path id="Trazado_10438" data-name="Trazado 10438" d="M1041.04-890.651a.6.6,0,0,1-.06,0,.462.462,0,0,1-.4-.518,96.985,96.985,0,0,0,.664-15.772c-.425-9.685-1.548-19.428-2.633-28.852-.8-6.927-1.623-14.091-2.171-21.212-.918-10.653-1.868-21.673,1.523-32.132a.462.462,0,0,1,.582-.3.463.463,0,0,1,.3.582c-3.333,10.281-2.391,21.206-1.481,31.772.547,7.108,1.371,14.262,2.168,21.182,1.087,9.439,2.211,19.2,2.639,28.921a97.832,97.832,0,0,1-.672,15.927A.461.461,0,0,1,1041.04-890.651Z" fill="#f4f4ef"/>
        </g>
        <g id="Grupo_12284" data-name="Grupo 12284">
          <path id="Trazado_10439" data-name="Trazado 10439" d="M1036.114-969.316a.464.464,0,0,1-.342-.151.462.462,0,0,1,.03-.652l13.175-12.029a.462.462,0,0,1,.652.029.462.462,0,0,1-.029.653l-13.175,12.029A.459.459,0,0,1,1036.114-969.316Z" fill="#f4f4ef"/>
        </g>
        <g id="Grupo_12285" data-name="Grupo 12285">
          <path id="Trazado_10440" data-name="Trazado 10440" d="M1040.569-921.877a.462.462,0,0,1-.177-.036l-22.532-9.36a.461.461,0,0,1-.249-.6.46.46,0,0,1,.6-.249l22.532,9.36a.463.463,0,0,1,.25.6A.464.464,0,0,1,1040.569-921.877Z" fill="#f4f4ef"/>
        </g>
        <g id="Grupo_12286" data-name="Grupo 12286">
          <path id="Trazado_10441" data-name="Trazado 10441" d="M1040.569-930.636a.462.462,0,0,1-.412-.254.462.462,0,0,1,.2-.621l14.741-7.454a.46.46,0,0,1,.62.2.461.461,0,0,1-.2.62l-14.741,7.455A.455.455,0,0,1,1040.569-930.636Z" fill="#f4f4ef"/>
        </g>
      </g>
      <g id="Grupo_12313" data-name="Grupo 12313">
        <g id="daughter">
          <path id="Trazado_10442" data-name="Trazado 10442" d="M881.843-970.653c-.719,5.643-3.971,9.891-4.688,9.735s-.428-2.011.049-2.785c-1.046.482-1.208,4.475-2.058,4.475-.924,0-1.6-3.7-1.164-4.584,1.482-2.987,4.47-8.475,5.4-8.512C880.582-972.372,881.963-971.595,881.843-970.653Z" fill="#f19e86"/>
          <path id="Trazado_10443" data-name="Trazado 10443" d="M875.391-962a1.767,1.767,0,0,1,.261-1.577,3.438,3.438,0,0,1,1.405-.812c.243-.048,1.048-.421,1.041-.16-.024.944-.928.972-1.231,1.76a2.321,2.321,0,0,0-.018.826c.178,1.471.944.694,1.682-.341a1.715,1.715,0,0,1,.143-1.477.624.624,0,0,1-.384-.776c.117-.487,1.389-1.224,1.721.287.5.31.966,2.374-.814,4.3a3.27,3.27,0,0,1-3.849.855A3.281,3.281,0,0,0,875.391-962Z" fill="#f5b48d"/>
          <g id="Grupo_12287" data-name="Grupo 12287">
            <path id="Trazado_10444" data-name="Trazado 10444" d="M878.919-963.663h.014a2.056,2.056,0,0,0,.827-.347.137.137,0,0,0,.044-.19.138.138,0,0,0-.19-.044,1.822,1.822,0,0,1-.709.306.138.138,0,0,0-.123.151A.138.138,0,0,0,878.919-963.663Z" fill="#e0937f"/>
          </g>
          <g id="Grupo_12288" data-name="Grupo 12288">
            <path id="Trazado_10445" data-name="Trazado 10445" d="M879.057-960.873a1.1,1.1,0,0,0,.5-.152.137.137,0,0,0,.059-.186.138.138,0,0,0-.186-.059c-.379.2-.485.116-.62.013a1.606,1.606,0,0,1-.142-.739.146.146,0,0,0-.141-.134.137.137,0,0,0-.135.141c0,.181.035.785.25.951A.661.661,0,0,0,879.057-960.873Z" fill="#e0937f"/>
          </g>
          <path id="Trazado_10446" data-name="Trazado 10446" d="M835.2-929.825c-1.317-.386-2.054-1-3.018-1.029-.883-.03-2.936.833-3.377,1.814-.27.6,1.765-.147,2.451,0s1.739.686,1.494.931-.645.228-1.429.375-.9.556-.9.752.818,0,1.291,0a7.057,7.057,0,0,0,2.629.087c1.323-.283,1.274-1.824,1.274-1.824Z" fill="#f5b48d"/>
          <path id="Trazado_10447" data-name="Trazado 10447" d="M846.664-912.9c.234,7.988-4.2,27.233-4.2,27.233s.555,1.767,1.993,1.5,9.73-16.564,10.077-25.883S846.664-912.9,846.664-912.9Z" fill="#f5b48d"/>
          <path id="Trazado_10448" data-name="Trazado 10448" d="M856.586-913.484c3.1,7.365,6.565,27.939,6.565,27.939a2.165,2.165,0,0,0,2.367.088c1.245-.765,2.477-19.388-.559-28.206S856.586-913.484,856.586-913.484Z" fill="#f5b48d"/>
          <path id="Trazado_10449" data-name="Trazado 10449" d="M846.034-942.9c-4.095,8.748-11.1,11.818-11.865,13.846-.2.524.081,1.1,1.348.765,3.642-.962,9.813-3.848,12.065-6.542C850.616-938.463,846.034-942.9,846.034-942.9Z" fill="#f5b48d"/>
          <path id="Trazado_10450" data-name="Trazado 10450" d="M852.019-950.112c-1.932-.864-7.417,6.578-8.051,8.1s4.815,5.7,6.657,4.818C853.388-938.524,852.019-950.112,852.019-950.112Z" fill="#1aa6ab"/>
          <path id="Trazado_10451" data-name="Trazado 10451" d="M859.664-950.1c5.123-.186,8.362,2.288,9.884,2.162s2.289,8.5-6.645,9.984C859.15-937.333,859.664-950.1,859.664-950.1Z" fill="#1aa6ab"/>
          <path id="Trazado_10452" data-name="Trazado 10452" d="M859.664-950.1c4.034,5.9,9.133,31.672,11.668,36.49s-31.992,7.037-30.217.19,5.5-31.224,10.9-36.69C853.478-951.589,859.664-950.1,859.664-950.1Z" fill="#232b59"/>
          <path id="Trazado_10453" data-name="Trazado 10453" d="M850.163-967.42c-2.673-1.705-3.717.308-3.942.774-.749,1.556.915,4.32,2.114,4.608.757.181.462-1.644,1.012-2.2,1.251-1.256,2.117-.7,2.241-.916A2.806,2.806,0,0,0,850.163-967.42Z" fill="#1d264d"/>
          <path id="Trazado_10454" data-name="Trazado 10454" d="M862.015-966.572c1.315,3.373,1.759,8.448-2.942,9.991-1.42.466-8.734-3.957-9.151-4.713a31.259,31.259,0,0,1,.128-5C850.493-970.867,860.252-971.093,862.015-966.572Z" fill="#232b59"/>
          <path id="Trazado_10455" data-name="Trazado 10455" d="M858.871-957.4c-.993,4.091-.325,7.9-.517,8.275-.55,1.088-3.956.9-4.945,0-.668-.606,1.045-7.537,1.045-7.537Z" fill="#f19e86"/>
          <path id="Trazado_10456" data-name="Trazado 10456" d="M850.081-965.139c-1.522,6.454.45,10.976,2.031,12.308,1.375,1.156,5.82-1.419,7.293-5.855,2.341-.485,2.107-3.116.444-2.133C859.4-968.569,850.643-967.522,850.081-965.139Z" fill="#f5b48d"/>
          <path id="Trazado_10457" data-name="Trazado 10457" d="M864.673-966.31a6.574,6.574,0,0,1,3.383,1.832c1.382,2.175-2.9,4.518-3.585,4.421-.278-.039-.742-2.2-1.489-3.04-.562-.634-2.741-.449-2.834-.906C860.037-964.547,861.743-966.6,864.673-966.31Z" fill="#232b59"/>
          <path id="Trazado_10458" data-name="Trazado 10458" d="M850.794-967.333c-3.233,1.522-2.463,4.413-1.2,5.278a1.318,1.318,0,0,1,.768-.347,2.707,2.707,0,0,1,.676-3.311,4.02,4.02,0,0,0-.064,3.255,12.648,12.648,0,0,1,2.982.379,5.785,5.785,0,0,1,1.15-2.416,6.267,6.267,0,0,0-.118,2.7,5.376,5.376,0,0,1,1.467-2.694,6.373,6.373,0,0,0-.8,2.889,13.154,13.154,0,0,0,4.193.78c1.82-1.207.987-5.519-4.205-7.275C854.481-968.487,850.794-967.333,850.794-967.333Z" fill="#232b59"/>
          <path id="Trazado_10459" data-name="Trazado 10459" d="M859.664-949.1c4.616,1.433,9.049,3.079,11.453,1.3,1.839-1.357,3.35-9.476,4.775-13.35,1.671,1.429,2.067-.984,2.215.8.445,5.359-1.648,16.665-3.974,17.708-1.559.7-9.069,1.541-12.413-1.376C860.4-945.168,859.664-949.1,859.664-949.1Z" fill="#f5b48d"/>
          <path id="Trazado_10460" data-name="Trazado 10460" d="M859.664-950.1c5.123-.186,8.362,2.288,9.884,2.162s-6.645,3.927-6.645,9.984C859.15-937.333,859.664-950.1,859.664-950.1Z" fill="#1aa6ab"/>
          <path id="Trazado_10461" data-name="Trazado 10461" d="M865.606-884.921c.686.032,1.16,2.009.939,2.531-.152.362-3.128,1.716-5.317,2.01s-2.3-.341-2.205-.711c.131-.539,3.381-4,4.165-4.048A16.221,16.221,0,0,1,865.606-884.921Z" fill="#0b3c5f"/>
          <path id="Trazado_10462" data-name="Trazado 10462" d="M866.38-888.929c.174,1.2-.547,3.986-.48,4.425.088.577-2.483,1.673-3.528,1.673s-.115-1.551.326-2.005c.24-.246-.147-4.093-.147-4.093a2.735,2.735,0,0,0,1.912.479A3.993,3.993,0,0,0,866.38-888.929Z" fill="#fff"/>
          <path id="Trazado_10463" data-name="Trazado 10463" d="M844.8-884.6c.607.323.188,2.312-.235,2.69-.292.261-3.561.211-5.665-.461s-2.573-1.1-2.411-1.443c.457-.977,5.492-2.313,6.22-2.017A16.168,16.168,0,0,1,844.8-884.6Z" fill="#0b3c5f"/>
          <path id="Trazado_10464" data-name="Trazado 10464" d="M847.216-887.886c-.356,1.157-2.2,3.368-2.328,3.793-.168.559-2.961.449-3.906,0s.561-1.452,1.154-1.672c.322-.12,1.224-4.191,1.224-4.191a4.579,4.579,0,0,0,1.918,1.68A4,4,0,0,0,847.216-887.886Z" fill="#fff"/>
        </g>
        <g id="dad">
          <path id="Trazado_10465" data-name="Trazado 10465" d="M889.282-1030.084c-6.2,4.046-6.664,36.813-6.664,39.688s-4.71,19.473-4.71,19.473.581,1.482,3.557,1.436,11.51-15.3,11.51-15.3Z" fill="#f4f4f4"/>
          <g id="Grupo_12294" data-name="Grupo 12294">
            <g id="Grupo_12292" data-name="Grupo 12292">
              <path id="Trazado_10466" data-name="Trazado 10466" d="M892.155-884.373c.745-.121.641,1.692.37,1.835-1.816.963-6.286,1.09-9.8,1.34-4.108.293-8.332.074-8.685-.544a1.5,1.5,0,0,1,.733-2.352c.675-.326,9.992-.9,10.205-.847S892.155-884.373,892.155-884.373Z" fill="#072b45"/>
              <path id="Trazado_10467" data-name="Trazado 10467" d="M887.578-897.25a37.734,37.734,0,0,1-2.147,8.834c-.188.4-2.2,2.682-1.1,3.852a4.128,4.128,0,0,0,7.02-2.2c-1.111-4.508,1.931-8.5,1.931-9.843S887.658-898.685,887.578-897.25Z" fill="#f5b48d"/>
              <path id="Trazado_10468" data-name="Trazado 10468" d="M891.331-888.867c-.106,2.542,1.372,3.041.8,5.05-.3,1.039-15.214,2.721-17.353,1.332-1.138-.739-.126-1.581,1.16-2.121,1.5-.628,5.124-2.126,6.518-2.744,1.878-.833,2.313-2.435,2.7-2.157.906.656.5,3.662,1.231,4.051,1.488.793,4.051-2.866,4.62-3.523C891.155-889.154,891.339-889.065,891.331-888.867Z" fill="#0b3c5f"/>
              <path id="Trazado_10469" data-name="Trazado 10469" d="M928.654-896.347a16.6,16.6,0,0,1,.451,8.889c-.192.475-1.9,5.853,2.866,4.374,3.1-.962,3.718-2.021,3.325-2.672-1.91-3.166-.85-9.038-.85-10.317S928.179-897.585,928.654-896.347Z" fill="#f5b48d"/>
              <path id="Trazado_10470" data-name="Trazado 10470" d="M936.059-883.452c.6-.136.384,1.978.22,2.2a19.934,19.934,0,0,1-6.9.856c-3.154-.08-5.157-.249-5.412-.834a2.42,2.42,0,0,1,.683-2.059c.54-.344,5.749-.667,5.925-.62S936.059-883.452,936.059-883.452Z" fill="#072b45"/>
              <path id="Trazado_10471" data-name="Trazado 10471" d="M929.95-889.042c-.69.024-1.691,1.56-2.246,3.175-.645.682-1.821.928-2.435,1.839-.427.633-.965,1.748-.734,2.049.8,1.05,11.052.873,11.419-.073.478-1.23-.523-2.356-.667-3.568-.132-1.111,0-1.666-.389-2.253-.121-.182-.426-.072-.415.277.024.767.141,2.122-.966,2.278C932.561-888.135,931.085-889.081,929.95-889.042Z" fill="#0b3c5f"/>
              <g id="Grupo_12291" data-name="Grupo 12291">
                <g id="Grupo_12290" data-name="Grupo 12290">
                  <g id="Grupo_12289" data-name="Grupo 12289" clip-path="url(#clip-path)">
                    <rect id="Rectángulo_3272" data-name="Rectángulo 3272" width="24.057" height="97.732" transform="translate(885.712 -990.396)" fill="#2d6c9c"/>
                    <path id="Trazado_10472" data-name="Trazado 10472" d="M909.892-967.52v47.2h.277q-.45.207-.907.387a17.014,17.014,0,0,1-1.843.613,14.714,14.714,0,0,1-7.535.1c-5-1.278-8.838-5.139-11-10.347A29.524,29.524,0,0,1,887.947-948a29.527,29.527,0,0,1,9.669-15.72,19.5,19.5,0,0,1,7.08-3.7,15.424,15.424,0,0,1,3.759-.538,14.435,14.435,0,0,1,1.892.094h-.455Z" fill="#2d6c9c"/>
                    <path id="Trazado_10473" data-name="Trazado 10473" d="M909.892-966.959v46.106h.181c-.293.134-.588.261-.886.378a16.641,16.641,0,0,1-1.8.6,14.376,14.376,0,0,1-7.359.094c-9.77-2.5-14.99-15.083-11.66-28.11a28.835,28.835,0,0,1,9.445-15.354,19,19,0,0,1,6.915-3.618,15.046,15.046,0,0,1,3.672-.526,13.931,13.931,0,0,1,1.847.092h-.355Z" fill="#2e6b9b"/>
                    <path id="Trazado_10474" data-name="Trazado 10474" d="M909.892-966.4v45.007h.086q-.431.2-.865.37a16.356,16.356,0,0,1-1.757.584,14.034,14.034,0,0,1-7.185.091c-9.537-2.438-14.633-14.723-11.382-27.44a28.154,28.154,0,0,1,9.22-14.989,18.578,18.578,0,0,1,6.75-3.532,14.726,14.726,0,0,1,3.585-.513,13.791,13.791,0,0,1,1.8.09h-.256Z" fill="#2c6b9a"/>
                    <path id="Trazado_10475" data-name="Trazado 10475" d="M909.892-965.835v43.5h.823A16.607,16.607,0,0,1,907.324-921a13.685,13.685,0,0,1-7.009.089c-9.3-2.378-14.276-14.364-11.1-26.771a27.467,27.467,0,0,1,8.995-14.623,18.112,18.112,0,0,1,6.586-3.445,14.3,14.3,0,0,1,3.5-.5,13.459,13.459,0,0,1,1.76.087h-.156Z" fill="#2d6a99"/>
                    <path id="Trazado_10476" data-name="Trazado 10476" d="M909.892-965.274v42.413h.707a16.183,16.183,0,0,1-3.307,1.306,13.345,13.345,0,0,1-6.833.087c-9.072-2.319-13.92-14.005-10.828-26.1a26.786,26.786,0,0,1,8.771-14.258,17.653,17.653,0,0,1,6.421-3.359,13.927,13.927,0,0,1,3.409-.488,13.138,13.138,0,0,1,1.716.085h-.056Z" fill="#2c6998"/>
                    <path id="Trazado_10477" data-name="Trazado 10477" d="M909.892-964.712v41.325h.59a15.85,15.85,0,0,1-3.221,1.273,13.014,13.014,0,0,1-6.659.084c-8.839-2.259-13.562-13.646-10.549-25.432a26.084,26.084,0,0,1,8.545-13.892,17.228,17.228,0,0,1,6.256-3.274,13.617,13.617,0,0,1,3.323-.475,12.634,12.634,0,0,1,1.671.083q.418.048.834.125h-.79Z" fill="#2c6997"/>
                    <path id="Trazado_10478" data-name="Trazado 10478" d="M909.892-964.151v40.238h.474a15.337,15.337,0,0,1-3.137,1.239,12.665,12.665,0,0,1-6.483.083c-8.607-2.2-13.206-13.287-10.272-24.764a25.4,25.4,0,0,1,8.32-13.526,16.762,16.762,0,0,1,6.092-3.187,13.2,13.2,0,0,1,3.235-.463,12.336,12.336,0,0,1,1.628.08c.271.032.541.073.812.123h-.669Z" fill="#2d6896"/>
                    <path id="Trazado_10479" data-name="Trazado 10479" d="M909.892-963.589v39.15h.357a14.939,14.939,0,0,1-3.052,1.206,12.33,12.33,0,0,1-6.308.08c-8.374-2.141-12.848-12.928-9.994-24.094a24.712,24.712,0,0,1,8.1-13.161,16.3,16.3,0,0,1,5.927-3.1,12.9,12.9,0,0,1,3.147-.45,11.993,11.993,0,0,1,1.584.078c.264.031.527.07.79.119h-.547Z" fill="#2b6795"/>
                    <path id="Trazado_10480" data-name="Trazado 10480" d="M909.892-963.027v38.062h.241a14.491,14.491,0,0,1-2.967,1.172,11.972,11.972,0,0,1-6.133.078c-8.142-2.081-12.492-12.568-9.717-23.424a24.035,24.035,0,0,1,7.871-12.8,15.841,15.841,0,0,1,5.762-3.014,12.5,12.5,0,0,1,3.06-.438,11.509,11.509,0,0,1,1.54.076q.384.045.768.115h-.425Z" fill="#2d6694"/>
                    <path id="Trazado_10481" data-name="Trazado 10481" d="M909.892-962.466v36.975h.124a14.092,14.092,0,0,1-2.882,1.139,11.648,11.648,0,0,1-5.958.076c-7.908-2.022-12.134-12.21-9.439-22.756a23.346,23.346,0,0,1,7.646-12.429,15.4,15.4,0,0,1,5.6-2.929,12.216,12.216,0,0,1,2.973-.426,11.346,11.346,0,0,1,1.495.075q.374.044.746.112h-.3Z" fill="#2a6693"/>
                    <path id="Trazado_10482" data-name="Trazado 10482" d="M909.892-961.9v35.887h.008a13.7,13.7,0,0,1-2.8,1.106,11.3,11.3,0,0,1-5.782.073c-7.676-1.962-11.778-11.85-9.161-22.086a22.658,22.658,0,0,1,7.42-12.064,14.95,14.95,0,0,1,5.434-2.843,11.843,11.843,0,0,1,2.885-.413,11.209,11.209,0,0,1,1.452.072c.241.028.483.065.724.109h-.182Z" fill="#2b6592"/>
                    <path id="Trazado_10483" data-name="Trazado 10483" d="M909.892-961.342v34.434h.548q-.325.192-.656.366a13.33,13.33,0,0,1-2.713,1.071,10.957,10.957,0,0,1-5.608.072c-7.443-1.9-11.421-11.492-8.883-21.417s10.628-16.429,18.072-14.526Z" fill="#2a6491"/>
                    <path id="Trazado_10484" data-name="Trazado 10484" d="M909.892-960.781v33.358h.411c-.21.124-.422.243-.636.355a12.879,12.879,0,0,1-2.628,1.038,10.607,10.607,0,0,1-5.432.069C894.4-927.8,890.543-937.093,893-946.709s10.3-15.915,17.507-14.072Z" fill="#2a6490"/>
                    <path id="Trazado_10485" data-name="Trazado 10485" d="M909.892-960.219v32.282h.274c-.2.12-.409.234-.615.343a12.508,12.508,0,0,1-2.544,1.005,10.269,10.269,0,0,1-5.256.066c-6.979-1.784-10.708-10.773-8.329-20.078s9.964-15.4,16.942-13.618Z" fill="#2b638f"/>
                    <path id="Trazado_10486" data-name="Trazado 10486" d="M909.892-959.658v30.841h.722a13.666,13.666,0,0,1-1.18.7,12.037,12.037,0,0,1-2.458.971,9.927,9.927,0,0,1-5.082.065c-6.746-1.725-10.35-10.414-8.051-19.409s9.632-14.889,16.378-13.165Z" fill="#2a628e"/>
                    <path id="Trazado_10487" data-name="Trazado 10487" d="M909.892-959.1v29.777h.565a13.133,13.133,0,0,1-1.139.673,11.664,11.664,0,0,1-2.374.938,9.587,9.587,0,0,1-4.906.062c-6.513-1.665-9.994-10.055-7.774-18.74s9.3-14.375,15.813-12.71Z" fill="#2a628d"/>
                    <path id="Trazado_10488" data-name="Trazado 10488" d="M909.892-958.534v28.713h.408q-.54.355-1.1.649a11.173,11.173,0,0,1-2.289.9,9.231,9.231,0,0,1-4.731.06c-6.28-1.6-9.636-9.7-7.5-18.07s8.967-13.862,15.248-12.256Z" fill="#28618c"/>
                    <path id="Trazado_10489" data-name="Trazado 10489" d="M909.79-957.973c.189.048.375.1.559.163h-.457v27.487h.251q-.52.344-1.058.625a10.816,10.816,0,0,1-2.2.871,8.906,8.906,0,0,1-4.556.058c-6.048-1.546-9.28-9.337-7.218-17.4S903.742-959.519,909.79-957.973Z" fill="#2a608b"/>
                    <path id="Trazado_10490" data-name="Trazado 10490" d="M909.647-957.411a8.4,8.4,0,0,1,1.058.347h-.813v26.239h.094a11.619,11.619,0,0,1-1.017.6,10.421,10.421,0,0,1-2.12.838,8.561,8.561,0,0,1-4.381.055c-5.815-1.486-8.922-8.977-6.94-16.732S903.831-958.9,909.647-957.411Z" fill="#2a608a"/>
                    <path id="Trazado_10491" data-name="Trazado 10491" d="M909.5-956.85a8.046,8.046,0,0,1,1.016.334h-.627v24.86h.412q-.236.171-.475.329a11.2,11.2,0,0,1-.977.577,9.96,9.96,0,0,1-2.035.8,8.222,8.222,0,0,1-4.205.054c-5.583-1.427-8.566-8.619-6.663-16.063S903.92-958.277,909.5-956.85Z" fill="#285f89"/>
                    <path id="Trazado_10492" data-name="Trazado 10492" d="M909.359-956.288a7.6,7.6,0,0,1,.974.32h-.441v23.482h.681a8.93,8.93,0,0,1-7.817,2.032c-5.351-1.368-8.209-8.259-6.386-15.393S904.009-957.656,909.359-956.288Z" fill="#295e88"/>
                    <path id="Trazado_10493" data-name="Trazado 10493" d="M909.216-955.726a7.136,7.136,0,0,1,.931.306h-.255v22.461h.484a8.538,8.538,0,0,1-7.477,1.943c-5.117-1.308-7.852-7.9-6.107-14.724S904.1-957.035,909.216-955.726Z" fill="#295e87"/>
                    <path id="Trazado_10494" data-name="Trazado 10494" d="M909.072-955.165a6.948,6.948,0,0,1,.889.292h-.069v21.44h.288a8.154,8.154,0,0,1-7.137,1.856c-4.885-1.249-7.5-7.541-5.83-14.055S904.187-956.414,909.072-955.165Z" fill="#285d84"/>
                    <path id="Trazado_10495" data-name="Trazado 10495" d="M908.929-954.6a6.61,6.61,0,0,1,1.639.662h-.676v20.035h.092a7.765,7.765,0,0,1-6.8,1.767c-4.652-1.189-7.138-7.182-5.552-13.385S904.277-955.792,908.929-954.6Z" fill="#275c83"/>
                    <path id="Trazado_10496" data-name="Trazado 10496" d="M908.785-954.042a6.353,6.353,0,0,1,1.558.629h-.451v18.408h.6q-.345.333-.71.626a7.375,7.375,0,0,1-6.457,1.679c-4.42-1.13-6.781-6.823-5.275-12.717S904.366-955.171,908.785-954.042Z" fill="#285b83"/>
                    <path id="Trazado_10497" data-name="Trazado 10497" d="M908.642-953.48a5.976,5.976,0,0,1,1.475.6h-.225v17.439h.372c-.218.21-.443.408-.673.593a6.991,6.991,0,0,1-6.118,1.59c-4.187-1.07-6.424-6.464-5-12.047S904.455-954.55,908.642-953.48Z" fill="#285b82"/>
                    <path id="Trazado_10498" data-name="Trazado 10498" d="M908.5-952.918a5.6,5.6,0,0,1,1.393.563,5.977,5.977,0,0,1,.627.41h-.626v15.43h.738a9.857,9.857,0,0,1-1.235,1.189,6.6,6.6,0,0,1-5.778,1.5c-3.954-1.01-6.067-6.1-4.72-11.377S904.544-953.929,908.5-952.918Z" fill="#275a81"/>
                    <path id="Trazado_10499" data-name="Trazado 10499" d="M908.354-952.357a5.3,5.3,0,0,1,1.312.53,5.582,5.582,0,0,1,.589.386h-.363v14.523h.469A9.262,9.262,0,0,1,909.2-935.8a6.215,6.215,0,0,1-5.438,1.414c-3.721-.952-5.71-5.746-4.441-10.709S904.633-953.308,908.354-952.357Z" fill="#285981"/>
                    <path id="Trazado_10500" data-name="Trazado 10500" d="M908.211-951.795a5.14,5.14,0,0,1,2.29,1.29h-.609v13.183h.2a8.675,8.675,0,0,1-1.09,1.05,5.823,5.823,0,0,1-5.1,1.325c-3.489-.892-5.354-5.386-4.164-10.039S904.722-952.687,908.211-951.795Z" fill="#285980"/>
                    <path id="Trazado_10501" data-name="Trazado 10501" d="M908.067-951.234a4.8,4.8,0,0,1,2.138,1.205h-.313v11.107h.816a8.688,8.688,0,0,1-1.9,2.177,5.436,5.436,0,0,1-4.758,1.237c-3.257-.833-5-5.028-3.887-9.37S904.811-952.066,908.067-951.234Z" fill="#255980"/>
                    <path id="Trazado_10502" data-name="Trazado 10502" d="M907.924-950.672a4.442,4.442,0,0,1,1.984,1.119h-.016v10.314h.484a8.037,8.037,0,0,1-1.767,2.02,5.044,5.044,0,0,1-4.418,1.149c-3.024-.773-4.64-4.668-3.609-8.7S904.9-951.445,907.924-950.672Z" fill="#24577f"/>
                    <path id="Trazado_10503" data-name="Trazado 10503" d="M907.78-950.11a4.106,4.106,0,0,1,1.832,1.032,4.99,4.99,0,0,1,.7.841h-.42v8.68h.152a7.436,7.436,0,0,1-1.631,1.865,4.657,4.657,0,0,1-4.078,1.06c-2.792-.713-4.283-4.309-3.332-8.031S904.989-950.824,907.78-950.11Z" fill="#24577e"/>
                    <path id="Trazado_10504" data-name="Trazado 10504" d="M907.637-949.549a4.27,4.27,0,0,1,2.813,2.647h-.558v4.715h.8c-.872,3.412-3.653,5.648-6.212,4.994s-3.926-3.95-3.053-7.362S905.078-950.2,907.637-949.549Z" fill="#25567d"/>
                    <path id="Trazado_10505" data-name="Trazado 10505" d="M907.493-948.987a3.884,3.884,0,0,1,2.558,2.406h-.159v4.287h.377c-.793,3.1-3.321,5.134-5.647,4.539s-3.569-3.591-2.776-6.693S905.167-949.582,907.493-948.987Z" fill="#24557c"/>
                    <path id="Trazado_10506" data-name="Trazado 10506" d="M907.35-948.425c2.093.535,3.212,3.232,2.5,6.023s-2.989,4.621-5.083,4.086-3.212-3.232-2.5-6.024S905.256-948.961,907.35-948.425Z" fill="#24557b"/>
                    <path id="Trazado_10507" data-name="Trazado 10507" d="M907.206-947.864c1.861.476,2.855,2.873,2.221,5.354s-2.657,4.108-4.518,3.632-2.855-2.873-2.221-5.354S905.345-948.34,907.206-947.864Z" fill="#25547a"/>
                    <path id="Trazado_10508" data-name="Trazado 10508" d="M907.062-947.3c1.629.416,2.5,2.513,1.944,4.685s-2.325,3.594-3.953,3.177-2.5-2.513-1.944-4.685S905.434-947.718,907.062-947.3Z" fill="#235379"/>
                    <path id="Trazado_10509" data-name="Trazado 10509" d="M906.919-946.741c1.4.357,2.141,2.155,1.666,4.016s-1.993,3.081-3.389,2.724-2.141-2.155-1.666-4.016S905.523-947.1,906.919-946.741Z" fill="#225278"/>
                    <path id="Trazado_10510" data-name="Trazado 10510" d="M906.775-946.179c1.163.3,1.785,1.8,1.388,3.346s-1.66,2.567-2.823,2.27-1.785-1.795-1.388-3.346S905.612-946.476,906.775-946.179Z" fill="#225277"/>
                    <path id="Trazado_10511" data-name="Trazado 10511" d="M906.632-945.617a2.092,2.092,0,0,1,1.11,2.677c-.317,1.24-1.328,2.053-2.259,1.815a2.092,2.092,0,0,1-1.11-2.677C904.69-945.042,905.7-945.855,906.632-945.617Z" fill="#235176"/>
                    <path id="Trazado_10512" data-name="Trazado 10512" d="M906.488-945.056a1.57,1.57,0,0,1,.833,2.008c-.238.931-1,1.54-1.694,1.362a1.57,1.57,0,0,1-.833-2.008C905.032-944.624,905.79-945.234,906.488-945.056Z" fill="#225075"/>
                    <path id="Trazado_10513" data-name="Trazado 10513" d="M906.345-944.494a1.046,1.046,0,0,1,.555,1.338c-.159.621-.664,1.027-1.13.908a1.046,1.046,0,0,1-.555-1.338C905.374-944.207,905.879-944.613,906.345-944.494Z" fill="#225074"/>
                    <path id="Trazado_10514" data-name="Trazado 10514" d="M906.2-943.933a.524.524,0,0,1,.278.67c-.08.31-.332.513-.565.454a.524.524,0,0,1-.278-.67C905.716-943.789,905.968-943.992,906.2-943.933Z" fill="#234f73"/>
                  </g>
                </g>
              </g>
              <path id="Trazado_10515" data-name="Trazado 10515" d="M923.961-981.224c2.583,12.515,4,35.464,4.005,46.656,3.627,2.756,5.984,6.167,6.384,7.77,1.99,7.973.49,31.382.49,32.316-.667,1.246-6.27,2.5-6.212.388-7.261-30.642-9.839-30.7-11.92-36.2-8.478-22.4-19.184-47.663-19.184-47.663Z" fill="#2d6c9c"/>
            </g>
            <path id="Trazado_10516" data-name="Trazado 10516" d="M905.226-1034.946c3.87.6,21.46,1.011,26.236,8.207,2.012,3.032-5.831,46.933-7.035,48.262-1.93,2.128-27.423,4.992-31.4,0-1.127-1.416-11.495-45.081-3.745-51.607C893.2-1033.382,905.226-1034.946,905.226-1034.946Z" fill="#fff"/>
            <path id="Trazado_10517" data-name="Trazado 10517" d="M894.983-1055.4a6.343,6.343,0,0,1-.2,1.354c-.462,5.4,3.222,6.487,6.829,7.107,4.677.8,9.28,5.68,10.986-5.067.763-4.8-2.661-11.534-8.328-9.759-2.593.812-1.381-2.015-6.832-.973C891.282-1061.564,894.825-1056.583,894.983-1055.4Z" fill="#232b59"/>
            <path id="Trazado_10518" data-name="Trazado 10518" d="M908.91-1047.469c.041.365,1.1-4.041,1.147-3.639.709,6.036,2.117,15.784,2.526,16.767.437,1.048-3.823,3.383-6.9,3.406-4.242.031-6.725-1.572-6.725-2.533s1.4-10.67,1.4-10.67l3.322-7.351Z" fill="#f19e86"/>
            <path id="Trazado_10519" data-name="Trazado 10519" d="M900.8-1055.223c-1.1.495-2.233-1.213-2.94-.392-.989,1.147-1.445,2.167-1.307,5.1.25,5.309,3.063,11.329,4.9,11.434,5.685.327,8.013-7.125,8.07-7.481a11.126,11.126,0,0,0,.291-3.11c1.231-.145,1.409-2.789.753-3.4-1.577-1.478-.683,4.822-1.969,4.762-1.876-.088-.375-5.43-2.332-7.155C905.054-1056.543,903.52-1056.453,900.8-1055.223Z" fill="#f5b48d"/>
            <path id="Trazado_10520" data-name="Trazado 10520" d="M899.341-1036.82c-.481-.177-2.673,3.253-2.81,4.021s3.978,5.57,4.959,5.08,1.759-2.46,2.144-2.613c.6-.24.961,3.1,2.152,3.1s10.167-3.892,10.222-6.447c.006-.291-3.986-4.93-4.217-4.81-.529.274-4.068,3.54-8.39,3.54C901.147-1034.946,899.759-1036.666,899.341-1036.82Z" fill="#fff"/>
            <path id="Trazado_10521" data-name="Trazado 10521" d="M903.719-1033.73l-1.8,5.315s.563,2.264.9,3.244c-.9,1.765-3.279,25.352,0,33.454a55.3,55.3,0,0,0,5.523-8.363s-4.728-18.295-4.205-25.091a23.086,23.086,0,0,0,1.12-3.727Z" fill="#2d6c9c"/>
            <g id="Grupo_12293" data-name="Grupo 12293">
              <path id="Trazado_10522" data-name="Trazado 10522" d="M905.786-1026.953a.292.292,0,0,0,.077-.01c.3-.086,7.347-2.146,10.086-5.728a.276.276,0,0,0-.051-.387.277.277,0,0,0-.388.051c-2.344,3.065-8.24,5.046-9.543,5.454l-1.985-6.241a.277.277,0,0,0-.261-.193.291.291,0,0,0-.264.188l-2.09,6.164c-.872-.59-3.458-2.485-4.463-4.825a.276.276,0,0,0-.363-.145.277.277,0,0,0-.145.363c1.282,2.983,4.824,5.177,4.974,5.269a.273.273,0,0,0,.238.024.279.279,0,0,0,.168-.171l1.934-5.7,1.813,5.7A.277.277,0,0,0,905.786-1026.953Z" fill="#ededed"/>
            </g>
          </g>
          <path id="Trazado_10523" data-name="Trazado 10523" d="M931.462-1026.739c8.065,10.745,10.76,29.568,10.69,35.022-.071,5.519-11.141,21.022-15.551,22.443-1.989.641-4.088-.836-3.839-2.693.294-2.19,7.367-17.545,7.367-21.27s-5.1-14.47-6.272-19.486S926.914-1032.8,931.462-1026.739Z" fill="#8089e8"/>
          <g id="Grupo_12295" data-name="Grupo 12295">
            <path id="Trazado_10524" data-name="Trazado 10524" d="M928.386-999.633a.275.275,0,0,0,.1-.017.277.277,0,0,0,.162-.356c-2.3-6.116-4.514-12.669-4.133-19.631a.276.276,0,0,0-.261-.291.28.28,0,0,0-.291.261c-.387,7.069,1.846,13.685,4.167,19.855A.276.276,0,0,0,928.386-999.633Z" fill="#5b65cf"/>
          </g>
          <path id="Trazado_10525" data-name="Trazado 10525" d="M923.529-972.982c-2.277,2.84-4.006,5.883-3.985,7.6.007.565.326,3.668,1.992,4.961s2.974-3.9,2.843-4.244,1.819-1.843,1.83-6.027C926.215-972.982,924.08-973.669,923.529-972.982Z" fill="#f19e86"/>
          <g id="Grupo_12296" data-name="Grupo 12296">
            <path id="Trazado_10526" data-name="Trazado 10526" d="M924.445-958.057a.367.367,0,0,0,.358-.284.368.368,0,0,0-.275-.443c-5.319-1.245-5.262-7.94-4.618-13.634a.368.368,0,0,0-.325-.407.367.367,0,0,0-.408.325c-.4,3.522-1.456,12.879,5.184,14.434A.4.4,0,0,0,924.445-958.057Z" fill="#245780"/>
          </g>
        </g>
        <g id="mom_and_son" data-name="mom and son">
          <path id="Trazado_10527" data-name="Trazado 10527" d="M935.255-1018.72c-.6-.851-8.414-4.209-8.983-5.282-.622-1.175.036-19.23.529-21.234,1.7-6.93,7.646-10.912,13.231-8.012,10.749,5.582,6.183,28.016,5.995,28.3C945.228-1023.765,939.167-1013.83,935.255-1018.72Z" fill="#232b59"/>
          <path id="Trazado_10528" data-name="Trazado 10528" d="M939.982-1027.391c7.044-.626,15.883,3.221,18.709,7.53s11.266,19.521,10.466,24.8-7.053,11.16-10.466,11.073-4.6-6.072-5.516-5.086c-.548.591,1.582,3.748-2.443,5.936s-30.674,7.576-31.278,1.1,1.279-5.841-.6-6.474-7.248.337-8.7-3.65c-2.536-6.949,4.58-28.465,10.42-31.951C928.48-1028.831,939.982-1027.391,939.982-1027.391Z" fill="#f87314"/>
          <g id="Grupo_12297" data-name="Grupo 12297">
            <path id="Trazado_10529" data-name="Trazado 10529" d="M923.844-881.035l-1.093-.469s.493-2.594-.422-2.884,2.042-.87,2.042-.87l.634,2.136Z" fill="#062338"/>
            <path id="Trazado_10530" data-name="Trazado 10530" d="M910.7-880.986a59.755,59.755,0,0,0,9.307,0c.537-.212,1.06-2.631,2.929-2.77,1.678-.125.388,2.777.911,2.721,3.277-.351,4.011-.232,3.945-.5-1.005-4.024,2.537-4.288-.165-8.5a8.611,8.611,0,0,1-4.742-.882c-2.342,1.572-4.925,5.744-5.624,6.177C915.6-883.709,910.91-883.075,910.7-880.986Z" fill="#0b3c60"/>
          </g>
          <g id="Grupo_12298" data-name="Grupo 12298">
            <path id="Trazado_10531" data-name="Trazado 10531" d="M955.578-882.178l-1.387-1.094s.134-2.022-.643-2.271,2.211-.907,2.211-.907l.628,2.9Z" fill="#062338"/>
            <path id="Trazado_10532" data-name="Trazado 10532" d="M942.561-880.034a11.65,11.65,0,0,0,5.368.189,13.363,13.363,0,0,0,4.9-1.718c.516-.411.632-3.044,1.228-3.239,2.271-.741,1.243,2.69,1.522,2.624,2.761-.642,3.247-.926,3.2-1.163-.575-2.9.647-4.213-1.8-6.827-1.05.494-4.524-1.061-4.7-1.361-2.04,1.915-4.381,7.315-4.987,7.8C945.847-882.587,942.528-882.01,942.561-880.034Z" fill="#0b3c60"/>
          </g>
          <g id="Grupo_12301" data-name="Grupo 12301">
            <g id="Grupo_12300" data-name="Grupo 12300">
              <g id="Grupo_12299" data-name="Grupo 12299" clip-path="url(#clip-path-2)">
                <rect id="Rectángulo_3273" data-name="Rectángulo 3273" width="25.775" height="105.962" transform="translate(916.98 -994.756)" fill="#6b614f"/>
                <path id="Trazado_10533" data-name="Trazado 10533" d="M932.249-945.982c-.571,3.141.482,5.963,2.353,6.3s3.849-1.931,4.421-5.072-.483-5.963-2.353-6.3" fill="#6a5dcd"/>
                <path id="Trazado_10534" data-name="Trazado 10534" d="M936.411-949.632c-1.4-.255-2.887,1.448-3.315,3.8s.361,4.472,1.764,4.727,2.887-1.448,3.316-3.8S937.814-949.377,936.411-949.632Z" fill="#685dcc"/>
                <path id="Trazado_10535" data-name="Trazado 10535" d="M936.153-948.21c-.936-.17-1.925.965-2.211,2.536s.241,2.981,1.177,3.151,1.925-.965,2.21-2.536S937.088-948.04,936.153-948.21Z" fill="#695ccb"/>
                <path id="Trazado_10536" data-name="Trazado 10536" d="M935.894-946.788c-.467-.085-.962.482-1.1,1.268s.121,1.49.588,1.575.963-.482,1.1-1.268S936.362-946.7,935.894-946.788Z" fill="#675cca"/>
              </g>
            </g>
          </g>
          <path id="Trazado_10537" data-name="Trazado 10537" d="M936.538-937.941c-2.287-5.62,1.637-31.708-6.885-56.224,5.486-1.774,13.9-.222,15.573,1.671,3.241,3.672,9.371,12.023,10.2,17.478,1.216,7.971-8.055,33.163-7.949,35.17.063,1.2,3.425,5.24,5.357,7.928,6.53,9.081,2.733,35.629,4.141,41.8.075.326-5.493,1.422-5.309-.759C943.781-915.29,937.941-934.492,936.538-937.941Z" fill="#6b614f"/>
          <path id="Trazado_10538" data-name="Trazado 10538" d="M941.206-1025.315c1.905.857,4.657,5.792,5.313,7.977,1.019,3.389-3.673,12.606-.087,24.077,1.866,5.969-22.7,6.18-22.33,3.936,1.256-7.717-.89-23.187-.067-27.282a16.929,16.929,0,0,1,7.171-9.625C933.348-1027.388,936.147-1027.591,941.206-1025.315Z" fill="#fdf1c7"/>
          <path id="Trazado_10539" data-name="Trazado 10539" d="M938.5-1039.516c.284,4.45,1.952,12.8,2.7,14.2,1.059,1.977-4.667,3.86-7.068,3.225s-3.106-1.906-3.177-2.754,2.017-7.312,2.523-13.267C933.887-1042.858,938.387-1041.331,938.5-1039.516Z" fill="#f19e86"/>
          <path id="Trazado_10540" data-name="Trazado 10540" d="M930.287-1049.078c-3.982,6.549-2.234,16.477,1.711,17.406,2.281.536,8.436-3.062,8.07-8.25a2.331,2.331,0,0,0,2.153-3.059c-.876-1.7-2.26.027-2.26.027Z" fill="#f5b48d"/>
          <g id="Grupo_12302" data-name="Grupo 12302">
            <path id="Trazado_10541" data-name="Trazado 10541" d="M950.956-985.293c1.322,3.155,3.294,12.492,4.589,15.505.993,2.312,1.127,2.353,2.075,1.561s1.2-2.809,2.12-4.535.685-3.26-1.3-4.042,0-8.489,0-8.489Z" fill="#232b59"/>
            <path id="Trazado_10542" data-name="Trazado 10542" d="M960.325-974.748a2.408,2.408,0,0,0-1.606-2.047,3.367,3.367,0,0,0-2.491,1.581c-.626,1.085-1.462,1.614-2.005,1.495-.243-.053.091,1.173.179,2.561.108,1.716-.176,3.738,1.317,3.818C956.206-969.3,960.325-974.748,960.325-974.748Z" fill="#595041"/>
            <path id="Trazado_10543" data-name="Trazado 10543" d="M960.042-975.491c1.02.625-.1,5.824-2.161,7.667-.845.753-3.02.845-3.064-.338-.078-2.074,1.55-2.557,2.247-3.937.461-.91.416-1.96.864-2.644C958.528-975.659,959.32-975.933,960.042-975.491Z" fill="#a99b7e"/>
          </g>
          <g id="Grupo_12303" data-name="Grupo 12303">
            <path id="Trazado_10544" data-name="Trazado 10544" d="M941.608-988.98c-1.05,3.12,2.036,12.758,2.2,16.689a16.543,16.543,0,0,1-.2,4.441c-.818,3.175,1.277,3.44,2.293,2.738s1.506-2.474,2.575-4.11,1.713-2.915,0-4.186c-2.317-1.718,1.929-12.282,1.929-12.282Z" fill="#232b59"/>
            <path id="Trazado_10545" data-name="Trazado 10545" d="M950.2-970.877c.332-1.138-1.189-2.542-1.47-2.641-.857-.3-1.612.223-2.514,1.093s-1.852,1.147-2.34.882-1.554,6.083.486,6.926C945.371-966.369,950.2-970.877,950.2-970.877Z" fill="#595041"/>
            <path id="Trazado_10546" data-name="Trazado 10546" d="M949.956-971.635c.471.8.227,1.385-.446,2.205-.4.489-1.072.768-1.364,1.254-.781,1.3-1.4,3.558-2.8,3.784s-2.1-1.1-1.9-2.267C943.728-968.242,948.724-973.738,949.956-971.635Z" fill="#a99b7e"/>
          </g>
          <path id="Trazado_10547" data-name="Trazado 10547" d="M963.458-982.8c-2.96,1.319-14.7.451-15.4,1.55-.742,1.162-3.155,2.572-6.185,2.781-3.17.218-4.736-4.4-4.229-5.092.664-.914,1.8-.351,1.62-2.152-.062-.627.795-.071,1.849.085,1.315.2,1.772-.421,2.767-.175a19.1,19.1,0,0,1,2.516.868c.815.222,17.168-8.878,19.645-7.906S969.937-985.69,963.458-982.8Z" fill="#f5b48d"/>
          <path id="Trazado_10548" data-name="Trazado 10548" d="M966.95-994.945c1.225,4.9.945,6.649-.323,8.973s-9.93,2.92-13.522,1.988-3.293-.784-5.28-1.889-7.034-1-6.16-3.286c1.622-4.236,13.423-4.56,13.423-4.56Z" fill="#232b59"/>
          <path id="Trazado_10549" data-name="Trazado 10549" d="M965.2-1014.265c5.149,1.989,8.709,9.366,8.5,10.611-.879,5.287-9.19,5.851-9.19,5.851Z" fill="#f5c247"/>
          <path id="Trazado_10550" data-name="Trazado 10550" d="M965.2-1014.265c3.7,1.181,5.791,21.349,2.921,25.285-2.32,3.18-17.217-1.1-16.559-4.449.711-3.617-.628-17.681,1.273-19.721S959.829-1015.982,965.2-1014.265Z" fill="#fbd047"/>
          <path id="Trazado_10551" data-name="Trazado 10551" d="M953.39-1024.439c.449-.206.254-1.252.376-1.986.065.592,4.126-1.368,6.319,0,1.8,1.122,1.742,5.617,2.268,5.982.733.059.316,5.078-1.312,5.977-1.991,1.1-4.872.725-5.15-.124a5.26,5.26,0,0,1-.3-1.245,2.893,2.893,0,0,1-2.306-.361C951.842-1017.384,949.513-1022.664,953.39-1024.439Z" fill="#f5b48d"/>
          <path id="Trazado_10552" data-name="Trazado 10552" d="M953.714-1025.987c-1.747-1.177.55-6.2,5.832-5.579,5.507.648,9.4,3.995,9.4,7.874,0,5.224-4.663,7.878-6.2,8.9s-4.169-.572-4.925-1.544-.54-4.535-.108-5.075,1.908-2.592,1.155-3.456c-.41-.471-1.083-.432-1.965.108A8.845,8.845,0,0,1,953.714-1025.987Z" fill="#232b59"/>
          <path id="Trazado_10553" data-name="Trazado 10553" d="M953.137-1013.435c-7.29,5.758-12.217-1.7-14.367-1.77s1.254,9.647,5.811,10.492,10.131-1.183,11.9-4.282S953.137-1013.435,953.137-1013.435Z" fill="#fbd047"/>
          <path id="Trazado_10554" data-name="Trazado 10554" d="M921.787-992.474c4.929-2.376,18.39-5.917,19.564-5.935a45.265,45.265,0,0,0,4.848-1.909c.87-.337-3.723-2.63-4.277-2.109s-18.312-.886-19.87.932S921.787-992.474,921.787-992.474Z" fill="#f5b48d"/>
          <path id="Trazado_10555" data-name="Trazado 10555" d="M942.631-998.813c1.524-.481,4.7,1.936,7.088,1.033.954-.361,4.857-2.981,5.33-4.123s-3.5.015-4.271.021-5.287-.323-4.782-1.107,3.613-.206,3.56-1.937c-.008-.256-.938.249-2.045.083a9.2,9.2,0,0,0-2.12-.387,6.424,6.424,0,0,0-4.094,3.056C941.157-1001.427,940.6-998.171,942.631-998.813Z" fill="#f5b48d"/>
          <path id="Trazado_10556" data-name="Trazado 10556" d="M939.9-1013.525a2.388,2.388,0,0,0,.454-2.328,3.459,3.459,0,0,1-.85-.968c-.115-.3-.32-.65-.428-.084s.417,1.1.146,1.154-.817-1.215-1.015-1.656-.4-.535-.514-.49c-.2.077.246,1.358.112,1.4s-.909-1.253-1.221-1.126c-.249.1.549,1.354.466,1.41s-.727-.824-.889-.64c-.221.252.5,1.282.421,1.338s-.731-.513-.821-.4c-.233.287,1.122,1.94,1.413,2.24a3.379,3.379,0,0,0,1.758.738A1.774,1.774,0,0,0,939.9-1013.525Z" fill="#f5b48d"/>
          <g id="Grupo_12304" data-name="Grupo 12304">
            <path id="Trazado_10557" data-name="Trazado 10557" d="M952.326-1005.473a.212.212,0,0,0,.074-.014,11.2,11.2,0,0,0,4.462-3.643.2.2,0,0,0-.071-.272.2.2,0,0,0-.272.072,10.688,10.688,0,0,1-4.266,3.473.2.2,0,0,0-.111.258A.2.2,0,0,0,952.326-1005.473Z" fill="#f5c247"/>
          </g>
        </g>
        <g id="grandparents">
          <g id="Grupo_12308" data-name="Grupo 12308">
            <path id="Trazado_10558" data-name="Trazado 10558" d="M1002.355-886.4c.7-.113.6,1.591.348,1.726-1.708.906-5.912,1.025-9.22,1.261-3.864.275-7.837.069-8.168-.512a1.415,1.415,0,0,1,.688-2.213,96.317,96.317,0,0,1,9.6-.8C995.8-886.882,1002.355-886.4,1002.355-886.4Z" fill="#072b45"/>
            <path id="Trazado_10559" data-name="Trazado 10559" d="M998.05-898.513a35.53,35.53,0,0,1-2.019,8.309c-.178.373-2.07,2.523-1.034,3.623a3.883,3.883,0,0,0,6.6-2.067c-1.045-4.241,1.816-8,1.816-9.259S998.125-899.863,998.05-898.513Z" fill="#f5b48d"/>
            <path id="Trazado_10560" data-name="Trazado 10560" d="M1024.711-896.966a11.815,11.815,0,0,1,.424,7.255c-.18.447-1.788,5.505,2.7,4.114,2.916-.905,2.867-1.585,2.74-2.287a45.485,45.485,0,0,1-.412-8.824C1030.159-897.911,1024.264-898.13,1024.711-896.966Z" fill="#f5b48d"/>
            <path id="Trazado_10561" data-name="Trazado 10561" d="M1031.676-885.943c.569-.128.362,1.861.207,2.067a18.769,18.769,0,0,1-6.492.8c-2.967-.076-4.851-.235-5.091-.785a2.275,2.275,0,0,1,.643-1.936,31.658,31.658,0,0,1,5.572-.584C1026.681-886.331,1031.676-885.943,1031.676-885.943Z" fill="#072b45"/>
            <g id="Grupo_12307" data-name="Grupo 12307">
              <g id="Grupo_12306" data-name="Grupo 12306">
                <g id="Grupo_12305" data-name="Grupo 12305" clip-path="url(#clip-path-3)">
                  <rect id="Rectángulo_3274" data-name="Rectángulo 3274" width="22.947" height="99.267" transform="translate(988.572 -986.207)" fill="#011b44"/>
                  <path id="Trazado_10562" data-name="Trazado 10562" d="M1011.664-965.075v49.77h.177a14.338,14.338,0,0,1-3.821.155c-10.339-.965-17.677-12.924-16.389-26.711A29.69,29.69,0,0,1,998.762-959a19.592,19.592,0,0,1,6.45-4.794,15.5,15.5,0,0,1,3.65-1.127,14.445,14.445,0,0,1,1.9-.2c.318-.014.638-.016.959-.008h-.052Z" fill="#011b44"/>
                  <path id="Trazado_10563" data-name="Trazado 10563" d="M1011.664-963.887v47.4h.106a13.692,13.692,0,0,1-3.639.148c-9.847-.92-16.835-12.309-15.609-25.44s10.2-23.028,20.05-22.109Z" fill="#001a43"/>
                  <path id="Trazado_10564" data-name="Trazado 10564" d="M1011.664-962.7v45.031h.035a13,13,0,0,1-3.457.14c-9.354-.874-15.993-11.694-14.829-24.167s9.693-21.878,19.048-21Z" fill="#011943"/>
                  <path id="Trazado_10565" data-name="Trazado 10565" d="M1011.664-961.509v42.494h.762c-.264.064-.53.12-.8.166a12.266,12.266,0,0,1-3.275.133c-8.862-.827-15.152-11.078-14.048-22.9s9.182-20.726,18.045-19.9Z" fill="#001842"/>
                  <path id="Trazado_10566" data-name="Trazado 10566" d="M1011.664-960.321v40.134h.647c-.25.06-.5.113-.754.157a11.659,11.659,0,0,1-3.093.126c-8.37-.782-14.31-10.463-13.268-21.624s8.673-19.574,17.043-18.793Z" fill="#011741"/>
                  <path id="Trazado_10567" data-name="Trazado 10567" d="M1011.664-959.132v37.773h.532q-.352.086-.71.148a10.965,10.965,0,0,1-2.911.118c-7.877-.736-13.468-9.847-12.487-20.352s8.162-18.423,16.04-17.687Z" fill="#001641"/>
                  <path id="Trazado_10568" data-name="Trazado 10568" d="M1011.664-957.943v35.412h.417q-.332.079-.666.139a10.277,10.277,0,0,1-2.729.11c-7.385-.69-12.626-9.232-11.707-19.079s7.652-17.272,15.038-16.582Z" fill="#001640"/>
                  <path id="Trazado_10569" data-name="Trazado 10569" d="M1011.664-956.755v32.883h.915a10.137,10.137,0,0,1-1.235.3,9.543,9.543,0,0,1-2.547.1c-6.893-.643-11.784-8.616-10.926-17.807s7.142-16.12,14.035-15.477Z" fill="#00143f"/>
                  <path id="Trazado_10570" data-name="Trazado 10570" d="M1011.664-955.566v30.534h.755a9.424,9.424,0,0,1-1.146.277,8.936,8.936,0,0,1-2.365.1c-6.4-.6-10.943-8-10.146-16.536s6.632-14.969,13.033-14.371Z" fill="#00133e"/>
                  <path id="Trazado_10571" data-name="Trazado 10571" d="M1011.664-954.377v28.185h.6a8.622,8.622,0,0,1-1.058.255,8.2,8.2,0,0,1-2.183.089c-5.908-.552-10.1-7.386-9.365-15.264s6.121-13.817,12.03-13.265Z" fill="#00123e"/>
                  <path id="Trazado_10572" data-name="Trazado 10572" d="M1011.573-953.188a7.323,7.323,0,0,1,1,.161h-.9v25.675h.437a7.926,7.926,0,0,1-.97.234,7.471,7.471,0,0,1-2,.081c-5.415-.505-9.259-6.77-8.585-13.991S1006.157-953.694,1011.573-953.188Z" fill="#01113d"/>
                  <path id="Trazado_10573" data-name="Trazado 10573" d="M1011.462-952a6.806,6.806,0,0,1,.905.147h-.7v23.341h.278a7.282,7.282,0,0,1-.881.213,6.872,6.872,0,0,1-1.82.074c-4.923-.46-8.417-6.155-7.8-12.72S1006.538-952.459,1011.462-952Z" fill="#010e3c"/>
                  <path id="Trazado_10574" data-name="Trazado 10574" d="M1011.351-950.811a6.125,6.125,0,0,1,.815.132h-.5v20.716h.89a6.349,6.349,0,0,1-3.2.549c-4.431-.414-7.576-5.539-7.024-11.448S1006.919-951.225,1011.351-950.811Z" fill="#000e3c"/>
                  <path id="Trazado_10575" data-name="Trazado 10575" d="M1011.24-949.622a5.478,5.478,0,0,1,1.419.327h-.995v18.2h.645a5.635,5.635,0,0,1-2.846.488c-3.938-.368-6.734-4.924-6.243-10.176S1007.3-949.99,1011.24-949.622Z" fill="#000d3b"/>
                  <path id="Trazado_10576" data-name="Trazado 10576" d="M1011.129-948.434a4.8,4.8,0,0,1,1.241.287h-.706v15.928h.4a4.926,4.926,0,0,1-2.491.427c-3.446-.321-5.892-4.308-5.463-8.9S1007.682-948.755,1011.129-948.434Z" fill="#000c39"/>
                  <path id="Trazado_10577" data-name="Trazado 10577" d="M1011.018-947.245a4.1,4.1,0,0,1,1.064.246h-.418v13.653h.156a4.234,4.234,0,0,1-2.135.366c-2.954-.276-5.05-3.693-4.682-7.632S1008.063-947.521,1011.018-947.245Z" fill="#000b39"/>
                  <path id="Trazado_10578" data-name="Trazado 10578" d="M1010.907-946.056a3.516,3.516,0,0,1,1.691.629h-.934v10.476h.719a4.317,4.317,0,0,1-.808.477,3.53,3.53,0,0,1-1.779.3c-2.461-.23-4.208-3.077-3.9-6.36S1008.445-946.286,1010.907-946.056Z" fill="#000a39"/>
                  <path id="Trazado_10579" data-name="Trazado 10579" d="M1010.8-944.867a2.819,2.819,0,0,1,1.353.5h-.485v7.849h.9a3.2,3.2,0,0,1-2.652,1.157c-1.969-.184-3.367-2.462-3.121-5.088S1008.826-945.051,1010.8-944.867Z" fill="#000938"/>
                  <path id="Trazado_10580" data-name="Trazado 10580" d="M1010.685-943.679a2.4,2.4,0,0,1,1.793,1.221h-.814v5.044h.343a2.4,2.4,0,0,1-1.989.868c-1.477-.138-2.525-1.847-2.341-3.816S1009.207-943.817,1010.685-943.679Z" fill="#000937"/>
                  <path id="Trazado_10581" data-name="Trazado 10581" d="M1010.573-942.49a2.154,2.154,0,0,1,1.561,2.544c-.122,1.313-1.02,2.3-2,2.211a2.155,2.155,0,0,1-1.56-2.544C1008.691-941.592,1009.589-942.582,1010.573-942.49Z" fill="#000737"/>
                  <path id="Trazado_10582" data-name="Trazado 10582" d="M1010.462-941.3a1.077,1.077,0,0,1,.781,1.272c-.061.656-.51,1.151-1,1.1a1.077,1.077,0,0,1-.78-1.272C1009.521-940.852,1009.97-941.347,1010.462-941.3Z" fill="#000636"/>
                </g>
              </g>
            </g>
            <path id="Trazado_10583" data-name="Trazado 10583" d="M1023.984-977.524c2.43,11.772.076,33.358.08,43.885,3.411,2.592,6.686,5.816,7.12,7.308,2.756,9.471-.293,34.558-.293,35.437-.628,1.171-6.9,1.587-6.845-.4-3.781-24.154-8.615-33.155-10.571-38.325-7.975-21.066-14.357-44.832-14.357-44.832Z" fill="#011b44"/>
            <path id="Trazado_10584" data-name="Trazado 10584" d="M1025.93-891.2c-.649.022-1.591,1.467-2.112,2.987-.607.641-1.714.873-2.291,1.729-.4.6-.908,1.644-.691,1.927.757.988,10.4.822,10.742-.068.449-1.157-.492-2.216-.628-3.356-.112-.942-.327-2.122-.553-1.784-.408.612-.148,1.932-1.112,2.068C1028.386-890.348,1027-891.238,1025.93-891.2Z" fill="#0b3c5f"/>
            <path id="Trazado_10585" data-name="Trazado 10585" d="M1002.329-885.879c-.276.977-14.308,2.559-16.321,1.254-1.069-.694-.118-1.486,1.091-1.995,1.409-.59,4.82-2,6.129-2.582a2.863,2.863,0,0,0,1.731-1.7c.163-.337.409-.61.553-.507.431.31.519,1.375.334,2.22-.18.826-.376,1.615-.036,1.8a1.35,1.35,0,0,0,1.529-.093c1.935.224,4.366-.123,4.739-.671A3.022,3.022,0,0,1,1002.329-885.879Z" fill="#0b3c5f"/>
          </g>
          <path id="Trazado_10586" data-name="Trazado 10586" d="M991.534-1023.5c-3.964-1.033-20.563,26.423-20.563,26.423L989.4-987.4S1000.266-1021.227,991.534-1023.5Z" fill="#4892c7"/>
          <path id="Trazado_10587" data-name="Trazado 10587" d="M1007.439-1029.13c3.7.687,17.174,2.28,21.742,10.549,1.924,3.483-4.205,30.145-3.7,32.707s1.055,19,.523,19.7c-2.116,2.767-31.964,3.225-35.767-2.512-1.078-1.627,1.1-14.811.676-17.666-.369-2.493-5.3-30.762-1.4-35.875C992.736-1026.469,1007.439-1029.13,1007.439-1029.13Z" fill="#3c79a5"/>
          <path id="Trazado_10588" data-name="Trazado 10588" d="M994.98-1045.092c-.737,1.515,1.02,8.348,2.059,8.623,2.344.621,9.807.914,11.2.042s1.534-6.654.065-9.732C1006.439-1050.071,996.425-1048.063,994.98-1045.092Z" fill="#efefef"/>
          <path id="Trazado_10589" data-name="Trazado 10589" d="M1008.064-1040.677a120.745,120.745,0,0,0,2.542,14.7c.418,1-3.657,3.237-6.6,3.258-4.058.03-6.432-1.5-6.432-2.422s1.336-7.769,1.336-7.769l3.178-7.03Z" fill="#f19e86"/>
          <path id="Trazado_10590" data-name="Trazado 10590" d="M999.262-1046.206c-2.643.784-4.692,2.184-3.351,6.8s1.835,5.713,3.737,7.823,7.492-1.906,7.811-2.036.132-5.017.5-5.987,1.238-2.57.719-3.256-1.495.466-1.495.466S1007.034-1048.51,999.262-1046.206Z" fill="#f5b48d"/>
          <path id="Trazado_10591" data-name="Trazado 10591" d="M1000.019-1036.724a7.612,7.612,0,0,0-3.36,1.834c-.414.611,1.209,5.334,2.425,5.879a11.776,11.776,0,0,0,4.381.813c.911-.087,3.471-2.264,3.956-2.713s1.1-6.862.471-8.44-.263-3.663-.807-3.244.349,4.933-.456,5.806S1001.277-1036.776,1000.019-1036.724Z" fill="#efefef"/>
          <path id="Trazado_10592" data-name="Trazado 10592" d="M970.41-1018.294c-.378.028-.714,1.334-.688,1.781s.823,1.094.823,1.094l1.677-.065a13.644,13.644,0,0,1-.841-1.235C971.187-1017.1,970.828-1018.324,970.41-1018.294Z" fill="#f19e86"/>
          <g id="Grupo_12310" data-name="Grupo 12310">
            <path id="Trazado_10593" data-name="Trazado 10593" d="M956.018-936.347c-1.26,9.53,16.255,38.586,15.795,43.066a34.564,34.564,0,0,0-3.76,6.992,6.452,6.452,0,0,1,4.041,1.393,12.558,12.558,0,0,0,4.467-6.436c.062-.314-.17-1.659-.17-1.956,0-.646.883-29.818-1.438-35.188-1.632-3.776-7.261-4.926-10.327-6.57C961.228-936.868,956.018-936.347,956.018-936.347Z" fill="#f19e86"/>
            <g id="Grupo_12309" data-name="Grupo 12309">
              <path id="Trazado_10594" data-name="Trazado 10594" d="M973.554-886.218a13.931,13.931,0,0,1,.71,2.524c0,.1-.066.3.01.319a7.281,7.281,0,0,0,1.093,0l.986-1.137-.18-3.232Z" fill="#137777"/>
              <path id="Trazado_10595" data-name="Trazado 10595" d="M969.17-887.586c-4.417-.055-3.8,4.081-3.308,4.522.425.377,5.3.412,6.146.2.815-.2,2.462-1.708,3.409-3.416.2-.357.611,1.381-.05,2.9a4.544,4.544,0,0,0,1.377-.029c.4-.191.432-3.682.609-3.958,1.359-2.112-.909-5.392-.909-5.392a10.912,10.912,0,0,1,.076,1.5,10.727,10.727,0,0,1-3.739,5.387A6.179,6.179,0,0,0,969.17-887.586Z" fill="#1aa6ab"/>
            </g>
          </g>
          <g id="Grupo_12312" data-name="Grupo 12312">
            <path id="Trazado_10596" data-name="Trazado 10596" d="M976.918-942.529c-1.361,6.746.249,8.888,1.133,16.259,1.122,9.351,4.106,21.852,3.432,33.358a20.4,20.4,0,0,0-2.985,6.532c-.022,1.433,1.935,2.421,2.711,3.252,3.7-1.889,5.282-6.623,5.439-7.412.062-.314-.584-1.917-.574-2.214.183-5.54,8.622-23.555,8.126-32.9-.23-4.34-6.064-11.625-7.379-14.381C984.888-944.087,976.918-942.529,976.918-942.529Z" fill="#f19e86"/>
            <g id="Grupo_12311" data-name="Grupo 12311">
              <path id="Trazado_10597" data-name="Trazado 10597" d="M983.207-886.218a14.03,14.03,0,0,1,.711,2.524c0,.1-.067.3.009.319a7.281,7.281,0,0,0,1.093,0l.986-1.137-.179-3.232Z" fill="#137777"/>
              <path id="Trazado_10598" data-name="Trazado 10598" d="M978.824-887.586c-4.418-.055-3.806,4.081-3.309,4.522.425.377,5.3.412,6.147.2.814-.2,2.461-1.708,3.408-3.416.2-.357.611,1.381-.05,2.9a4.552,4.552,0,0,0,1.378-.029c.4-.191.431-3.682.608-3.958,1.359-2.112-.932-5.392-.932-5.392a11.186,11.186,0,0,1,.1,1.5,10.728,10.728,0,0,1-3.739,5.387A6.18,6.18,0,0,0,978.824-887.586Z" fill="#1aa6ab"/>
            </g>
          </g>
          <path id="Trazado_10599" data-name="Trazado 10599" d="M971.905-1023.531c-3.2-1.445-6.028-7.227-2.13-11.636s8.587-2.75,9.835-2.437c1.9.475,8.389,7.559,3.127,14.8S971.905-1023.531,971.905-1023.531Z" fill="#fff"/>
          <path id="Trazado_10600" data-name="Trazado 10600" d="M967.8-1014.038c-11.778,8.571-15.434,24.606-14.51,27.887,1.472,5.221,5.924,7.606,11.688,3.847S973.141-1017.927,967.8-1014.038Z" fill="#226480"/>
          <path id="Trazado_10601" data-name="Trazado 10601" d="M954.852-935.193c.2,3.648,2.62,8.808,3.153,10,1.295,2.89,34.4,2.186,38-2.384,0-2.141-2.9-9.994-2.884-11.475.085-6.173,9.6-18.4,6.019-31.092-1.938-6.864-11.99-13.245-13.544-13.586-3.88-.853-18.42.878-20.712,4.474C956.018-965.343,954.294-945.4,954.852-935.193Z" fill="#1aa6ab"/>
          <path id="Trazado_10602" data-name="Trazado 10602" d="M976.607-1017.873c1.749-.614,10.86,2.715,11.612,4.595.5,1.243.795,16.405.205,25.364-.3,4.582,11.332,10.39,10.694,16.321-.469,4.357-42.442,14-40.791,2.2.106-.756,5.282-16.034,5.333-16.759.525-7.364,1.453-9.54,1.139-13.359-.2-2.391,2.554-13.226,3.215-14.148C969.273-1015.412,974.1-1016.991,976.607-1017.873Z" fill="#011b44"/>
          <path id="Trazado_10603" data-name="Trazado 10603" d="M980.017-1023.86c.252,3.949,1.026,8.1,1.693,9.349.94,1.754-4.141,3.425-6.271,2.861s-2.757-1.691-2.82-2.443,2.5-3.236,2.945-8.52C975.922-1026.826,979.914-1025.47,980.017-1023.86Z" fill="#f19e86"/>
          <path id="Trazado_10604" data-name="Trazado 10604" d="M969.989-1030.831c-1.511,6.4.533,14.076,5.018,14.686,3.713.5,6.664-4.36,5.293-8.767a2.069,2.069,0,0,0,1.237-3.08c-1.1-1.294-1.946.483-1.946.483a13.293,13.293,0,0,1-1.153-3.264C971.836-1027.9,969.989-1030.831,969.989-1030.831Z" fill="#f5b48d"/>
          <path id="Trazado_10605" data-name="Trazado 10605" d="M977.761-1036.63c-1.713-4.825,1.279-11.849,4.984-10.444s1.424,7.479,1.424,7.479,1.563-2.2,2.595-.988c1.13,1.329-1.817,6.56-5.424,6.938A2.967,2.967,0,0,1,977.761-1036.63Z" fill="#fff"/>
          <path id="Trazado_10606" data-name="Trazado 10606" d="M988.219-1013.278c-4.6.005-3.795,25.538-2.611,27.629,2.746,4.85,9.906,5.336,13.51-.052S992.314-1013.283,988.219-1013.278Z" fill="#226480"/>
          <path id="Trazado_10607" data-name="Trazado 10607" d="M955.622-983.152c-.628-1-.143-6.89,2.4-9.3,3.185-3.015,12.277-8.08,12.671-8.777a49.364,49.364,0,0,1,4.885-6.107,5.944,5.944,0,0,1,3.557-.906c.835.206-2.313,1.151-2.479,1.3s-.084.267-.025.638,3.22-.894,3.715-.972.038,1.833-.17,2.12-2.579.538-2.7,1,2.141.11,2.223.47-1.684.522-2.3.621-2.109,2.69-2.855,3.186a3.571,3.571,0,0,1-2.041.325s-6.663,13.607-8.594,14.971C962.013-983.233,956.6-981.595,955.622-983.152Z" fill="#f19e86"/>
          <path id="Trazado_10608" data-name="Trazado 10608" d="M994.111-990.822c-3.917-4.651-14.818-13.657-16.513-13.748-2.234-.12-4.176-.063-5.6,0s-2.407,2.2-2.173,2.443c.379.392,1.5-1.253,1.692-1.253s-1.037,2-.94,2.694c.072.519,1.754.125,2.005,0s1.728-.877,1.728-.877-1.538,1.434-1.049,1.687c.707.366,2.015-1.687,2.516-1.5s1.128,1.129,2.381,1.6,1.7-.011,2.163.229,4.656,11.755,5.7,12.886c1.766,1.915,6.043,3.479,8.236,3.416S995.355-989.343,994.111-990.822Z" fill="#f5b48d"/>
          <path id="Trazado_10609" data-name="Trazado 10609" d="M969.21-1016.454c-.955.138-.556,1.717-.836,1.776-.353.075-1.021-.79-1.4-.655-.522.186-2.5,3.426-2.5,3.795,0,.617,2.182,1.736,2.8,1.7a4.157,4.157,0,0,0,1.766-1.012c.182-.269-.336-2.258-.1-2.424.525-.377.737,1.318,1.834,1.042C971.3-1012.367,969.942-1016.56,969.21-1016.454Z" fill="#f19e86"/>
          <path id="Trazado_10610" data-name="Trazado 10610" d="M1022.649-1015.991c-3.231,6.308-3.827,21.145-4.749,21.624-1.284.666-23.164-6.7-23.164-6.7s-2,1.56-1.076,3.234c3.215,5.84,20.09,17.614,29.772,15.736,5.418-1.051,10.4-26.922,5.749-36.483C1028.258-1020.478,1025.26-1021.088,1022.649-1015.991Z" fill="#4892c7"/>
          <path id="Trazado_10611" data-name="Trazado 10611" d="M994.883-1004.351a6.079,6.079,0,0,0-1.662-1.7,12.7,12.7,0,0,0-1.411-.14c-1.02-.165-1.733-.9-1.712-.218.047,1.544,2.3,1.722,2.193,2.043a24.2,24.2,0,0,0-3.8-1.166c-.878-.033-3.072.095-2.756,1.021.147.429,2.278.28,2.66.351a6.165,6.165,0,0,1,1.814.831c-.185.143-1.354-.3-2.751-.389s-2.532.1-2.7.409a1.7,1.7,0,0,0,1.02,1.931c.981.209,3.144.276,3.511.93.142.253-2.673-.019-2.682.508-.02,1.165,2.608.684,3.056.769.621.118,3.227,1.475,4.29,1.325,1.183-.166,2.558-1.4,2.189-2.328C995.656-1001.4,995.252-1003.791,994.883-1004.351Z" fill="#f5b48d"/>
        </g>
      </g>
      <g id="doctor">
        <g id="Grupo_12317" data-name="Grupo 12317">
          <path id="Trazado_10612" data-name="Trazado 10612" d="M807.884-881.256c-.683-.111-.588,1.551-.339,1.683,1.666.883,5.765,1,8.991,1.229,3.768.268,7.642.067,7.965-.5A1.379,1.379,0,0,0,823.83-881a93.681,93.681,0,0,0-9.361-.776C814.274-881.726,807.884-881.256,807.884-881.256Z" fill="#072b45"/>
          <path id="Trazado_10613" data-name="Trazado 10613" d="M812.083-893.068a34.592,34.592,0,0,0,1.969,8.1c.173.364,2.017,2.46,1.008,3.533a3.786,3.786,0,0,1-6.439-2.016c1.019-4.135-1.771-7.8-1.771-9.028S812.009-894.384,812.083-893.068Z" fill="#f5b48d"/>
          <path id="Trazado_10614" data-name="Trazado 10614" d="M808.64-885.379c.1,2.333-1.258,2.79-.731,4.632.272.953,13.954,2.5,15.915,1.222,1.044-.678.116-1.45-1.063-1.945-1.373-.576-4.7-1.95-5.978-2.517-1.723-.765-2.122-2.234-2.475-1.978-.831.6.629,3.381-.041,3.738-1.365.727-4.8-2.651-5.326-3.254C808.8-885.642,808.633-885.56,808.64-885.379Z" fill="#0b3c5f"/>
          <path id="Trazado_10615" data-name="Trazado 10615" d="M774.407-891.9a15.226,15.226,0,0,0-.413,8.154c.176.436,1.743,5.368-2.629,4.012-2.844-.883-3.41-1.854-3.05-2.451,1.752-2.9.779-8.29.779-9.463S774.843-893.037,774.407-891.9Z" fill="#f5b48d"/>
          <path id="Trazado_10616" data-name="Trazado 10616" d="M767.615-880.074c-.555-.124-.352,1.815-.2,2.016a18.291,18.291,0,0,0,6.33.785c2.893-.074,4.73-.229,4.964-.766a2.217,2.217,0,0,0-.626-1.888,30.96,30.96,0,0,0-5.435-.569C772.486-880.452,767.615-880.074,767.615-880.074Z" fill="#072b45"/>
          <path id="Trazado_10617" data-name="Trazado 10617" d="M773.218-885.2c.634.022,1.552,1.431,2.06,2.912.592.626,1.671.851,2.234,1.687.392.581.885,1.6.673,1.879-.738.963-10.137.8-10.474-.067-.438-1.128.48-2.161.612-3.272.122-1.019,0-1.528.357-2.067.111-.166.391-.066.381.255-.022.7-.13,1.946.886,2.089C770.823-884.369,772.177-885.237,773.218-885.2Z" fill="#0b3c5f"/>
          <g id="Grupo_12316" data-name="Grupo 12316">
            <g id="Grupo_12315" data-name="Grupo 12315">
              <g id="Grupo_12314" data-name="Grupo 12314" clip-path="url(#clip-path-4)">
                <rect id="Rectángulo_3275" data-name="Rectángulo 3275" width="23.386" height="93.272" transform="translate(791.728 -977.164)" fill="#6b614f"/>
                <path id="Trazado_10618" data-name="Trazado 10618" d="M799.392-934.315" fill="#24557c"/>
                <path id="Trazado_10619" data-name="Trazado 10619" d="M793.954-938.647a3.719,3.719,0,0,0-2.462,2.3h.108v4.091h-.319c.764,2.96,3.2,4.9,5.438,4.333" fill="#24557c"/>
                <path id="Trazado_10620" data-name="Trazado 10620" d="M794.369-937.039c-1.568.4-2.406,2.4-1.871,4.471s2.238,3.43,3.806,3.033,2.406-2.4,1.871-4.472S795.937-937.437,794.369-937.039Z" fill="#235379"/>
                <path id="Trazado_10621" data-name="Trazado 10621" d="M794.507-936.5c-1.344.34-2.062,2.056-1.6,3.832s1.919,2.94,3.263,2.6,2.062-2.057,1.6-3.833S795.851-936.844,794.507-936.5Z" fill="#225278"/>
                <path id="Trazado_10622" data-name="Trazado 10622" d="M794.645-935.967c-1.119.283-1.718,1.713-1.336,3.193s1.6,2.45,2.719,2.167,1.718-1.714,1.336-3.194S795.765-936.251,794.645-935.967Z" fill="#225277"/>
                <path id="Trazado_10623" data-name="Trazado 10623" d="M794.784-935.431a1.992,1.992,0,0,0-1.07,2.555c.306,1.184,1.28,1.96,2.176,1.733a1.993,1.993,0,0,0,1.069-2.555C796.653-934.883,795.68-935.658,794.784-935.431Z" fill="#235176"/>
                <path id="Trazado_10624" data-name="Trazado 10624" d="M794.922-934.9a1.493,1.493,0,0,0-.8,1.916c.229.888.959,1.47,1.631,1.3a1.5,1.5,0,0,0,.8-1.917C796.324-934.484,795.594-935.066,794.922-934.9Z" fill="#225075"/>
                <path id="Trazado_10625" data-name="Trazado 10625" d="M795.06-934.359a.994.994,0,0,0-.534,1.277c.152.592.639.98,1.087.867a1,1,0,0,0,.535-1.278C795.995-934.085,795.508-934.473,795.06-934.359Z" fill="#225074"/>
                <path id="Trazado_10626" data-name="Trazado 10626" d="M795.2-933.823a.5.5,0,0,0-.267.638c.076.3.32.49.544.434a.5.5,0,0,0,.267-.639C795.666-933.686,795.422-933.88,795.2-933.823Z" fill="#234f73"/>
              </g>
            </g>
          </g>
          <path id="Trazado_10627" data-name="Trazado 10627" d="M778.712-969.752c-2.369,11.479-3.671,32.529-3.674,42.794-3.326,2.527-5.488,5.656-5.855,7.127-1.826,7.313-.942,32.908-.942,33.765.612,1.142,5.75,2.292,5.7.355,6.66-28.1,9.518-32.285,11.426-37.326,7.776-20.542,17.6-43.717,17.6-43.717Z" fill="#6b614f"/>
        </g>
        <path id="Trazado_10628" data-name="Trazado 10628" d="M795.9-1019.026c-3.55.548-18.384,1.426-22.765,8.026-1.845,2.781,4.048,42.549,5.153,43.768,1.77,1.952,25.153,4.579,28.8,0,1.034-1.3,11.624-40.249,4.515-46.234C808.006-1016.491,795.9-1019.026,795.9-1019.026Z" fill="#fffeeb"/>
        <path id="Trazado_10629" data-name="Trazado 10629" d="M803.762-1041.057c3.01,1.981,2.185,7.747-1.6,10.186-1.955,1.258-8.8,4.6-10.141,3.761s-3.441-7.323-1.8-10.932a4.784,4.784,0,0,1,3.4-2.719c1.551-.241,2.113-1.122,4.123-1.979C799.935-1043.676,802.216-1042.074,803.762-1041.057Z" fill="#232b59"/>
        <path id="Trazado_10630" data-name="Trazado 10630" d="M791.586-1034.907c-.6,5.367-2.038,15.474-2.438,16.435s3.506,3.1,6.328,3.125c3.891.028,6.168-1.442,6.168-2.324s-1.281-9.786-1.281-9.786l-3.048-6.742Z" fill="#f19e86"/>
        <path id="Trazado_10631" data-name="Trazado 10631" d="M799.95-1037.22c1.057.313,2.138-1.118,2.787-.365.907,1.052,1.239,1.589,1.112,4.275-.23,4.87-2.81,10.391-4.495,10.488-5.214.3-7.349-6.536-7.4-6.862-.36-2.247.086-1.922-.268-2.852s-1.188-2.465-.69-3.123,1.434.446,1.434.446a5.678,5.678,0,0,1,2.011-2.771C795.553-1038.965,797.1-1038.066,799.95-1037.22Z" fill="#f5b48d"/>
        <path id="Trazado_10632" data-name="Trazado 10632" d="M801.293-1020.745c.442-.162,2.452,2.983,2.578,3.688s-3.649,5.109-4.548,4.66-1.614-2.257-1.967-2.4c-.55-.219-.881,2.847-1.974,2.847s-9.326-3.57-9.376-5.913a27.942,27.942,0,0,1,3.868-4.412c.486.252,3.731,3.247,7.7,3.247C799.637-1019.026,800.91-1020.6,801.293-1020.745Z" fill="#fffeeb"/>
        <path id="Trazado_10633" data-name="Trazado 10633" d="M797.278-1017.911l1.653,4.875s-.516,2.077-.826,2.976c.826,1.618,3.007,23.253,0,30.684a50.725,50.725,0,0,1-5.066-7.671s4.336-16.78,3.857-23.013a21.192,21.192,0,0,1-1.027-3.419Z" fill="#ba1400"/>
        <g id="Grupo_12318" data-name="Grupo 12318">
          <path id="Trazado_10634" data-name="Trazado 10634" d="M795.382-1011.674a.274.274,0,0,0,.261-.191l1.644-5.168,1.754,5.173a.277.277,0,0,0,.166.17.279.279,0,0,0,.237-.024c.137-.085,3.391-2.1,4.57-4.842a.275.275,0,0,0-.144-.36.274.274,0,0,0-.36.144,11.942,11.942,0,0,1-4.064,4.4L797.538-1018a.264.264,0,0,0-.262-.186.274.274,0,0,0-.259.191l-1.814,5.705c-1.232-.388-6.59-2.2-8.724-4.989a.273.273,0,0,0-.384-.051.274.274,0,0,0-.051.384c2.517,3.29,8.988,5.182,9.262,5.261A.277.277,0,0,0,795.382-1011.674Z" fill="#e0dfd7"/>
        </g>
        <path id="Trazado_10635" data-name="Trazado 10635" d="M841.072-982.1c1.261-2.347,4.772-2.68,5.566-2.93s1.722-.666,1.722,0-1.324,1.5-1.722,2.081,4.5-.249,5.431-.249,2.808.449,2.5,1.1-3.49.317-4.087.9,4.069.8,4.121,1.609a6.361,6.361,0,0,1-2.531,3.718c-1.06.5-8.61,0-9.14,0a32.135,32.135,0,0,1-4.172-1.859Z" fill="#f5b48d"/>
        <path id="Trazado_10636" data-name="Trazado 10636" d="M813.339-1011.948c2.826,4.411,9.131,24.128,13.5,25.9s14.23,3.836,14.23,3.836,0,5.97-1.559,6.561-18.717.352-21.774-.728c-5.221-1.846-11.947-18.526-11.947-18.526Z" fill="#f4f4f4"/>
        <path id="Trazado_10637" data-name="Trazado 10637" d="M787.446-1019.728c-.619,6.432,5.257,76.176,2.246,83.957-10.2,2.535-24.534-1.928-24.534-1.928s6.356-31,6.167-36.808-1.274-33.1.507-36.991C773.972-1016.173,787.446-1019.728,787.446-1019.728Z" fill="#fff"/>
        <path id="Trazado_10638" data-name="Trazado 10638" d="M803.165-1018.5a23.969,23.969,0,0,1,9.032,5.007c5.824,5.047-.015,32.675,2.35,40.107s7.034,34.259,6.314,35.218-10.567,3.72-13.444,3.009-2.251-40.484-1.292-47.386S803.165-1018.5,803.165-1018.5Z" fill="#fff"/>
        <path id="Trazado_10639" data-name="Trazado 10639" d="M773.163-970.621l2.7,3.865s2.55,4.4,2.893,5.124.972,2.337.613,2.517a38.985,38.985,0,0,1-6.832-.809c-.719-.27-.087-5.067-.718-5.365s-5.027-6.681-5.027-6.681Z" fill="#f5b48d"/>
        <path id="Trazado_10640" data-name="Trazado 10640" d="M771.832-1011.5c-5.981,7.311-17.008,22.143-17.008,25.978s14.78,19.992,14.78,19.992l5.537-3.631s-7.372-15.761-7.911-17.2,11.147-8.6,11.507-13.273S773.825-1013.935,771.832-1011.5Z" fill="#fff"/>
        <g id="Grupo_12319" data-name="Grupo 12319">
          <path id="Trazado_10641" data-name="Trazado 10641" d="M772.883-946.142c-1.416-.448-1.724-.764-1.762-1.127-.107-1.007.313-12.237.331-12.715a.408.408,0,0,1,.136-.29.409.409,0,0,1,.3-.105l13.255.882a.41.41,0,0,1,.29.148.412.412,0,0,1,.092.313c-.491,4.01-1.7,13.417-2.346,14.152a2.083,2.083,0,0,1-1.363.281A42.313,42.313,0,0,1,772.883-946.142Z" fill="#f4f4f4"/>
        </g>
        <g id="Grupo_12320" data-name="Grupo 12320">
          <path id="Trazado_10642" data-name="Trazado 10642" d="M779.09-999.42a.411.411,0,0,0-.142-.565.412.412,0,0,0-.565.141,96.563,96.563,0,0,1-7.17,8.768.413.413,0,0,0,.039.581.407.407,0,0,0,.271.1.413.413,0,0,0,.311-.141" fill="#f4f4f4"/>
        </g>
        <g id="Grupo_12321" data-name="Grupo 12321">
          <path id="Trazado_10643" data-name="Trazado 10643" d="M788.181-984.063a.412.412,0,0,0,.16-.032.413.413,0,0,0,.219-.54c-1.683-3.98-6.639-16.547-6.576-17.94a6.007,6.007,0,0,1,1.879-.593c1.363-.3,2.539-.554,2.555-1.4.018-.91-2.072-4.82-5.025-10.243l-.768-1.412a.413.413,0,0,0-.559-.166.413.413,0,0,0-.166.559l.769,1.413c1.846,3.389,4.935,9.062,4.925,9.833a5.632,5.632,0,0,1-1.907.61c-1.139.248-2.124.463-2.442,1.021-.164.285-.41.716,2.67,8.839,1.551,4.092,3.324,8.468,3.886,9.8A.411.411,0,0,0,788.181-984.063Z" fill="#f4f4f4"/>
        </g>
        <g id="Grupo_12322" data-name="Grupo 12322">
          <path id="Trazado_10644" data-name="Trazado 10644" d="M806.665-983.636a.411.411,0,0,0,.388-.274c.521-1.453,4.158-17.778,3.946-18.941-.127-.7-1.051-1.051-2.12-1.457-.674-.255-1.8-.683-1.8-1.027a15.081,15.081,0,0,1,.7-2.745,51.9,51.9,0,0,0,1.7-6.838.413.413,0,0,0-.341-.473.412.412,0,0,0-.473.341,51.119,51.119,0,0,1-1.678,6.731,14.006,14.006,0,0,0-.733,2.984c0,.913,1.186,1.363,2.334,1.8.544.206,1.557.59,1.6.833.119,1.065-3.311,16.846-3.91,18.516a.412.412,0,0,0,.248.527A.4.4,0,0,0,806.665-983.636Z" fill="#f4f4f4"/>
        </g>
      </g>
    </g>
  </g>
</svg>
